<svg width="1920" height="1226" viewBox="0 0 1920 1226" fill="none" xmlns="http://www.w3.org/2000/svg">
<rect width="1920" height="1024" fill="#F8F8F8"/>
<g filter="url(#filter0_f_1_3517)">
<circle cx="215.5" cy="213.5" r="298.5" fill="#E2F1DA"/>
</g>
<g filter="url(#filter1_f_1_3517)">
<circle cx="559.5" cy="97.5" r="298.5" fill="#F6F4E5"/>
</g>
<g filter="url(#filter2_f_1_3517)">
<circle cx="1071.5" cy="111.5" r="298.5" fill="#E5F3FC"/>
</g>
<path d="M161.302 205.797L175.479 215.308L160.154 222.83L161.302 205.797Z" fill="#03C12D"/>
<circle cx="1188" cy="401" r="5" fill="#FF9900"/>
<circle cx="1635" cy="564" r="221.5" stroke="#4B4AEF"/>
<circle cx="1586" cy="580" r="222" fill="#4B4AEF" fill-opacity="0.3"/>
<g filter="url(#filter3_f_1_3517)">
<circle cx="1487" cy="787" r="139" fill="#4B4AEF"/>
</g>
<circle cx="1067.5" cy="562.5" r="3.5" fill="#4B4AEF" fill-opacity="0.2"/>
<circle cx="1082.5" cy="562.5" r="3.5" fill="#4B4AEF" fill-opacity="0.2"/>
<circle cx="1096.5" cy="561.5" r="3.5" fill="#4B4AEF" fill-opacity="0.2"/>
<circle cx="1110.5" cy="561.5" r="3.5" fill="#4B4AEF" fill-opacity="0.2"/>
<circle cx="1124.5" cy="561.5" r="3.5" fill="#4B4AEF" fill-opacity="0.2"/>
<circle cx="1067.5" cy="548.5" r="3.5" fill="#4B4AEF" fill-opacity="0.2"/>
<circle cx="1082.5" cy="548.5" r="3.5" fill="#4B4AEF" fill-opacity="0.2"/>
<circle cx="1096.5" cy="547.5" r="3.5" fill="#4B4AEF" fill-opacity="0.2"/>
<circle cx="1110.5" cy="547.5" r="3.5" fill="#4B4AEF" fill-opacity="0.2"/>
<circle cx="1124.5" cy="547.5" r="3.5" fill="#4B4AEF" fill-opacity="0.2"/>
<circle cx="1715.5" cy="763.5" r="3.5" fill="#4B4AEF" fill-opacity="0.2"/>
<circle cx="1730.5" cy="763.5" r="3.5" fill="#4B4AEF" fill-opacity="0.2"/>
<circle cx="1744.5" cy="762.5" r="3.5" fill="#4B4AEF" fill-opacity="0.2"/>
<circle cx="1758.5" cy="762.5" r="3.5" fill="#4B4AEF" fill-opacity="0.2"/>
<circle cx="1772.5" cy="762.5" r="3.5" fill="#4B4AEF" fill-opacity="0.2"/>
<circle cx="1715.5" cy="749.5" r="3.5" fill="#4B4AEF" fill-opacity="0.2"/>
<circle cx="1730.5" cy="749.5" r="3.5" fill="#4B4AEF" fill-opacity="0.2"/>
<circle cx="1744.5" cy="748.5" r="3.5" fill="#4B4AEF" fill-opacity="0.2"/>
<circle cx="1758.5" cy="748.5" r="3.5" fill="#4B4AEF" fill-opacity="0.2"/>
<circle cx="1772.5" cy="748.5" r="3.5" fill="#4B4AEF" fill-opacity="0.2"/>
<path opacity="0.4" d="M1323.79 838.622C1315.97 838.622 1308.43 836.793 1302.61 833.411L1146.94 743.599C1139.29 739.164 1134.91 732.401 1134.91 724.972C1134.91 717.543 1139.29 710.779 1146.94 706.344L1482.06 512.971C1487.88 509.59 1495.42 507.76 1503.24 507.76C1511.06 507.76 1518.6 509.59 1524.43 512.971L1680.09 602.783C1687.74 607.163 1692.12 613.982 1692.12 621.411C1692.12 628.84 1687.74 635.603 1680.09 640.038L1344.97 833.467C1339.15 836.793 1331.61 838.622 1323.79 838.622Z" fill="#6E84FE"/>
<path opacity="0.4" d="M1573.06 568.91L1643.88 609.768C1656.47 617.031 1676.93 617.031 1689.52 609.768C1702.11 602.506 1702.11 590.697 1689.52 583.435L1618.7 542.576C1606.11 535.313 1585.65 535.313 1573.06 542.576C1560.47 549.838 1560.47 561.647 1573.06 568.91Z" fill="#6E84FE"/>
<path d="M1626.35 539.804C1628.35 542.41 1628.35 548.452 1627.85 555.272C1626.02 562.201 1619.48 561.647 1613.88 562.534C1603.12 564.197 1597.74 572.347 1583.38 572.291C1574.84 572.291 1569.18 570.462 1567.35 565.029C1567.07 562.534 1568.51 560.039 1571.56 557.434C1571.56 557.434 1591.08 548.674 1591.58 548.342C1592.08 548.009 1600.84 541.633 1601.01 540.913C1601.18 540.247 1604.39 525.279 1604.39 525.279H1625.47L1626.35 539.804Z" fill="black"/>
<path d="M1599.29 542.687C1610.16 549.229 1626.08 554.939 1627.74 546.9C1628.29 544.461 1628.79 542.077 1629.29 539.693C1633.95 516.741 1636.11 494.787 1631.9 475.494L1642.6 439.071L1645.54 428.981C1645.76 405.53 1639.05 395.273 1621.25 398.821C1620.53 398.932 1617.31 395.273 1616.59 395.44C1615.54 395.717 1614.15 393.666 1613.1 393.943L1610.27 415.509L1601.29 470.726C1598.63 492.071 1602.95 524.115 1599.29 542.687Z" fill="#36118A"/>
<path d="M1690.18 572.458C1692.12 578.667 1692.51 580.496 1691.68 585.098C1690.74 587.537 1689.85 588.646 1688.8 592.028C1687.63 596.186 1687.8 603.116 1681.59 607.274C1674.21 613.095 1659.96 613.372 1655.47 607.163C1655.47 604.114 1657.46 597.461 1661.24 592.028L1668.5 578.556L1668.06 565.916L1688.85 561.37L1690.18 572.458Z" fill="black"/>
<path d="M1612.27 388.233C1612.32 390.173 1612.6 392.058 1613.04 393.943C1617.48 412.016 1639 426.763 1641.33 430.367C1641.66 430.865 1643.16 440.124 1643.43 440.623C1643.88 443.395 1644.38 446.222 1644.88 449.05C1648.2 467.456 1652.53 487.192 1657.52 507.926C1663.4 532.652 1665.95 556.048 1666.5 578.667C1675.65 582.88 1686.8 580.995 1690.96 574.731C1691.46 574.01 1691.85 573.234 1692.12 572.402C1692.07 562.312 1692.01 552.112 1691.74 542.521C1691.24 522.618 1689.85 505.432 1685.41 497.836L1686.41 429.369C1690.18 410.907 1690.18 394.386 1684.64 380.915H1639.16C1639.16 380.804 1612.27 388.233 1612.27 388.233Z" fill="#36118A"/>
<path opacity="0.5" d="M1621.81 397.602C1621.86 399.542 1628.46 411.683 1628.46 411.683C1634.45 413.901 1640.44 416.617 1649.7 417.116C1663.07 417.837 1673.6 428.759 1674.1 442.119L1676.1 497.559C1686.58 513.359 1688.96 543.629 1690.9 574.675C1691.46 573.899 1691.85 573.123 1692.12 572.291C1692.07 562.201 1692.01 552 1691.74 542.409C1691.24 522.507 1689.85 505.32 1685.41 497.725L1686.41 429.258C1690.18 410.796 1690.18 394.275 1684.64 380.803H1639.16C1639.16 380.803 1621.81 397.602 1621.81 397.602Z" fill="#36118A"/>
<path d="M1588.2 386.957C1588.81 386.015 1589.53 384.906 1590.36 383.742C1595.91 375.426 1605.06 362.01 1609.77 352.141L1613.04 339.39L1615.15 331.185L1612.77 315.718L1605.95 298.199L1601.73 275.912C1595.3 288.275 1592.03 312.613 1591.14 334.9L1574.84 377.699C1570.9 386.015 1585.37 392.668 1588.2 386.957Z" fill="#FF9900"/>
<path opacity="0.3" d="M1590.36 383.686C1595.91 375.37 1605.06 361.954 1609.77 352.086L1613.04 339.335L1599.29 304.962L1599.51 351.365L1590.36 383.686Z" fill="#14708F"/>
<path d="M1599.29 301.082C1599.29 301.082 1600.62 328.469 1606.39 357.574C1606.83 359.737 1612.6 386.68 1612.32 388.232C1613.16 389.286 1613.99 390.339 1614.93 391.337C1617.09 393.721 1619.42 395.828 1621.81 397.602C1645.54 415.342 1679.81 405.64 1686.19 382.91C1686.3 382.411 1686.47 381.857 1686.58 381.303C1687.19 367.942 1684.25 337.505 1682.86 323.424C1682.75 322.648 1682.7 321.816 1682.64 321.151C1681.86 313.167 1680.59 306.404 1678.48 301.913C1666.39 283.175 1646.21 276.744 1634.62 272.142L1605.95 268.095C1599.18 275.635 1600.29 287.554 1599.29 301.082Z" fill="#FF9900"/>
<path d="M1619.81 297.977C1621.09 299.141 1621.53 299.585 1622.92 299.696C1637.94 300.971 1645.21 281.789 1639.77 272.364C1635.34 264.381 1634.28 261.11 1634.28 261.11L1612.93 276.189C1612.93 276.189 1612.43 278.462 1613.49 281.622C1615.37 287.056 1615.98 294.54 1619.81 297.977Z" fill="#FDD3BD"/>
<path opacity="0.5" d="M1621.47 299.252C1628.41 300.805 1638.05 294.429 1633.4 271.976L1614.71 281.678C1616.54 287.111 1615.71 296.092 1621.47 299.252Z" fill="#F2A9A2"/>
<path d="M1634.06 265.933C1634.06 265.933 1635.5 277.132 1632.68 283.341C1629.85 289.55 1623.41 294.595 1620.7 295.87C1617.98 297.09 1615.71 297.7 1613.04 296.314C1610.44 294.928 1601.68 275.912 1601.68 275.912C1598.79 268.372 1598.02 266.044 1597.3 261.553C1596.19 254.901 1595.3 239.488 1614.21 234.887C1623.36 232.669 1631.18 236.883 1635.28 244.09C1638.55 249.8 1637.94 262.496 1637.94 262.496L1634.06 265.933Z" fill="#FDD3BD"/>
<path d="M1638.66 263.605L1631.9 271.477L1629.24 266.654C1628.29 264.214 1625.52 263.05 1623.14 264.214C1619.14 266.099 1612.82 268.372 1605.61 267.763C1598.79 267.208 1596.3 263.771 1596.3 263.771C1589.09 253.792 1600.35 239.544 1611.49 235.608C1625.02 230.84 1633.95 237.659 1637.06 245.587C1639.88 252.739 1638.66 263.605 1638.66 263.605Z" fill="black"/>
<path d="M1634.06 257.451C1635 256.398 1636.67 255.843 1637.89 256.564C1638.55 257.007 1639 257.728 1639.16 258.504C1639.33 259.28 1639.27 260.112 1639.22 260.888C1639.11 262.274 1638.94 263.66 1638.66 264.991C1638.44 266.099 1638.11 267.264 1637.22 267.929C1636.28 268.594 1635.28 269.814 1634.39 269.093C1633.51 268.372 1632.56 265.933 1632.34 264.769C1631.9 262.385 1632.34 259.336 1634.06 257.451Z" fill="#FDD3BD"/>
<path opacity="0.3" d="M1621.81 397.602C1645.54 415.342 1679.81 405.64 1686.19 382.91C1686.3 382.411 1686.47 381.857 1686.58 381.302C1687.19 367.942 1684.25 337.505 1682.86 323.424L1663.23 320.097C1657.91 319.21 1652.86 322.648 1651.81 327.859C1649.15 340.887 1649.15 368.274 1649.15 368.274C1641.83 380.305 1630.79 394.774 1621.81 397.602Z" fill="#14708F"/>
<path d="M1681.98 364.948C1680.31 374.539 1680.59 378.309 1674.71 386.181C1664.78 400.54 1658.74 409.244 1644.54 419.999C1636.56 424.49 1624.58 413.845 1628.29 409.854C1632.18 400.54 1640.77 387.955 1655.91 369.383L1652.64 326.639C1654.8 309.12 1654.64 289.938 1671.55 294.373C1688.13 303.521 1685.08 346.985 1681.98 364.948Z" fill="#FF9900"/>
<path d="M1628.35 409.854C1632.23 403.423 1642.1 413.956 1640.72 418.059L1637.61 427.983L1637.22 429.202C1630.73 426.209 1624.36 423.714 1618.42 420.166L1619.03 418.558L1628.35 409.854Z" fill="#FDD3BD"/>
<path d="M1571.56 383.298L1574.61 380.804C1579.33 379.806 1582.6 383.187 1584.54 386.902L1585.65 391.337L1584.65 396.382C1578.33 394.442 1572.73 391.171 1567.52 387.456L1571.56 383.298Z" fill="#FDD3BD"/>
<path d="M1175 707.009L1489.1 525.722C1497.75 520.733 1511.73 520.733 1520.32 525.722L1668.5 611.265L1682.42 608.549V624.571C1682.42 627.842 1680.26 631.113 1675.93 633.608L1340.81 827.036C1332.16 832.025 1318.19 832.025 1309.59 827.036L1153.93 737.224C1149.72 734.785 1147.55 731.624 1147.5 728.409V712.387L1175 707.009Z" fill="black"/>
<path d="M1676.04 600.122L1520.38 510.31C1511.73 505.321 1497.75 505.321 1489.16 510.31L1154.04 703.738C1145.39 708.728 1145.39 716.767 1154.04 721.756L1309.7 811.568C1318.36 816.558 1332.33 816.558 1340.93 811.568L1676.04 618.14C1684.64 613.206 1684.64 605.112 1676.04 600.122Z" fill="#CCCCCC"/>
<path d="M1325.29 812.455C1330.67 812.455 1335.71 811.291 1339.48 809.129L1674.6 615.7C1677.82 613.871 1679.65 611.487 1679.65 609.159C1679.65 606.886 1677.82 604.502 1674.6 602.617L1518.94 512.805C1515.22 510.643 1510.18 509.479 1504.74 509.479C1499.31 509.479 1494.31 510.643 1490.54 512.805L1155.48 706.233C1152.27 708.063 1150.44 710.446 1150.44 712.775C1150.44 715.048 1152.27 717.432 1155.48 719.317L1311.15 809.129C1314.86 811.235 1319.91 812.455 1325.29 812.455Z" fill="#475066"/>
<path d="M1671.77 611.543L1329.56 809.073L1177 721.036L1519.21 523.505L1671.77 611.543Z" fill="#464854"/>
<path d="M1489.55 517.739L1502.58 525.223L1451.28 554.828L1438.25 547.288L1489.55 517.739Z" fill="#C8C9E0"/>
<path d="M1451.28 562.091L1438.25 554.551V547.288L1451.28 554.828V562.091Z" fill="#303845"/>
<path d="M1451.28 562.091V554.828L1502.58 525.223V532.486L1451.28 562.091Z" fill="#A5A7C7"/>
<path d="M1206.67 674.023L1219.7 681.562L1168.4 711.167L1155.37 703.627L1206.67 674.023Z" fill="#C8C9E0"/>
<path d="M1168.4 718.374L1155.37 710.89V703.627L1168.4 711.167V718.374Z" fill="#303845"/>
<path d="M1168.4 718.374V711.167L1219.7 681.562V688.825L1168.4 718.374Z" fill="#A5A7C7"/>
<path d="M1496.81 586.151L1522.82 601.175L1549.66 585.652L1523.65 570.684L1496.81 586.151Z" fill="#475066"/>
<path d="M1496.81 588.701L1522.82 603.67V601.175L1496.81 586.151V588.701Z" fill="#303845"/>
<path d="M1522.82 601.175V603.67L1549.66 588.203V585.652L1522.82 601.175Z" fill="#2E2520"/>
<path d="M1415.01 753.357L1421.28 756.96L1424.39 755.131L1418.17 751.527L1415.01 753.357Z" fill="#E3D1BC"/>
<path d="M1421.28 756.96V761.118L1424.39 759.289V755.131L1421.28 756.96Z" fill="#A5A7C7"/>
<path d="M1424.44 747.923L1430.65 751.472L1433.81 749.698L1427.55 746.094L1424.44 747.923Z" fill="#E3D1BC"/>
<path d="M1430.65 751.472V755.685L1433.81 753.856V749.698L1430.65 751.472Z" fill="#A5A7C7"/>
<path d="M1433.87 742.49L1440.08 746.038L1443.19 744.264L1436.97 740.661L1433.87 742.49Z" fill="#E3D1BC"/>
<path d="M1440.08 746.038V750.196L1443.19 748.422V744.264L1440.08 746.038Z" fill="#A5A7C7"/>
<path d="M1443.24 737.057L1449.51 740.606L1452.61 738.831L1446.4 735.228L1443.24 737.057Z" fill="#E3D1BC"/>
<path d="M1449.51 740.605V744.763L1452.61 742.989V738.831L1449.51 740.605Z" fill="#A5A7C7"/>
<path d="M1452.67 731.569L1458.88 735.172L1461.98 733.398L1455.77 729.795L1452.67 731.569Z" fill="#E3D1BC"/>
<path d="M1458.88 735.172V739.33L1461.98 737.556V733.398L1458.88 735.172Z" fill="#A5A7C7"/>
<path d="M1462.1 726.136L1468.31 729.739L1471.41 727.965L1465.2 724.362L1462.1 726.136Z" fill="#E3D1BC"/>
<path d="M1468.31 729.739V733.897L1471.41 732.123V727.965L1468.31 729.739Z" fill="#A5A7C7"/>
<path d="M1471.47 720.703L1477.68 724.306L1480.84 722.477L1474.63 718.929L1471.47 720.703Z" fill="#E3D1BC"/>
<path d="M1477.68 724.306V728.464L1480.84 726.69V722.477L1477.68 724.306Z" fill="#A5A7C7"/>
<path d="M1480.89 715.27L1487.11 718.873L1490.21 717.044L1484 713.496L1480.89 715.27Z" fill="#E3D1BC"/>
<path d="M1487.11 718.873V723.031L1490.21 721.257V717.044L1487.11 718.873Z" fill="#A5A7C7"/>
<path d="M1490.27 709.837L1496.53 713.44L1499.64 711.611L1493.43 708.062L1490.27 709.837Z" fill="#E3D1BC"/>
<path d="M1496.53 713.44V717.598L1499.64 715.769V711.611L1496.53 713.44Z" fill="#A5A7C7"/>
<path d="M1499.69 704.403L1505.91 708.007L1509.07 706.178L1502.8 702.574L1499.69 704.403Z" fill="#E3D1BC"/>
<path d="M1505.91 708.007V712.165L1509.07 710.335V706.177L1505.91 708.007Z" fill="#A5A7C7"/>
<path d="M1509.12 698.97L1515.33 702.574L1518.44 700.744L1512.23 697.141L1509.12 698.97Z" fill="#E3D1BC"/>
<path d="M1515.33 702.574V706.732L1518.44 704.902V700.744L1515.33 702.574Z" fill="#A5A7C7"/>
<path d="M1518.49 693.537L1524.76 697.141L1527.87 695.311L1521.65 691.708L1518.49 693.537Z" fill="#E3D1BC"/>
<path d="M1524.76 697.141V701.299L1527.87 699.469V695.311L1524.76 697.141Z" fill="#A5A7C7"/>
<path d="M1527.92 688.104L1534.13 691.652L1537.24 689.878L1531.03 686.275L1527.92 688.104Z" fill="#E3D1BC"/>
<path d="M1534.13 691.652V695.866L1537.24 694.036V689.878L1534.13 691.652Z" fill="#A5A7C7"/>
<path d="M1537.35 682.671L1543.56 686.219L1546.66 684.445L1540.45 680.842L1537.35 682.671Z" fill="#E3D1BC"/>
<path d="M1543.56 686.219V690.377L1546.66 688.603V684.445L1543.56 686.219Z" fill="#A5A7C7"/>
<path d="M1546.72 677.238L1552.93 680.786L1556.09 679.012L1549.88 675.409L1546.72 677.238Z" fill="#E3D1BC"/>
<path d="M1552.93 680.786V684.944L1556.09 683.17V679.012L1552.93 680.786Z" fill="#A5A7C7"/>
<path d="M1556.15 671.75L1562.36 675.353L1565.46 673.579L1559.25 669.976L1556.15 671.75Z" fill="#E3D1BC"/>
<path d="M1562.36 675.353V679.511L1565.46 677.737V673.579L1562.36 675.353Z" fill="#A5A7C7"/>
<path d="M1565.52 666.317L1571.79 669.92L1574.89 668.146L1568.68 664.542L1565.52 666.317Z" fill="#E3D1BC"/>
<path d="M1571.79 669.92V674.078L1574.89 672.304V668.146L1571.79 669.92Z" fill="#A5A7C7"/>
<path d="M1574.95 660.883L1581.16 664.487L1584.32 662.657L1578.05 659.109L1574.95 660.883Z" fill="#E3D1BC"/>
<path d="M1581.16 664.487V668.645L1584.32 666.871V662.657L1581.16 664.487Z" fill="#A5A7C7"/>
<path d="M1584.37 655.45L1590.59 659.054L1593.69 657.224L1587.48 653.676L1584.37 655.45Z" fill="#E3D1BC"/>
<path d="M1590.59 659.054V663.212L1593.69 661.438V657.224L1590.59 659.054Z" fill="#A5A7C7"/>
<path d="M1593.75 650.017L1600.01 653.621L1603.12 651.792L1596.91 648.243L1593.75 650.017Z" fill="#E3D1BC"/>
<path d="M1600.01 653.621V657.779L1603.12 655.949V651.792L1600.01 653.621Z" fill="#A5A7C7"/>
<path d="M1603.17 644.584L1609.38 648.188L1612.49 646.358L1606.28 642.755L1603.17 644.584Z" fill="#E3D1BC"/>
<path d="M1609.38 648.188V652.346L1612.49 650.516V646.358L1609.38 648.188Z" fill="#A5A7C7"/>
<path d="M1612.6 639.151L1618.81 642.755L1621.92 640.925L1615.71 637.322L1612.6 639.151Z" fill="#E3D1BC"/>
<path d="M1618.81 642.755V646.913L1621.92 645.083V640.925L1618.81 642.755Z" fill="#A5A7C7"/>
<path d="M1621.97 633.718L1628.18 637.322L1631.34 635.492L1625.13 631.889L1621.97 633.718Z" fill="#E3D1BC"/>
<path d="M1628.18 637.322V641.48L1631.34 639.65V635.492L1628.18 637.322Z" fill="#A5A7C7"/>
<path d="M1279.87 763.613L1300.89 775.809L1285.91 784.458L1264.84 772.317L1279.87 763.613Z" fill="#C8C9E0"/>
<path d="M1285.91 790.501L1264.84 778.36V772.317L1285.91 784.458V790.501Z" fill="#464854"/>
<path d="M1285.91 790.501V784.458L1300.89 775.81V781.852L1285.91 790.501Z" fill="#A5A7C7"/>
<path d="M1613.82 569.907L1634.89 582.049L1619.87 590.697L1598.85 578.556L1613.82 569.907Z" fill="#C8C9E0"/>
<path d="M1619.87 596.795L1598.85 584.654V578.556L1619.87 590.697V596.795Z" fill="#303845"/>
<path d="M1619.87 596.795V590.697L1634.89 582.049V588.147L1619.87 596.795Z" fill="#A5A7C7"/>
<path d="M1582.1 551.391L1603.12 563.532L1588.15 572.236L1567.07 560.039L1582.1 551.391Z" fill="#C8C9E0"/>
<path d="M1588.15 578.279L1567.07 566.137V560.039L1588.15 572.236V578.279Z" fill="#303845"/>
<path d="M1588.15 578.279V572.236L1603.12 563.532V569.63L1588.15 578.279Z" fill="#A5A7C7"/>
<path d="M1243.05 742.768L1264.12 754.909L1249.09 763.557L1228.07 751.416L1243.05 742.768Z" fill="#C8C9E0"/>
<path d="M1249.09 769.6L1228.07 757.459V751.416L1249.09 763.557V769.6Z" fill="#464854"/>
<path d="M1249.09 769.6V763.557L1264.12 754.909V760.952L1249.09 769.6Z" fill="#A5A7C7"/>
<path d="M1192.03 713.163L1213.05 725.304L1198.07 734.008L1177 721.867L1192.03 713.163Z" fill="#C8C9E0"/>
<path d="M1198.07 740.051L1177 727.91V721.867L1198.07 734.008V740.051Z" fill="#464854"/>
<path d="M1198.07 740.051V734.008L1213.05 725.304V731.403L1198.07 740.051Z" fill="#A5A7C7"/>
<path d="M1512.73 583.49C1513.23 582.991 1513.84 582.548 1514.56 582.104C1519.33 579.332 1527.09 579.332 1531.91 582.104C1532.63 582.548 1533.24 582.991 1533.74 583.49H1535.52V587.149C1535.52 588.979 1534.3 590.753 1531.91 592.139C1527.14 594.911 1519.38 594.911 1514.56 592.139C1512.17 590.753 1510.95 588.923 1510.95 587.149V583.49H1512.73Z" fill="#464854"/>
<path d="M1523.21 590.586C1529.98 590.586 1535.46 587.409 1535.46 583.49C1535.46 579.571 1529.98 576.394 1523.21 576.394C1516.44 576.394 1510.95 579.571 1510.95 583.49C1510.95 587.409 1516.44 590.586 1523.21 590.586Z" fill="#A5A7C7"/>
<path d="M1518.72 580.94C1516.22 582.381 1516.22 584.71 1518.72 586.096C1521.21 587.482 1525.2 587.537 1527.7 586.096C1530.19 584.654 1530.19 582.326 1527.7 580.94C1525.26 579.498 1521.21 579.498 1518.72 580.94Z" fill="#1A1A1A"/>
<path d="M1303.33 763.946L1338.98 784.569L1375.81 763.28L1340.15 742.712L1303.33 763.946Z" fill="#A5A7C7"/>
<path d="M1262.51 740.384L1298.17 760.952L1334.99 739.718L1299.33 719.15L1262.51 740.384Z" fill="#A5A7C7"/>
<path d="M1556.31 582.714L1584.65 598.902L1597.02 606.054L1628.07 623.961C1631.73 626.068 1631.73 631.334 1628.07 633.497L1412.19 758.069C1408.08 760.453 1403.04 760.453 1398.99 758.069L1353.96 732.068V726.08L1544.56 622.242L1516.22 606.054V600.067L1556.31 582.714Z" fill="#A5A7C7"/>
<path d="M1556.36 577L1584.69 593.188L1597.06 600.34L1628.12 618.247C1631.78 620.354 1631.78 625.62 1628.12 627.783L1412.23 752.355C1408.12 754.739 1403.08 754.739 1399.03 752.355L1354 726.354L1544.6 616.528L1516.26 600.34L1556.36 577Z" fill="white"/>
<path d="M1416.34 695.699L1440.63 709.726L1465.7 695.256L1441.41 681.23L1416.34 695.699Z" fill="#4D4D4D"/>
<path d="M1530.8 597.295L1555.09 611.321L1580.16 596.796L1555.87 582.825L1530.8 597.295Z" fill="#4D4D4D"/>
<path d="M1587.65 602.395L1611.94 616.421L1596.08 625.569L1571.79 611.543L1587.65 602.395Z" fill="#4D4D4D"/>
<path d="M1491.15 689.213L1466.92 675.187C1466.59 675.021 1466.37 674.632 1466.37 674.244C1466.37 673.856 1466.59 673.524 1466.92 673.302L1550.77 623.794C1551.1 623.573 1551.54 623.573 1551.88 623.794L1576.17 637.821C1576.5 638.042 1576.72 638.375 1576.72 638.763C1576.72 639.151 1576.5 639.484 1576.17 639.706L1492.26 689.268C1492.1 689.379 1491.93 689.435 1491.71 689.435C1491.49 689.379 1491.32 689.324 1491.15 689.213ZM1551.27 625.957L1469.58 674.244L1491.65 687.051L1573.39 638.708L1551.27 625.957Z" fill="#4D4D4D"/>
<path d="M1506.4 554.274L1545.94 544.239V548.73L1485.94 583.324L1451.06 563.255V558.764L1486.5 542.798L1506.4 554.274Z" fill="#303845"/>
<path d="M1506.4 549.839L1530.97 535.646L1545.94 544.239L1485.94 578.889L1451.06 558.764L1486.5 538.363L1506.4 549.839Z" fill="#C8C9E0"/>
<path d="M1531.91 543.795C1533.26 543.795 1534.35 543.15 1534.35 542.354C1534.35 541.558 1533.26 540.913 1531.91 540.913C1530.57 540.913 1529.47 541.558 1529.47 542.354C1529.47 543.15 1530.57 543.795 1531.91 543.795Z" fill="#1A1A1A"/>
<path d="M1486.94 574.731C1488.29 574.731 1489.38 574.085 1489.38 573.289C1489.38 572.493 1488.29 571.848 1486.94 571.848C1485.59 571.848 1484.5 572.493 1484.5 573.289C1484.5 574.085 1485.59 574.731 1486.94 574.731Z" fill="#1A1A1A"/>
<path d="M1458.49 560.095C1459.84 560.095 1460.93 559.449 1460.93 558.653C1460.93 557.857 1459.84 557.212 1458.49 557.212C1457.14 557.212 1456.05 557.857 1456.05 558.653C1456.05 559.449 1457.14 560.095 1458.49 560.095Z" fill="#1A1A1A"/>
<path d="M1559.14 537.753L1570.07 544.073L1555.09 552.721L1544.17 546.457L1559.14 537.753Z" fill="#C8C9E0"/>
<path d="M1555.09 558.82L1544.17 552.5V546.457L1555.09 552.721V558.82Z" fill="#303845"/>
<path d="M1555.09 558.82V552.721L1570.07 544.073V550.116L1555.09 558.82Z" fill="#A5A7C7"/>
<path d="M1531.25 619.027L1353.07 721.867L1314.31 744.209L1217.59 688.437V676.85L1434.53 563.199L1531.25 607.44V619.027Z" fill="#1A1A1A"/>
<path d="M1531.25 607.44L1314.31 732.678L1217.59 676.85L1434.53 551.613L1531.25 607.44Z" fill="#4D4D4D"/>
<path d="M1435.7 570.462L1500.75 607.994L1505.13 605.5L1440.08 567.912L1435.7 570.462Z" fill="white"/>
<path d="M1493.37 610.877L1488.99 613.372L1443.96 587.371L1448.45 584.932L1493.37 610.877Z" fill="white"/>
<path d="M1433.09 599.013L1473.35 622.242L1476.01 620.69L1435.75 597.461L1433.09 599.013Z" fill="white"/>
<path d="M1262.51 668.59L1321.68 702.74L1325.62 700.412L1266.5 666.317L1262.51 668.59Z" fill="white"/>
<path d="M1264.84 678.514L1306.77 702.741L1309.59 701.077L1267.67 676.906L1264.84 678.514Z" fill="white"/>
<path d="M1264.12 685.665L1294.51 703.239L1296.56 702.075L1266.17 684.501L1264.12 685.665Z" fill="white"/>
<path d="M1425.16 603.393L1465.42 626.622L1468.14 625.07L1427.88 601.785L1425.16 603.393Z" fill="white"/>
<path d="M1434.81 617.973L1457.66 631.168L1460.38 629.616L1437.47 616.366L1434.81 617.973Z" fill="white"/>
<path d="M1332.83 789.891L1317.47 798.761L1328.45 805.082L1343.81 796.211L1332.83 789.891Z" fill="#C8C9E0"/>
<path d="M1652.92 605.777L1637.56 614.647L1648.48 620.967L1663.84 612.097L1652.92 605.777Z" fill="#C8C9E0"/>
<path d="M1635.23 594.8L1619.87 603.67L1630.85 609.99L1646.21 601.12L1635.23 594.8Z" fill="#C8C9E0"/>
<path d="M1548.16 561.592L1532.8 570.462L1543.73 576.782L1559.09 567.912L1548.16 561.592Z" fill="#C8C9E0"/>
<path d="M1518.88 525.223L1507.79 531.654L1515.72 536.2L1526.81 529.825L1518.88 525.223Z" fill="#C8C9E0"/>
<path d="M1316.25 780.134L1300.89 789.004L1311.87 795.324L1327.23 786.454L1316.25 780.134Z" fill="#C8C9E0"/>
<path d="M1232.95 732.456L1217.59 741.326L1228.52 747.646L1243.93 738.776L1232.95 732.456Z" fill="#C8C9E0"/>
<path d="M1665.28 440.955L1509.62 351.144C1500.97 346.154 1486.99 346.154 1478.4 351.144L1143.28 544.572C1134.63 549.561 1134.63 557.6 1143.28 562.59L1298.95 652.401C1307.6 657.391 1321.57 657.391 1330.17 652.401L1665.28 458.973C1673.93 454.039 1673.93 445.945 1665.28 440.955Z" fill="#FF5E1A"/>
<path d="M1476.85 446.666C1476.85 447.331 1476.96 447.941 1477.18 448.551C1477.79 450.269 1479.23 451.877 1481.56 453.263C1487.88 456.922 1498.09 456.922 1504.46 453.263L1537.07 434.469C1539.4 433.139 1540.84 431.531 1541.45 429.757C1541.73 429.092 1541.78 428.482 1541.78 427.816C1541.78 425.432 1540.18 423.049 1537.02 421.219C1530.69 417.56 1520.43 417.56 1514.11 421.219L1481.5 440.013C1478.4 441.898 1476.85 444.282 1476.85 446.666Z" fill="#4D4D4D"/>
<path d="M1477.18 448.606C1477.79 450.325 1479.23 451.933 1481.56 453.319C1487.88 456.978 1498.09 456.978 1504.46 453.319L1537.07 434.525C1539.4 433.194 1540.84 431.586 1541.45 429.812C1540.84 428.094 1539.4 426.431 1537.07 425.1C1530.75 421.441 1520.49 421.441 1514.17 425.1L1481.56 443.894C1479.23 445.224 1477.79 446.888 1477.18 448.606Z" fill="#333333"/>
<path d="M1511.23 429.258C1511.78 428.703 1512.45 428.204 1513.28 427.761C1518.55 424.712 1527.14 424.712 1532.47 427.761C1533.3 428.204 1533.97 428.759 1534.52 429.258H1536.46V433.249C1536.46 435.245 1535.13 437.241 1532.47 438.793C1527.2 441.842 1518.6 441.842 1513.28 438.793C1510.62 437.241 1509.29 435.245 1509.29 433.249V429.258H1511.23Z" fill="#464854"/>
<path d="M1513.28 423.714C1508.01 426.763 1508.01 431.697 1513.28 434.802C1518.55 437.906 1527.14 437.851 1532.47 434.802C1537.79 431.752 1537.74 426.818 1532.47 423.714C1527.14 420.664 1518.55 420.664 1513.28 423.714Z" fill="#A5A7C7"/>
<path d="M1522.87 434.746C1528.17 434.746 1532.47 432.264 1532.47 429.202C1532.47 426.14 1528.17 423.658 1522.87 423.658C1517.58 423.658 1513.28 426.14 1513.28 429.202C1513.28 432.264 1517.58 434.746 1522.87 434.746Z" fill="#1A1A1A"/>
<path d="M1491.49 442.785C1491.87 442.397 1492.37 442.064 1492.93 441.731C1496.64 439.569 1502.74 439.569 1506.46 441.731C1507.01 442.064 1507.51 442.397 1507.9 442.785H1509.29V445.612C1509.29 447.054 1508.34 448.44 1506.46 449.548C1502.74 451.711 1496.64 451.711 1492.93 449.548C1491.04 448.495 1490.1 447.054 1490.1 445.612V442.785H1491.49Z" fill="#464854"/>
<path d="M1499.75 448.329C1505.05 448.329 1509.34 445.847 1509.34 442.785C1509.34 439.723 1505.05 437.241 1499.75 437.241C1494.45 437.241 1490.16 439.723 1490.16 442.785C1490.16 445.847 1494.45 448.329 1499.75 448.329Z" fill="#A5A7C7"/>
<path d="M1499.75 446.721C1503.49 446.721 1506.51 444.959 1506.51 442.785C1506.51 440.611 1503.49 438.849 1499.75 438.849C1496.01 438.849 1492.98 440.611 1492.98 442.785C1492.98 444.959 1496.01 446.721 1499.75 446.721Z" fill="#1A1A1A"/>
<path d="M1146.17 562.257L1142.17 529.936L1120.66 522.119L1117.61 549.062L1146.17 562.257Z" fill="#FDD3BD"/>
<path d="M1117.44 774.479C1117.44 774.479 1124.98 777.694 1126.26 780.633C1127.53 783.516 1125.15 788.672 1125.15 788.672C1125.15 788.672 1122.15 794.881 1119.77 797.043C1117.44 799.205 1112.51 800.813 1112.51 800.813C1112.51 800.813 1109.12 809.96 1104.46 811.18C1099.81 812.4 1095.37 810.681 1093.15 806.468C1090.88 802.254 1096.31 790.39 1096.31 790.39L1117.44 774.479Z" fill="black"/>
<path d="M1208.78 806.911V823.488C1208.78 823.488 1206.78 832.136 1210.05 835.573C1213.32 839.011 1217.32 838.013 1221.86 836.516C1226.41 835.019 1235.89 823.876 1235.89 823.876C1235.89 823.876 1242.94 821.048 1245.82 817.5C1248.7 813.897 1250.81 808.63 1250.53 804.971C1250.26 801.312 1248.43 798.429 1246.04 796.71C1240.94 793.051 1237.28 795.158 1225.47 802.587L1219.09 797.376L1208.78 806.911Z" fill="black"/>
<path d="M1096.31 790.39C1099.25 796.821 1107.46 798.651 1113.61 795.213C1116.33 793.716 1118.61 791.166 1119.94 787.563C1122.99 769.822 1133.97 742.435 1143.34 712.221C1147.94 701.133 1147.83 697.917 1150.88 688.659C1157.98 693.815 1166.35 695.977 1174.84 700.19L1195.47 727.078C1189.2 748.201 1193.91 783.128 1202.79 821.991C1214.38 825.65 1224.14 825.151 1227.58 810.182C1225.41 797.764 1224.64 785.844 1224.36 774.479C1223.75 753.024 1224.86 733.676 1221.92 717.155C1217.76 691.542 1210.27 668.202 1196.52 649.241C1194.75 646.802 1192.86 644.363 1190.81 642.09L1177.94 623.185H1130.81L1120.27 645.86C1116.33 656.504 1113.78 669.477 1117.72 679.123L1120.16 699.691C1106.02 720.98 1099.58 753.135 1096.31 790.39Z" fill="#30485C"/>
<path d="M1119.33 626.678C1121.32 633.94 1117.5 654.896 1117.5 654.896C1134.02 668.59 1165.02 676.185 1183.43 665.984C1189.59 662.547 1194.36 657.169 1196.63 649.297C1195.13 628.23 1189.98 605.943 1182.77 589.644C1179.11 581.328 1173.01 574.953 1168.46 570.684L1137.96 552.333C1131.25 548.619 1124.1 545.791 1116.61 544.017L1105.46 541.356C1090.32 541.356 1088.44 565.251 1096.98 585.431C1096.98 585.431 1117.33 619.47 1119.33 626.678Z" fill="#03C12D"/>
<path d="M1141.12 543.962L1146.33 541.19C1149.99 539.25 1152.6 535.757 1153.43 531.71C1154.93 524.447 1156.26 512.639 1151.77 504.544C1144.78 492.015 1136.52 489.798 1124.15 495.452C1111.67 501.107 1107.68 511.142 1112.73 524.946C1117.83 538.751 1121.21 536.533 1121.21 536.533L1141.12 543.962Z" fill="#FDD3BD"/>
<path d="M1153.43 508.647L1147.66 518.238L1146.17 525.889L1144.28 529.215L1143.67 533.872C1143.17 537.586 1140.12 540.358 1136.41 540.525C1131.92 540.746 1125.54 540.026 1119.05 536.034C1119.05 536.034 1113.67 533.151 1110.56 520.4C1107.46 507.649 1114.22 499.61 1117.55 497.393C1120.88 495.175 1138.51 484.808 1149.05 492.459C1160.75 501.052 1153.43 508.647 1153.43 508.647Z" fill="black"/>
<path d="M1144.12 520.677C1143.45 520.788 1142.84 521.232 1142.51 521.786C1142.12 522.341 1141.95 523.061 1141.79 523.726C1141.29 526.277 1141.4 528.993 1142.12 531.543C1142.29 532.209 1142.56 532.874 1143.01 533.373C1143.45 533.872 1144.12 534.26 1144.78 534.205C1145.45 534.149 1146 533.706 1146.33 533.096C1146.67 532.541 1146.83 531.876 1146.94 531.211C1147.44 529.049 1148.83 520.068 1144.12 520.677Z" fill="#FDD3BD"/>
<path d="M1183.43 665.984C1201.12 676.961 1211.72 698.194 1216.98 727.078C1216.98 727.078 1218.7 764.223 1224.47 774.479C1223.86 753.079 1224.97 733.676 1222.03 717.155C1217.87 691.542 1210.38 668.202 1196.63 649.241C1194.3 657.169 1189.59 662.547 1183.43 665.984Z" fill="#30485C"/>
<path opacity="0.2" d="M1162.03 592.97C1175.89 608.161 1183.27 632.111 1183.43 665.984C1189.59 662.547 1194.36 657.169 1196.63 649.297C1195.13 628.23 1189.98 605.943 1182.77 589.644L1162.03 592.97Z" fill="#1E094C"/>
<path d="M1113.67 795.213C1116.39 793.717 1118.66 791.166 1119.99 787.563C1123.04 769.822 1134.02 742.435 1143.39 712.221C1148 701.133 1147.89 697.917 1150.94 688.659L1138.35 683.392C1139.96 694.813 1139.18 702.242 1135.8 712.442C1124.37 739.719 1117.22 767.327 1113.67 795.213Z" fill="#30485C"/>
<path d="M1640.11 419.833L1638.33 425.488L1636.17 429.258L1632.51 432.584C1629.57 435.356 1627.57 432.307 1629.57 430.145L1632.73 426.818L1632.95 423.492L1630.18 419.944L1632.68 414.954L1640.11 419.833Z" fill="#FDD3BD"/>
<path d="M1574.56 380.803C1574.45 380.914 1566.96 384.241 1566.96 384.241L1563.25 387.512L1562.41 393.887C1562.41 395.439 1565.35 396.327 1566.02 393.61L1566.91 390.394L1570.9 389.119L1576.55 389.785L1578.72 387.345L1574.56 380.803Z" fill="#FDD3BD"/>
<path d="M1247.48 634.273L1257.08 639.484L1267.23 641.757L1273.88 637.932L1270.72 635.271L1270.94 631.168L1277.71 627.897C1279.48 627.232 1279.2 625.292 1276.43 625.292L1269.78 626.068L1260.13 626.622L1247.59 627.842V634.273H1247.48Z" fill="#FDD3BD"/>
<path d="M1169.79 576.283L1214.82 616.31L1260.18 625.624C1263.62 631.334 1260.18 636.934 1255.47 642.145C1236.06 645.693 1214.6 642.367 1201.84 635.714C1182.6 628.562 1168.85 618.084 1150.1 602.894C1136.57 593.691 1154.87 567.246 1169.79 576.283Z" fill="#03C12D"/>
<path d="M1417.24 247.217L1412.3 263.669L1400.52 251.169L1417.24 247.217Z" fill="#FB23FF"/>
<circle cx="1447.5" cy="338.5" r="3.5" fill="#4B4AEF" fill-opacity="0.2"/>
<circle cx="1462.5" cy="338.5" r="3.5" fill="#4B4AEF" fill-opacity="0.2"/>
<circle cx="1476.5" cy="337.5" r="3.5" fill="#4B4AEF" fill-opacity="0.2"/>
<circle cx="1490.5" cy="337.5" r="3.5" fill="#4B4AEF" fill-opacity="0.2"/>
<circle cx="1504.5" cy="337.5" r="3.5" fill="#4B4AEF" fill-opacity="0.2"/>
<circle cx="1447.5" cy="324.5" r="3.5" fill="#4B4AEF" fill-opacity="0.2"/>
<circle cx="1462.5" cy="324.5" r="3.5" fill="#4B4AEF" fill-opacity="0.2"/>
<circle cx="1476.5" cy="323.5" r="3.5" fill="#4B4AEF" fill-opacity="0.2"/>
<circle cx="1490.5" cy="323.5" r="3.5" fill="#4B4AEF" fill-opacity="0.2"/>
<circle cx="1504.5" cy="323.5" r="3.5" fill="#4B4AEF" fill-opacity="0.2"/>
<defs>
<filter id="filter0_f_1_3517" x="-283" y="-285" width="997" height="997" filterUnits="userSpaceOnUse" color-interpolation-filters="sRGB">
<feFlood flood-opacity="0" result="BackgroundImageFix"/>
<feBlend mode="normal" in="SourceGraphic" in2="BackgroundImageFix" result="shape"/>
<feGaussianBlur stdDeviation="100" result="effect1_foregroundBlur_1_3517"/>
</filter>
<filter id="filter1_f_1_3517" x="61" y="-401" width="997" height="997" filterUnits="userSpaceOnUse" color-interpolation-filters="sRGB">
<feFlood flood-opacity="0" result="BackgroundImageFix"/>
<feBlend mode="normal" in="SourceGraphic" in2="BackgroundImageFix" result="shape"/>
<feGaussianBlur stdDeviation="100" result="effect1_foregroundBlur_1_3517"/>
</filter>
<filter id="filter2_f_1_3517" x="573" y="-387" width="997" height="997" filterUnits="userSpaceOnUse" color-interpolation-filters="sRGB">
<feFlood flood-opacity="0" result="BackgroundImageFix"/>
<feBlend mode="normal" in="SourceGraphic" in2="BackgroundImageFix" result="shape"/>
<feGaussianBlur stdDeviation="100" result="effect1_foregroundBlur_1_3517"/>
</filter>
<filter id="filter3_f_1_3517" x="1048" y="348" width="878" height="878" filterUnits="userSpaceOnUse" color-interpolation-filters="sRGB">
<feFlood flood-opacity="0" result="BackgroundImageFix"/>
<feBlend mode="normal" in="SourceGraphic" in2="BackgroundImageFix" result="shape"/>
<feGaussianBlur stdDeviation="150" result="effect1_foregroundBlur_1_3517"/>
</filter>
</defs>
</svg>
