<svg width="120" height="121" viewBox="0 0 120 121" fill="none" xmlns="http://www.w3.org/2000/svg">
<g filter="url(#filter0_d_1_3464)">
<circle cx="60" cy="56.6726" r="40" fill="#2C71FB"/>
</g>
<path fill-rule="evenodd" clip-rule="evenodd" d="M58.5134 36.7181C54.1419 37.1369 50.6516 38.5217 47.4327 41.1144C41.224 46.1153 38.6042 54.2772 40.7251 62.0119C41.334 64.2326 42.3768 66.4174 43.7399 68.3284L44.2743 69.0777L44.079 69.4722C43.4695 70.7037 43.7281 72.2161 44.7172 73.205C46.5207 75.0082 49.561 74.1639 50.194 71.6839C50.8303 69.1918 48.414 66.975 45.9691 67.8077C45.3465 68.0198 45.4729 68.0894 44.8443 67.1884C43.2493 64.9025 42.1929 62.2098 41.7319 59.2552C41.5376 58.01 41.5396 55.2806 41.7359 54.0184C43.0015 45.8752 49.1851 39.7062 57.3799 38.4113C58.5722 38.2229 61.4237 38.2239 62.5785 38.4132C64.1573 38.672 64.0248 38.6756 64.335 38.3655C64.7321 37.9684 64.6773 37.4113 64.2179 37.1737C63.56 36.8336 60.1504 36.5613 58.5134 36.7181ZM66.8086 38.1829C66.3718 38.4249 66.2924 38.9567 66.6357 39.3408C66.8231 39.5506 66.9188 39.5944 67.1909 39.5944C67.4654 39.5944 67.5584 39.5509 67.7549 39.331C67.959 39.1026 67.9845 39.0251 67.9471 38.7467C67.8712 38.1804 67.3124 37.9037 66.8086 38.1829ZM72.1178 39.2883C70.6092 39.7114 69.5947 41.134 69.7116 42.6625C69.8779 44.8352 71.9832 46.2406 74.0284 45.544C74.6593 45.3291 74.5148 45.2346 75.2735 46.3587C76.8386 48.6777 77.8261 51.2323 78.2649 54.0966C78.4571 55.3518 78.4581 58.0164 78.2667 59.2552C77.3229 65.3649 73.653 70.4442 68.2088 73.1755C64.7183 74.9267 60.7581 75.5053 56.8213 74.8393C56.1709 74.7293 56.0847 74.7296 55.866 74.8426C55.5651 74.9982 55.4646 75.1825 55.4646 75.5785C55.4646 75.8263 55.5111 75.9284 55.6936 76.0819C55.8194 76.1879 56.0393 76.2962 56.1822 76.3228C58.6767 76.7864 61.2385 76.7892 63.7121 76.3312C68.3624 75.47 72.6513 72.8866 75.6461 69.1424C81.2182 62.1761 81.4656 52.3246 76.2518 45.0152L75.7117 44.2579L75.8651 43.9979C75.9495 43.8549 76.077 43.5098 76.1485 43.2311C76.5524 41.6557 75.6687 39.9752 74.1265 39.3861C73.5826 39.1783 72.6685 39.1338 72.1178 39.2883ZM73.484 40.8186C74.1033 40.99 74.6937 41.786 74.6952 42.4513C74.6974 43.405 73.81 44.2329 72.869 44.1549C71.9964 44.0825 71.3438 43.43 71.2714 42.5576C71.2433 42.2191 71.2758 42.06 71.4427 41.7192C71.8264 40.9348 72.6273 40.5815 73.484 40.8186ZM57.1279 42.6049C56.8248 42.7897 56.7986 42.8869 56.7738 43.9207L56.7545 44.7263L56.0261 44.9681C55.6255 45.1011 54.9661 45.3727 54.5608 45.5717L53.8239 45.9335L53.2623 45.3683C52.647 44.749 52.3748 44.5938 52.0459 44.6749C51.7438 44.7494 48.1461 48.3367 48.0346 48.6746C47.9146 49.0381 48.0774 49.348 48.7189 49.9771L49.2605 50.5081L48.8881 51.2667C48.6832 51.6839 48.4098 52.3419 48.2804 52.7288L48.0453 53.4322L47.1053 53.4713C45.7003 53.5297 45.815 53.2628 45.7874 56.5372C45.7716 58.4059 45.7916 59.2728 45.854 59.4233C46.0086 59.7966 46.2224 59.8731 47.1785 59.8973L48.0524 59.9195L48.3074 60.6713C48.4477 61.0847 48.7213 61.7408 48.9155 62.1292L49.2686 62.8354L48.6961 63.404C48.0697 64.026 47.9141 64.2976 47.9955 64.6272C48.07 64.9292 51.658 68.5262 51.996 68.6377C52.3605 68.758 52.6697 68.5947 53.3062 67.9459L53.8448 67.3969L54.4788 67.7175C54.8275 67.8937 55.4822 68.1682 55.9336 68.3274L56.7545 68.6169L56.7738 69.4268C56.7986 70.465 56.8246 70.5619 57.1279 70.7468C57.3652 70.8915 57.5329 70.9005 59.9988 70.9005C63.3762 70.9005 63.1864 70.9871 63.2237 69.4268L63.243 68.6169L64.0711 68.3257C64.5266 68.1656 65.1818 67.8916 65.5272 67.717L66.1552 67.3994L66.6926 67.9472C67.3279 68.5947 67.6372 68.7579 68.0015 68.6377C68.3395 68.5262 71.9275 64.9292 72.002 64.6272C72.0834 64.2976 71.9278 64.026 71.3014 63.404L70.7289 62.8354L71.082 62.1292C71.2762 61.7408 71.5498 61.0847 71.6901 60.6713L71.9451 59.9195L72.819 59.8973C73.7751 59.8731 73.9889 59.7966 74.1435 59.4233C74.2059 59.2728 74.2259 58.4059 74.2101 56.5372C74.1825 53.2628 74.2972 53.5297 72.8922 53.4713L71.9522 53.4322L71.7171 52.7288C71.5877 52.3419 71.3143 51.6839 71.1094 51.2667L70.737 50.5081L71.2786 49.9771C71.9201 49.348 72.0829 49.0381 71.9629 48.6746C71.8514 48.3367 68.2537 44.7494 67.9516 44.6749C67.6227 44.5938 67.3505 44.749 66.7352 45.3683L66.1736 45.9335L65.4367 45.5717C65.0314 45.3727 64.372 45.1011 63.9714 44.9681L63.243 44.7263L63.2237 43.9207C63.1989 42.8869 63.1727 42.7897 62.8696 42.6049C62.6323 42.4603 62.4646 42.4513 59.9988 42.4513C57.5329 42.4513 57.3652 42.4603 57.1279 42.6049ZM61.6529 44.8331C61.6776 45.5918 61.6944 45.6669 61.8814 45.8537C62.0157 45.9879 62.2861 46.1073 62.6899 46.2107C63.6621 46.4597 65.069 47.0658 65.7446 47.5264C65.8803 47.6191 66.1061 47.6867 66.2807 47.6869C66.5483 47.6874 66.6454 47.6261 67.1465 47.1403C67.4569 46.8394 67.7438 46.5932 67.7841 46.5932C67.8244 46.5932 68.3646 47.1013 68.9845 47.7222L70.1116 48.851L69.5503 49.4419C68.8279 50.2022 68.8146 50.3518 69.3816 51.3403C69.8185 52.1022 70.1372 52.8799 70.4362 53.9142C70.7263 54.9173 70.8169 54.9887 71.8439 55.0221L72.6631 55.0487V56.683V58.3172H71.9166C70.7645 58.3172 70.7595 58.3218 70.3187 59.8023C70.082 60.5968 69.7522 61.3631 69.3361 62.0848C68.8308 62.9613 68.8482 63.1129 69.5361 63.8222C69.8371 64.1326 70.0834 64.4194 70.0834 64.4598C70.0834 64.5 69.5752 65.0401 68.9542 65.6599L67.8251 66.7867L67.2461 66.2369C66.561 65.5863 66.359 65.5188 65.8619 65.7746C65.6684 65.8742 65.1935 66.1199 64.8065 66.3206C64.4196 66.5213 63.7512 66.7931 63.3212 66.9244C61.9279 67.35 61.8696 67.3775 61.7497 67.6643C61.6835 67.8229 61.6404 68.204 61.6404 68.6319V69.3378H59.9988H58.3571V68.6319C58.3571 68.204 58.314 67.8229 58.2478 67.6643C58.1285 67.3789 58.1106 67.3704 56.6523 66.9127C56.2092 66.7736 55.5408 66.5014 55.167 66.3077C54.7932 66.1141 54.3291 65.8742 54.1356 65.7746C53.6385 65.5188 53.4365 65.5863 52.7514 66.2369L52.1724 66.7867L51.0433 65.6599C50.4223 65.0401 49.9142 64.5 49.9142 64.4598C49.9142 64.4194 50.1604 64.1326 50.4614 63.8222C51.1493 63.1129 51.1668 62.9613 50.6614 62.0848C50.2453 61.3631 49.9155 60.5968 49.6788 59.8023C49.238 58.3218 49.233 58.3172 48.0809 58.3172H47.3344V56.683V55.0487L48.1536 55.0221C49.1806 54.9887 49.2712 54.9173 49.5613 53.9142C49.8603 52.8799 50.179 52.1022 50.6159 51.3403C51.1792 50.3582 51.1668 50.2174 50.4484 49.4484L49.8883 48.8487L51.0142 47.7209C51.6335 47.1007 52.1731 46.5932 52.2134 46.5932C52.2537 46.5932 52.5406 46.8394 52.851 47.1403C53.3521 47.6261 53.4492 47.6874 53.7168 47.6869C53.8914 47.6867 54.1171 47.6191 54.2529 47.5264C54.9268 47.0666 56.5171 46.4061 57.6195 46.128C57.7943 46.0839 58.023 45.9568 58.1276 45.8455C58.2996 45.6626 58.3206 45.5646 58.3446 44.8285L58.3713 44.0139H59.9988H61.6262L61.6529 44.8331ZM59.1477 50.2689C57.7477 50.4621 56.4957 51.0952 55.4577 52.1346C54.6824 52.9109 54.212 53.6536 53.8915 54.6072C52.3886 59.0789 56.042 63.6127 60.7216 63.0829C64.2366 62.6849 66.8062 59.4767 66.4101 55.9807C66.1077 53.3116 64.1782 51.0834 61.5968 50.4222C60.9124 50.2468 59.8078 50.1776 59.1477 50.2689ZM61.1714 51.9217C61.8966 52.0891 62.8206 52.6159 63.4066 53.196C64.3989 54.1785 64.8637 55.2884 64.8637 56.6759C64.8637 58.0403 64.4002 59.1656 63.4446 60.121C62.4889 61.0764 61.3635 61.5399 59.9988 61.5399C58.611 61.5399 57.5009 61.0752 56.5182 60.083C55.9171 59.4761 55.4092 58.5691 55.2228 57.7701C55.0941 57.2185 55.0941 56.1332 55.2228 55.5816C55.4092 54.7827 55.9171 53.8756 56.5182 53.2687C57.7646 52.0103 59.4464 51.5234 61.1714 51.9217ZM47.9307 69.4608C48.4066 69.7549 48.7415 70.3498 48.7415 70.901C48.7415 72.006 47.6365 72.8342 46.5519 72.5422C46.0757 72.414 45.5084 71.8467 45.3801 71.3707C45.074 70.2338 45.964 69.1183 47.1134 69.1987C47.4302 69.2208 47.6636 69.2957 47.9307 69.4608ZM52.5106 73.8326C52.2148 73.9611 51.9949 74.389 52.0704 74.6895C52.2173 75.2749 52.9342 75.4751 53.3599 75.0495C53.7704 74.6391 53.622 73.9989 53.0677 73.7882C52.8269 73.6966 52.8226 73.697 52.5106 73.8326Z" fill="white"/>
<defs>
<filter id="filter0_d_1_3464" x="0" y="0.672607" width="120" height="120" filterUnits="userSpaceOnUse" color-interpolation-filters="sRGB">
<feFlood flood-opacity="0" result="BackgroundImageFix"/>
<feColorMatrix in="SourceAlpha" type="matrix" values="0 0 0 0 0 0 0 0 0 0 0 0 0 0 0 0 0 0 127 0" result="hardAlpha"/>
<feOffset dy="4"/>
<feGaussianBlur stdDeviation="10"/>
<feComposite in2="hardAlpha" operator="out"/>
<feColorMatrix type="matrix" values="0 0 0 0 0.0060606 0 0 0 0 0 0 0 0 0 1 0 0 0 0.4 0"/>
<feBlend mode="normal" in2="BackgroundImageFix" result="effect1_dropShadow_1_3464"/>
<feBlend mode="normal" in="SourceGraphic" in2="effect1_dropShadow_1_3464" result="shape"/>
</filter>
</defs>
</svg>
