<svg width="103" height="103" viewBox="0 0 103 103" fill="none" xmlns="http://www.w3.org/2000/svg">
<path d="M86.1161 54.4298C86.0614 45.9905 90.6039 39.6208 99.7984 34.9298C94.6538 28.7441 86.8823 25.3408 76.6206 24.6739C66.9062 24.03 56.2888 29.4339 52.403 29.4339C48.2984 29.4339 38.885 24.9039 31.4965 24.9039C16.2272 25.1108 0 35.1368 0 55.5335C0 61.5583 1.3135 67.7823 3.94049 74.2057C7.44315 82.645 20.0855 103.341 33.2752 102.996C40.1711 102.858 45.042 98.8796 54.0175 98.8796C62.7194 98.8796 67.2346 102.996 74.924 102.996C88.2232 102.835 99.6615 84.0247 103 75.5624C85.1583 68.5029 86.1161 54.8667 86.1161 54.4298ZM70.6278 16.6716C78.0983 9.2211 77.4142 2.4375 77.1953 0C70.6004 0.321934 62.9657 3.77122 58.6148 8.02534C53.826 12.5784 51.0074 18.2122 51.6095 24.5589C58.7516 25.0188 65.2643 21.9375 70.6278 16.6716Z" fill="black"/>
</svg>
