<svg width="165" height="141" viewBox="0 0 165 141" fill="none" xmlns="http://www.w3.org/2000/svg">
<path fill-rule="evenodd" clip-rule="evenodd" d="M0.200195 139.759L4.20933 122.439H11.1136L12.8572 129.84L17.866 122.404H25.1942L21.3804 139.743L15.8426 139.768L17.866 130.822L11.4393 139.768H8.71662L6.73319 130.198L4.50411 139.768L0.200195 139.759ZM48.9725 122.401L65.9837 122.439L64.9623 128.032H59.1216L56.7223 139.759L51.3387 139.768L53.5769 128.081H47.8277L48.9725 122.401ZM94.5984 122.433V126.46H94.6075L93.9448 129.811H99.7763C99.7763 129.811 101.193 129.499 101.274 127.858C101.342 126.405 100.277 126.506 100.277 126.506L94.5995 126.48V122.437L103.384 122.431C103.384 122.431 107.144 122.793 106.779 126.926C106.402 131.056 102.946 132.374 102.946 132.374C102.946 132.374 102.735 132.638 102.899 132.793C103.062 132.946 104.353 133.255 104.517 134.8C104.68 136.349 104.093 137.475 104.093 137.944C104.093 138.404 104.13 139.332 104.593 139.743H99.0417C99.0417 139.743 98.0511 139.55 98.1356 138.251C98.2179 136.967 98.2647 135.836 98.2647 135.836C98.2647 135.836 98.1825 134.488 96.6938 134.649L92.6344 134.599L91.4781 139.761H86.3858L90.2625 122.434H94.5984V122.433ZM133.156 122.433H138.366L135.843 134.999H144.416L143.421 139.774H129.596L133.156 122.433ZM161.074 122.418L164.2 139.768H158.78L158.206 136.761L158.187 136.703H151.62L151.597 136.729L150.011 139.759L145.42 139.768L154.69 122.418L156.486 127.532L153.797 132.589L153.875 132.625H157.359L157.422 132.616L156.486 127.532L154.69 122.418H161.074ZM37.3393 126.273C38.9925 126.273 40.6206 127.312 40.8777 128.82C41.6626 133.642 37.6135 135.707 38.0888 135.404C35.7592 136.871 32.2196 136.401 31.8037 133.361C31.4096 130.438 33.1862 127.56 34.6818 126.874C35.7055 126.405 36.5498 126.206 37.3393 126.273L37.3507 126.228L37.3701 121.732C36.2996 121.759 35.0942 121.928 34.1436 122.164C30.0614 123.158 24.9166 127.869 25.8226 133.832C26.5858 138.872 31.9683 141.578 38.0031 140.096C43.6621 138.716 47.3673 133.181 46.5709 128.271C45.8054 123.521 41.3759 121.732 37.3701 121.732V125.62L37.3393 126.273ZM76.9051 126.273C78.5561 126.273 80.1899 127.312 80.4321 128.82C81.2319 133.642 77.1782 135.707 77.6615 135.404C75.3284 136.871 71.7855 136.401 71.373 133.361C70.9731 130.438 72.7509 127.56 74.2499 126.874C75.2702 126.405 76.1259 126.206 76.9051 126.273L76.9166 126.228L76.9394 121.732C75.8542 121.765 74.7729 121.91 73.706 122.164C69.6272 123.158 64.4744 127.869 65.3804 133.832C66.1425 138.872 71.5387 141.578 77.5632 140.096C83.2279 138.716 86.9388 133.181 86.1391 128.271C85.3713 123.521 80.9428 121.732 76.9383 121.732V125.62L76.9051 126.273ZM119.919 126.228C121.57 126.344 123.188 127.312 123.44 128.82C124.23 133.642 120.18 135.707 120.666 135.404C118.332 136.871 114.79 136.401 114.376 133.361C113.978 130.438 115.75 127.56 117.252 126.874C118.482 126.306 118.962 126.148 119.919 126.228L119.942 121.732C118.857 121.766 117.776 121.91 116.709 122.164C112.637 123.158 107.488 127.869 108.39 133.832C109.153 138.872 114.545 141.578 120.574 140.096C126.233 138.716 129.944 133.181 129.138 128.271C128.375 123.521 123.945 121.732 119.942 121.732V125.62L119.919 126.228ZM82.2613 0.5C105.275 0.5 123.391 24.0448 123.391 52.7227C123.391 81.5704 104.973 104.95 82.2613 104.95C59.5501 104.95 41.1439 81.5704 41.1439 52.7227C41.1439 23.875 59.5512 0.5 82.2613 0.5ZM82.1699 63.6723L70.6669 15.201L55.774 77.2602H58.5687C58.5687 77.2602 60.4504 66.4645 63.4987 60.0152C65.1633 56.5191 67.726 53.6559 71.1536 53.7371C73.5689 53.7923 75.6575 55.4728 78.2693 60.1022C79.8391 62.8872 82.2568 69.9721 82.2568 69.9721C82.2568 69.9721 84.6743 62.8973 86.2499 60.1022C88.8514 55.4728 90.9423 53.7923 93.3621 53.7371C96.7829 53.6544 99.3559 56.5191 101.014 60.021C104.069 66.463 105.945 77.2588 105.945 77.2588H108.745L93.8431 15.1996L82.3401 63.6723L82.2625 63.7608L82.1699 63.6723Z" fill="black"/>
</svg>
