<svg width="629" height="624" viewBox="0 0 629 624" fill="none" xmlns="http://www.w3.org/2000/svg">
<g clip-path="url(#clip0_545_441)">
<path opacity="0.4" d="M240.248 624C232.147 624 224.332 622.112 218.299 618.622L57.0184 525.932C49.0894 521.354 44.5503 514.374 44.5503 506.707C44.5503 499.04 49.0894 492.06 57.0184 487.482L404.229 287.912C410.262 284.422 418.077 282.534 426.178 282.534C434.279 282.534 442.093 284.422 448.126 287.912L609.408 380.602C617.337 385.122 621.876 392.16 621.876 399.827C621.876 407.494 617.337 414.474 609.408 419.052L262.196 618.679C256.163 622.112 248.349 624 240.248 624Z" fill="#6E84FE"/>
<path opacity="0.4" d="M498.516 345.643L571.888 387.812C584.931 395.307 606.133 395.307 619.175 387.812C632.218 380.316 632.218 368.129 619.175 360.634L545.803 318.465C532.76 310.97 511.559 310.97 498.516 318.465C485.473 325.961 485.473 338.148 498.516 345.643Z" fill="#6E84FE"/>
<path d="M553.732 315.604C555.8 318.294 555.8 324.53 555.283 331.568C553.387 338.72 546.607 338.148 540.804 339.063C529.658 340.78 524.084 349.19 509.203 349.133C500.355 349.133 494.494 347.245 492.598 341.638C492.311 339.063 493.805 336.488 496.965 333.799C496.965 333.799 517.189 324.759 517.707 324.416C518.224 324.072 527.302 317.493 527.474 316.749C527.647 316.062 530.979 300.614 530.979 300.614H552.813L553.732 315.604Z" fill="black"/>
<path d="M525.693 318.58C536.955 325.331 553.445 331.225 555.168 322.928C555.743 320.411 556.26 317.95 556.777 315.49C561.604 291.803 563.844 269.145 559.478 249.234L570.567 211.643L573.612 201.229C573.842 177.027 566.89 166.442 548.446 170.104C547.699 170.218 544.367 166.442 543.62 166.613C542.528 166.9 541.092 164.783 540 165.069L537.07 187.326L527.762 244.313C525.004 266.341 529.485 299.412 525.693 318.58Z" fill="#36118A"/>
<path d="M619.865 349.305C621.876 355.713 622.278 357.601 621.416 362.35C620.439 364.868 619.52 366.012 618.428 369.502C617.222 373.794 617.394 380.946 610.959 385.237C603.317 391.245 588.551 391.531 583.897 385.122C583.897 381.976 585.965 375.11 589.872 369.502L597.399 355.599L596.939 342.554L618.486 337.862L619.865 349.305Z" fill="black"/>
<path d="M539.138 159.175C539.196 161.178 539.483 163.123 539.943 165.069C544.539 183.721 566.832 198.941 569.245 202.66C569.59 203.175 571.142 212.73 571.429 213.245C571.888 216.106 572.406 219.024 572.923 221.942C576.37 240.937 580.852 261.306 586.023 282.705C592.113 308.224 594.756 332.369 595.331 355.713C604.811 360.062 616.36 358.116 620.669 351.651C621.186 350.907 621.589 350.106 621.876 349.248C621.818 338.834 621.761 328.307 621.474 318.408C620.957 297.868 619.52 280.131 614.924 272.292L615.958 201.63C619.865 182.577 619.865 165.526 614.119 151.623H567.005C567.005 151.508 539.138 159.175 539.138 159.175Z" fill="#36118A"/>
<path opacity="0.5" d="M549.021 168.845C549.078 170.847 555.915 183.378 555.915 183.378C562.121 185.666 568.326 188.47 577.921 188.985C591.768 189.729 602.685 201 603.202 214.789L605.271 272.006C616.13 288.312 618.601 319.552 620.612 351.593C621.186 350.792 621.588 349.991 621.876 349.133C621.818 338.72 621.761 328.192 621.473 318.294C620.956 297.753 619.52 280.016 614.923 272.177L615.958 201.515C619.865 182.462 619.865 165.412 614.119 151.508H567.004C567.004 151.508 549.021 168.845 549.021 168.845Z" fill="#36118A"/>
<path d="M514.202 157.859C514.834 156.887 515.581 155.742 516.443 154.541C522.188 145.959 531.669 132.112 536.552 121.928L539.942 108.768L542.126 100.3L539.655 84.3366L532.588 66.2563L528.221 43.2554C521.556 56.0146 518.166 81.1325 517.247 104.133L500.355 148.304C496.275 156.887 511.271 163.753 514.202 157.859Z" fill="#FF9900"/>
<path opacity="0.3" d="M516.443 154.484C522.188 145.901 531.669 132.055 536.552 121.87L539.942 108.711L525.693 73.2366L525.923 121.127L516.443 154.484Z" fill="#14708F"/>
<path d="M525.693 69.2316C525.693 69.2316 527.072 97.4965 533.048 127.535C533.507 129.766 539.483 157.574 539.195 159.176C540.057 160.263 540.919 161.35 541.896 162.38C544.137 164.84 546.55 167.014 549.021 168.845C573.612 187.154 609.12 177.141 615.728 153.683C615.843 153.168 616.015 152.596 616.13 152.024C616.762 138.234 613.717 106.823 612.28 92.2898C612.166 91.4888 612.108 90.6305 612.051 89.9439C611.246 81.7048 609.925 74.7244 607.741 70.0899C595.216 50.7508 574.302 44.1137 562.293 39.3648L532.588 35.188C525.578 42.9694 526.727 55.2709 525.693 69.2316Z" fill="#FF9900"/>
<path d="M546.952 66.0273C548.274 67.2289 548.734 67.6866 550.17 67.801C565.741 69.117 573.268 49.3202 567.637 39.5934C563.04 31.3543 561.949 27.9785 561.949 27.9785L539.828 43.5413C539.828 43.5413 539.311 45.8872 540.402 49.1485C542.356 54.7557 542.988 62.4799 546.952 66.0273Z" fill="#FDD3BD"/>
<path opacity="0.5" d="M548.676 67.3433C555.858 68.9453 565.856 62.3655 561.029 39.1929L541.666 49.2057C543.562 54.8129 542.7 64.0819 548.676 67.3433Z" fill="#F2A9A2"/>
<path d="M561.719 32.9563C561.719 32.9563 563.213 44.5139 560.282 50.9221C557.352 57.3304 550.687 62.537 547.872 63.853C545.056 65.1118 542.7 65.7412 539.943 64.3108C537.242 62.8803 528.164 43.2552 528.164 43.2552C525.176 35.4738 524.372 33.0707 523.625 28.4362C522.476 21.5702 521.556 5.66412 541.149 0.915171C550.63 -1.37348 558.731 2.97496 562.983 10.4131C566.373 16.3063 565.741 29.4089 565.741 29.4089L561.719 32.9563Z" fill="#FDD3BD"/>
<path d="M566.488 30.5533L559.478 38.678L556.72 33.7001C555.743 31.1826 552.87 29.9811 550.4 31.1826C546.263 33.128 539.713 35.4739 532.243 34.8445C525.176 34.2723 522.591 30.7249 522.591 30.7249C515.121 20.426 526.785 5.72141 538.334 1.65905C552.353 -3.26154 561.604 3.77605 564.821 11.958C567.752 19.3389 566.488 30.5533 566.488 30.5533Z" fill="black"/>
<path d="M561.718 24.2024C562.695 23.1153 564.419 22.5431 565.683 23.2869C566.372 23.7446 566.832 24.4885 567.005 25.2895C567.177 26.0905 567.119 26.9487 567.062 27.7498C566.947 29.1802 566.775 30.6106 566.487 31.9838C566.258 33.1281 565.913 34.3296 564.994 35.0162C564.017 35.7028 562.983 36.9616 562.063 36.2178C561.144 35.474 560.167 32.9565 559.937 31.7549C559.478 29.2946 559.937 26.1477 561.718 24.2024Z" fill="#FDD3BD"/>
<path opacity="0.3" d="M549.021 168.845C573.612 187.154 609.12 177.141 615.728 153.682C615.843 153.168 616.015 152.595 616.13 152.023C616.762 138.234 613.717 106.822 612.28 92.2894L591.941 88.8565C586.425 87.941 581.196 91.4884 580.105 96.8667C577.347 110.313 577.347 138.577 577.347 138.577C569.762 150.993 558.328 165.927 549.021 168.845Z" fill="#14708F"/>
<path d="M611.361 135.145C609.638 145.043 609.925 148.934 603.834 157.058C593.55 171.877 587.287 180.86 572.578 191.96C564.304 196.595 551.893 185.609 555.743 181.49C559.765 171.877 568.671 158.889 584.357 139.722L580.967 95.6081C583.207 77.5278 583.035 57.7309 600.559 62.3082C617.739 71.7489 614.579 116.606 611.361 135.145Z" fill="#FF9900"/>
<path d="M555.801 181.49C559.823 174.852 570.05 185.724 568.613 189.958L565.396 200.199L564.994 201.458C558.271 198.368 551.664 195.794 545.516 192.132L546.148 190.473L555.801 181.49Z" fill="#FDD3BD"/>
<path d="M496.965 154.083L500.125 151.508C505.009 150.478 508.399 153.968 510.41 157.802L511.559 162.379L510.525 167.586C503.975 165.583 498.171 162.208 492.771 158.374L496.965 154.083Z" fill="#FDD3BD"/>
<path d="M86.0913 488.169L411.526 301.072C420.49 295.922 434.969 295.922 443.874 301.072L597.399 389.356L611.821 386.553V403.088C611.821 406.464 609.58 409.84 605.098 412.414L257.887 612.042C248.924 617.191 234.445 617.191 225.539 612.042L64.2578 519.352C59.891 516.834 57.6502 513.573 57.5928 510.254V493.719L86.0913 488.169Z" fill="black"/>
<path d="M605.213 377.856L443.932 285.166C434.969 280.016 420.49 280.016 411.584 285.166L64.3726 484.793C55.4093 489.942 55.4093 498.239 64.3726 503.388L225.654 596.079C234.617 601.228 249.096 601.228 258.002 596.079L605.213 396.451C614.119 391.359 614.119 383.005 605.213 377.856Z" fill="#CCCCCC"/>
<path d="M241.799 596.994C247.372 596.994 252.601 595.793 256.508 593.561L603.719 393.934C607.052 392.046 608.948 389.585 608.948 387.182C608.948 384.836 607.052 382.376 603.719 380.431L442.438 287.74C438.588 285.509 433.36 284.307 427.729 284.307C422.098 284.307 416.927 285.509 413.02 287.74L65.8665 487.368C62.534 489.256 60.6379 491.716 60.6379 494.119C60.6379 496.465 62.534 498.925 65.8665 500.871L227.148 593.561C230.997 595.735 236.226 596.994 241.799 596.994Z" fill="#475066"/>
<path d="M600.789 389.642L246.223 593.504L88.1599 502.644L442.726 298.783L600.789 389.642Z" fill="#464854"/>
<path d="M411.986 292.832L425.488 300.556L372.341 331.11L358.839 323.329L411.986 292.832Z" fill="#C8C9E0"/>
<path d="M372.341 338.605L358.839 330.824V323.329L372.341 331.11V338.605Z" fill="#303845"/>
<path d="M372.341 338.605V331.11L425.489 300.556V308.052L372.341 338.605Z" fill="#A5A7C7"/>
<path d="M118.899 454.125L132.402 461.906L79.2543 492.46L65.752 484.678L118.899 454.125Z" fill="#C8C9E0"/>
<path d="M79.2543 499.898L65.752 492.174V484.678L79.2543 492.46V499.898Z" fill="#303845"/>
<path d="M79.2542 499.898V492.46L132.402 461.906V469.402L79.2542 499.898Z" fill="#A5A7C7"/>
<path d="M419.513 363.437L446.46 378.943L474.269 362.923L447.322 347.474L419.513 363.437Z" fill="#475066"/>
<path d="M419.513 366.069L446.46 381.518V378.943L419.513 363.437V366.069Z" fill="#303845"/>
<path d="M446.46 378.943V381.518L474.269 365.554V362.922L446.46 378.943Z" fill="#2E2520"/>
<path d="M334.764 536.001L341.257 539.72L344.474 537.832L338.039 534.113L334.764 536.001Z" fill="#E3D1BC"/>
<path d="M341.257 539.72V544.012L344.475 542.124V537.832L341.257 539.72Z" fill="#A5A7C7"/>
<path d="M344.532 530.394L350.967 534.056L354.242 532.225L347.75 528.506L344.532 530.394Z" fill="#E3D1BC"/>
<path d="M350.967 534.056V538.405L354.242 536.516V532.225L350.967 534.056Z" fill="#A5A7C7"/>
<path d="M354.3 524.787L360.735 528.449L363.952 526.618L357.517 522.899L354.3 524.787Z" fill="#E3D1BC"/>
<path d="M360.735 528.449V532.74L363.952 530.909V526.618L360.735 528.449Z" fill="#A5A7C7"/>
<path d="M364.01 519.18L370.502 522.842L373.72 521.011L367.285 517.292L364.01 519.18Z" fill="#E3D1BC"/>
<path d="M370.502 522.842V527.133L373.72 525.302V521.011L370.502 522.842Z" fill="#A5A7C7"/>
<path d="M373.777 513.515L380.212 517.234L383.43 515.403L376.995 511.684L373.777 513.515Z" fill="#E3D1BC"/>
<path d="M380.213 517.234V521.526L383.43 519.695V515.404L380.213 517.234Z" fill="#A5A7C7"/>
<path d="M383.545 507.908L389.98 511.627L393.198 509.796L386.763 506.077L383.545 507.908Z" fill="#E3D1BC"/>
<path d="M389.98 511.627V515.918L393.198 514.087V509.796L389.98 511.627Z" fill="#A5A7C7"/>
<path d="M393.255 502.301L399.69 506.02L402.965 504.132L396.53 500.47L393.255 502.301Z" fill="#E3D1BC"/>
<path d="M399.69 506.02V510.311L402.965 508.481V504.132L399.69 506.02Z" fill="#A5A7C7"/>
<path d="M403.023 496.694L409.458 500.413L412.676 498.525L406.241 494.863L403.023 496.694Z" fill="#E3D1BC"/>
<path d="M409.458 500.413V504.704L412.676 502.873V498.525L409.458 500.413Z" fill="#A5A7C7"/>
<path d="M412.733 491.087L419.225 494.806L422.443 492.918L416.008 489.256L412.733 491.087Z" fill="#E3D1BC"/>
<path d="M419.226 494.806V499.097L422.443 497.209V492.918L419.226 494.806Z" fill="#A5A7C7"/>
<path d="M422.501 485.479L428.936 489.199L432.211 487.31L425.718 483.591L422.501 485.479Z" fill="#E3D1BC"/>
<path d="M428.936 489.198V493.49L432.211 491.602V487.31L428.936 489.198Z" fill="#A5A7C7"/>
<path d="M432.268 479.872L438.703 483.591L441.921 481.703L435.486 477.984L432.268 479.872Z" fill="#E3D1BC"/>
<path d="M438.704 483.591V487.882L441.921 485.994V481.703L438.704 483.591Z" fill="#A5A7C7"/>
<path d="M441.979 474.265L448.471 477.984L451.689 476.096L445.254 472.377L441.979 474.265Z" fill="#E3D1BC"/>
<path d="M448.471 477.984V482.275L451.689 480.387V476.096L448.471 477.984Z" fill="#A5A7C7"/>
<path d="M451.746 468.658L458.181 472.32L461.399 470.489L454.964 466.77L451.746 468.658Z" fill="#E3D1BC"/>
<path d="M458.181 472.32V476.668L461.399 474.78V470.489L458.181 472.32Z" fill="#A5A7C7"/>
<path d="M461.514 463.05L467.949 466.712L471.166 464.881L464.731 461.162L461.514 463.05Z" fill="#E3D1BC"/>
<path d="M467.949 466.712V471.003L471.167 469.173V464.881L467.949 466.712Z" fill="#A5A7C7"/>
<path d="M471.224 457.444L477.659 461.105L480.934 459.274L474.499 455.555L471.224 457.444Z" fill="#E3D1BC"/>
<path d="M477.659 461.105V465.397L480.934 463.566V459.274L477.659 461.105Z" fill="#A5A7C7"/>
<path d="M480.992 451.779L487.427 455.498L490.644 453.667L484.209 449.948L480.992 451.779Z" fill="#E3D1BC"/>
<path d="M487.427 455.498V459.789L490.644 457.958V453.667L487.427 455.498Z" fill="#A5A7C7"/>
<path d="M490.702 446.172L497.194 449.891L500.412 448.06L493.977 444.341L490.702 446.172Z" fill="#E3D1BC"/>
<path d="M497.195 449.891V454.182L500.412 452.351V448.06L497.195 449.891Z" fill="#A5A7C7"/>
<path d="M500.469 440.565L506.905 444.284L510.18 442.395L503.687 438.734L500.469 440.565Z" fill="#E3D1BC"/>
<path d="M506.905 444.284V448.575L510.179 446.744V442.396L506.905 444.284Z" fill="#A5A7C7"/>
<path d="M510.237 434.957L516.672 438.676L519.89 436.788L513.455 433.126L510.237 434.957Z" fill="#E3D1BC"/>
<path d="M516.672 438.676V442.968L519.89 441.137V436.788L516.672 438.676Z" fill="#A5A7C7"/>
<path d="M519.948 429.35L526.44 433.069L529.658 431.181L523.223 427.519L519.948 429.35Z" fill="#E3D1BC"/>
<path d="M526.44 433.069V437.361L529.658 435.472V431.181L526.44 433.069Z" fill="#A5A7C7"/>
<path d="M529.715 423.743L536.15 427.462L539.368 425.574L532.933 421.855L529.715 423.743Z" fill="#E3D1BC"/>
<path d="M536.15 427.462V431.753L539.368 429.865V425.574L536.15 427.462Z" fill="#A5A7C7"/>
<path d="M539.482 418.136L545.918 421.855L549.135 419.967L542.7 416.248L539.482 418.136Z" fill="#E3D1BC"/>
<path d="M545.918 421.855V426.146L549.135 424.258V419.967L545.918 421.855Z" fill="#A5A7C7"/>
<path d="M549.193 412.529L555.628 416.248L558.903 414.36L552.468 410.641L549.193 412.529Z" fill="#E3D1BC"/>
<path d="M555.628 416.248V420.539L558.903 418.651V414.36L555.628 416.248Z" fill="#A5A7C7"/>
<path d="M194.742 546.587L216.518 559.174L201.005 568.1L179.171 555.57L194.742 546.587Z" fill="#C8C9E0"/>
<path d="M201.005 574.336L179.171 561.806V555.57L201.005 568.1V574.336Z" fill="#464854"/>
<path d="M201.005 574.336V568.1L216.518 559.174V565.411L201.005 574.336Z" fill="#A5A7C7"/>
<path d="M540.747 346.673L562.58 359.203L547.009 368.129L525.233 355.599L540.747 346.673Z" fill="#C8C9E0"/>
<path d="M547.009 374.423L525.233 361.892V355.599L547.009 368.129V374.423Z" fill="#303845"/>
<path d="M547.01 374.423V368.129L562.58 359.203V365.497L547.01 374.423Z" fill="#A5A7C7"/>
<path d="M507.881 327.563L529.657 340.093L514.144 349.076L492.311 336.488L507.881 327.563Z" fill="#C8C9E0"/>
<path d="M514.144 355.313L492.311 342.782V336.489L514.144 349.076V355.313Z" fill="#303845"/>
<path d="M514.144 355.313V349.076L529.658 340.093V346.387L514.144 355.313Z" fill="#A5A7C7"/>
<path d="M156.591 525.073L178.425 537.604L162.854 546.529L141.078 533.999L156.591 525.073Z" fill="#C8C9E0"/>
<path d="M162.854 552.766L141.078 540.235V533.999L162.854 546.529V552.766Z" fill="#464854"/>
<path d="M162.854 552.766V546.529L178.425 537.604V543.84L162.854 552.766Z" fill="#A5A7C7"/>
<path d="M103.731 494.52L125.507 507.05L109.993 516.033L88.1599 503.503L103.731 494.52Z" fill="#C8C9E0"/>
<path d="M109.993 522.27L88.1599 509.739V503.503L109.993 516.033V522.27Z" fill="#464854"/>
<path d="M109.994 522.27V516.033L125.507 507.05V513.344L109.994 522.27Z" fill="#A5A7C7"/>
<path d="M436.003 360.691C436.52 360.176 437.152 359.718 437.899 359.261C442.84 356.4 450.884 356.4 455.883 359.261C456.63 359.718 457.262 360.176 457.779 360.691H459.618V364.467C459.618 366.355 458.354 368.186 455.883 369.617C450.942 372.478 442.898 372.478 437.899 369.617C435.428 368.186 434.164 366.298 434.164 364.467V360.691H436.003Z" fill="#464854"/>
<path d="M446.862 368.015C453.875 368.015 459.56 364.736 459.56 360.691C459.56 356.646 453.875 353.367 446.862 353.367C439.85 353.367 434.165 356.646 434.165 360.691C434.165 364.736 439.85 368.015 446.862 368.015Z" fill="#A5A7C7"/>
<path d="M442.208 358.059C439.623 359.547 439.623 361.95 442.208 363.38C444.794 364.811 448.931 364.868 451.516 363.38C454.102 361.893 454.102 359.489 451.516 358.059C448.988 356.571 444.794 356.571 442.208 358.059Z" fill="#1A1A1A"/>
<path d="M219.046 546.93L255.991 568.214L294.142 546.243L257.198 525.016L219.046 546.93Z" fill="#A5A7C7"/>
<path d="M176.758 522.613L213.703 543.84L251.854 521.926L214.91 500.699L176.758 522.613Z" fill="#A5A7C7"/>
<path d="M481.164 359.89L510.525 376.597L523.338 383.978L555.513 402.459C559.306 404.633 559.306 410.069 555.513 412.3L331.834 540.865C327.582 543.325 322.354 543.325 318.16 540.865L271.505 514.03V507.851L468.984 400.685L439.623 383.978V377.799L481.164 359.89Z" fill="#A5A7C7"/>
<path d="M481.208 353.993L510.568 370.7L523.381 378.081L555.557 396.562C559.349 398.736 559.349 404.171 555.557 406.403L331.878 534.968C327.626 537.428 322.398 537.428 318.203 534.968L271.548 508.133L469.027 394.788L439.667 378.081L481.208 353.993Z" fill="white"/>
<path d="M336.143 476.496L361.309 490.972L387.28 476.039L362.114 461.563L336.143 476.496Z" fill="#4D4D4D"/>
<path d="M454.734 374.938L479.9 389.413L505.871 374.423L480.705 360.004L454.734 374.938Z" fill="#4D4D4D"/>
<path d="M513.627 380.201L538.793 394.677L522.361 404.118L497.195 389.642L513.627 380.201Z" fill="#4D4D4D"/>
<path d="M413.652 469.802L388.544 455.327C388.199 455.155 387.969 454.754 387.969 454.354C387.969 453.953 388.199 453.61 388.544 453.381L475.418 402.287C475.763 402.058 476.223 402.058 476.568 402.287L501.734 416.763C502.078 416.992 502.308 417.335 502.308 417.736C502.308 418.136 502.078 418.479 501.734 418.708L414.802 469.86C414.629 469.974 414.457 470.031 414.227 470.031C413.997 469.974 413.825 469.917 413.652 469.802ZM475.935 404.519L391.302 454.354L414.17 467.571L498.861 417.678L475.935 404.519Z" fill="#4D4D4D"/>
<path d="M429.453 330.538L470.42 320.182V324.816L408.251 360.519L372.111 339.807V335.172L408.826 318.694L429.453 330.538Z" fill="#303845"/>
<path d="M429.453 325.961L454.906 311.313L470.42 320.182L408.251 355.942L372.111 335.173L408.826 314.117L429.453 325.961Z" fill="#C8C9E0"/>
<path d="M455.883 319.724C457.279 319.724 458.411 319.058 458.411 318.236C458.411 317.415 457.279 316.749 455.883 316.749C454.487 316.749 453.355 317.415 453.355 318.236C453.355 319.058 454.487 319.724 455.883 319.724Z" fill="#1A1A1A"/>
<path d="M409.286 351.651C410.682 351.651 411.814 350.985 411.814 350.163C411.814 349.342 410.682 348.676 409.286 348.676C407.89 348.676 406.758 349.342 406.758 350.163C406.758 350.985 407.89 351.651 409.286 351.651Z" fill="#1A1A1A"/>
<path d="M379.811 336.546C381.207 336.546 382.339 335.88 382.339 335.058C382.339 334.236 381.207 333.57 379.811 333.57C378.414 333.57 377.282 334.236 377.282 335.058C377.282 335.88 378.414 336.546 379.811 336.546Z" fill="#1A1A1A"/>
<path d="M484.094 313.488L495.413 320.01L479.9 328.936L468.581 322.471L484.094 313.488Z" fill="#C8C9E0"/>
<path d="M479.9 335.23L468.581 328.707V322.471L479.9 328.936V335.23Z" fill="#303845"/>
<path d="M479.9 335.23V328.936L495.413 320.01V326.247L479.9 335.23Z" fill="#A5A7C7"/>
<path d="M455.194 397.367L270.585 503.503L230.423 526.561L130.218 469.001V457.043L354.989 339.75L455.194 385.409V397.367Z" fill="#1A1A1A"/>
<path d="M455.194 385.408L230.423 514.66L130.218 457.043L354.989 327.792L455.194 385.408Z" fill="#4D4D4D"/>
<path d="M356.196 347.245L423.593 385.981L428.132 383.406L360.735 344.613L356.196 347.245Z" fill="white"/>
<path d="M415.951 388.956L411.412 391.531L364.757 364.696L369.411 362.179L415.951 388.956Z" fill="white"/>
<path d="M353.495 376.712L395.209 400.685L397.967 399.083L356.253 375.11L353.495 376.712Z" fill="white"/>
<path d="M176.758 448.518L238.065 483.763L242.144 481.36L180.895 446.172L176.758 448.518Z" fill="white"/>
<path d="M179.171 458.76L222.609 483.763L225.539 482.047L182.102 457.1L179.171 458.76Z" fill="white"/>
<path d="M178.425 466.141L209.911 484.278L212.037 483.077L180.55 464.939L178.425 466.141Z" fill="white"/>
<path d="M345.279 381.232L386.992 405.205L389.808 403.603L348.094 379.573L345.279 381.232Z" fill="white"/>
<path d="M355.276 396.279L378.948 409.897L381.764 408.295L358.034 394.62L355.276 396.279Z" fill="white"/>
<path d="M249.613 573.707L233.698 582.862L245.074 589.384L260.99 580.23L249.613 573.707Z" fill="#C8C9E0"/>
<path d="M581.254 383.692L565.338 392.847L576.657 399.369L592.573 390.215L581.254 383.692Z" fill="#C8C9E0"/>
<path d="M562.925 372.363L547.01 381.518L558.386 388.04L574.302 378.886L562.925 372.363Z" fill="#C8C9E0"/>
<path d="M472.718 338.091L456.802 347.245L468.121 353.768L484.037 344.613L472.718 338.091Z" fill="#C8C9E0"/>
<path d="M442.381 300.557L430.89 307.194L439.106 311.885L450.597 305.306L442.381 300.557Z" fill="#C8C9E0"/>
<path d="M232.434 563.637L216.518 572.791L227.895 579.314L243.81 570.159L232.434 563.637Z" fill="#C8C9E0"/>
<path d="M146.134 514.431L130.218 523.586L141.537 530.108L157.51 520.954L146.134 514.431Z" fill="#C8C9E0"/>
<path d="M594.067 213.588L432.786 120.898C423.822 115.748 409.343 115.748 400.438 120.898L53.2263 320.525C44.2631 325.675 44.2631 333.971 53.2263 339.12L214.507 431.811C223.471 436.96 237.95 436.96 246.856 431.811L594.067 232.183C603.03 227.091 603.03 218.738 594.067 213.588Z" fill="#FF5E1A"/>
<path d="M398.829 219.481C398.829 220.168 398.944 220.797 399.174 221.427C399.806 223.2 401.299 224.86 403.713 226.29C410.263 230.066 420.835 230.066 427.442 226.29L461.227 206.894C463.64 205.521 465.134 203.861 465.766 202.03C466.053 201.344 466.111 200.714 466.111 200.028C466.111 197.568 464.444 195.107 461.169 193.219C454.619 189.443 443.99 189.443 437.44 193.219L403.655 212.615C400.438 214.561 398.829 217.021 398.829 219.481Z" fill="#4D4D4D"/>
<path d="M399.174 221.484C399.806 223.258 401.299 224.917 403.713 226.347C410.263 230.124 420.835 230.124 427.442 226.347L461.227 206.951C463.64 205.578 465.134 203.919 465.766 202.088C465.134 200.314 463.64 198.597 461.227 197.224C454.677 193.448 444.047 193.448 437.497 197.224L403.713 216.621C401.299 217.994 399.806 219.71 399.174 221.484Z" fill="#333333"/>
<path d="M434.452 201.515C435.026 200.943 435.716 200.428 436.578 199.971C442.036 196.824 450.942 196.824 456.458 199.971C457.32 200.428 458.009 201 458.584 201.515H460.595V205.635C460.595 207.695 459.216 209.754 456.458 211.357C450.999 214.503 442.094 214.503 436.578 211.357C433.82 209.754 432.441 207.695 432.441 205.635V201.515H434.452Z" fill="#464854"/>
<path d="M436.577 195.794C431.119 198.941 431.119 204.033 436.577 207.237C442.036 210.441 450.941 210.384 456.457 207.237C461.973 204.09 461.916 198.998 456.457 195.794C450.941 192.647 442.036 192.647 436.577 195.794Z" fill="#A5A7C7"/>
<path d="M446.518 207.18C452.008 207.18 456.458 204.618 456.458 201.458C456.458 198.298 452.008 195.737 446.518 195.737C441.028 195.737 436.578 198.298 436.578 201.458C436.578 204.618 441.028 207.18 446.518 207.18Z" fill="#1A1A1A"/>
<path d="M413.997 215.476C414.399 215.075 414.916 214.732 415.491 214.389C419.341 212.157 425.661 212.157 429.511 214.389C430.085 214.732 430.602 215.075 431.004 215.476H432.441V218.394C432.441 219.882 431.464 221.312 429.511 222.456C425.661 224.688 419.341 224.688 415.491 222.456C413.538 221.369 412.561 219.882 412.561 218.394V215.476H413.997Z" fill="#464854"/>
<path d="M422.558 221.198C428.048 221.198 432.498 218.636 432.498 215.476C432.498 212.316 428.048 209.754 422.558 209.754C417.068 209.754 412.618 212.316 412.618 215.476C412.618 218.636 417.068 221.198 422.558 221.198Z" fill="#A5A7C7"/>
<path d="M422.558 219.539C426.43 219.539 429.568 217.72 429.568 215.476C429.568 213.233 426.43 211.414 422.558 211.414C418.687 211.414 415.549 213.233 415.549 215.476C415.549 217.72 418.687 219.539 422.558 219.539Z" fill="#1A1A1A"/>
<path d="M56.2143 338.777L52.0774 305.42L29.7841 297.353L26.624 325.16L56.2143 338.777Z" fill="#FDD3BD"/>
<path d="M26.4516 557.801C26.4516 557.801 34.2657 561.119 35.5872 564.152C36.9087 567.127 34.4381 572.448 34.4381 572.448C34.4381 572.448 31.3354 578.856 28.8648 581.088C26.4516 583.319 21.3379 584.978 21.3379 584.978C21.3379 584.978 17.8331 594.419 13.0067 595.678C8.18033 596.937 3.58379 595.163 1.28552 590.815C-1.07021 586.466 4.56055 574.222 4.56055 574.222L26.4516 557.801Z" fill="black"/>
<path d="M121.083 591.272V608.38C121.083 608.38 119.014 617.306 122.404 620.853C125.794 624.401 129.931 623.371 134.642 621.826C139.354 620.281 149.179 608.781 149.179 608.781C149.179 608.781 156.476 605.863 159.464 602.201C162.451 598.482 164.635 593.046 164.348 589.27C164.06 585.494 162.164 582.518 159.694 580.745C154.408 576.968 150.615 579.143 138.377 586.81L131.77 581.431L121.083 591.272Z" fill="black"/>
<path d="M4.5603 574.222C7.60551 580.859 16.1091 582.747 22.4868 579.2C25.3022 577.655 27.6579 575.023 29.0369 571.304C32.197 552.995 43.5734 524.73 53.2836 493.547C58.0525 482.104 57.9376 478.785 61.0977 469.23C68.4522 474.551 77.1282 476.783 85.9191 481.131L107.293 508.881C100.8 530.68 105.684 566.727 114.877 606.835C126.886 610.611 136.998 610.096 140.56 594.648C138.32 581.832 137.515 569.53 137.228 557.801C136.596 535.658 137.745 515.69 134.7 498.639C130.391 472.205 122.634 448.117 108.385 428.549C106.546 426.032 104.593 423.514 102.467 421.168L89.1366 401.658H40.2984L29.3816 425.059C25.3022 436.045 22.6592 449.433 26.7386 459.389L29.2667 480.616C14.6152 502.587 7.95025 535.773 4.5603 574.222Z" fill="#30485C"/>
<path d="M28.4049 405.263C30.4734 412.758 26.5089 434.386 26.5089 434.386C43.631 448.518 75.7493 456.357 94.825 445.829C101.203 442.282 106.144 436.732 108.5 428.607C106.948 406.865 101.605 383.864 94.1355 367.042C90.3433 358.46 84.0231 351.88 79.3116 347.474L47.7104 328.536C40.7582 324.702 33.3462 321.784 25.5896 319.953L14.0408 317.207C-1.64494 317.207 -3.59846 341.867 5.24988 362.694C5.24988 362.694 26.3365 397.825 28.4049 405.263Z" fill="#03C12D"/>
<path d="M50.9855 319.896L56.3864 317.035C60.1786 315.032 62.8791 311.428 63.7409 307.251C65.2922 299.755 66.6712 287.568 62.0172 279.215C54.7776 266.284 46.2166 263.995 33.4037 269.831C20.476 275.667 16.3391 286.024 21.5676 300.27C26.8537 314.517 30.3585 312.229 30.3585 312.229L50.9855 319.896Z" fill="#FDD3BD"/>
<path d="M63.7409 283.449L57.7654 293.347L56.214 301.243L54.2605 304.676L53.6285 309.482C53.1114 313.316 49.9512 316.177 46.1016 316.348C41.4476 316.577 34.8401 315.833 28.1177 311.714C28.1177 311.714 22.5444 308.739 19.3268 295.579C16.1092 282.419 23.1189 274.123 26.5663 271.834C30.0137 269.545 48.285 258.846 59.2018 266.742C71.3251 275.61 63.7409 283.449 63.7409 283.449Z" fill="black"/>
<path d="M54.0882 295.865C53.3987 295.979 52.7667 296.437 52.4219 297.009C52.0197 297.582 51.8474 298.325 51.675 299.012C51.1579 301.644 51.2728 304.447 52.0197 307.079C52.1921 307.766 52.4794 308.453 52.939 308.968C53.3987 309.482 54.0882 309.883 54.7776 309.826C55.4671 309.769 56.0417 309.311 56.3864 308.681C56.7312 308.109 56.9036 307.423 57.0185 306.736C57.5356 304.505 58.972 295.236 54.0882 295.865Z" fill="#FDD3BD"/>
<path d="M94.825 445.829C113.154 457.157 124.128 479.071 129.586 508.881C129.586 508.881 131.367 547.216 137.343 557.801C136.711 535.715 137.86 515.69 134.815 498.639C130.506 472.205 122.749 448.117 108.5 428.549C106.086 436.731 101.203 442.281 94.825 445.829Z" fill="#30485C"/>
<path opacity="0.2" d="M72.6467 370.475C87.0109 386.152 94.6527 410.87 94.825 445.829C101.203 442.281 106.144 436.731 108.5 428.607C106.948 406.865 101.605 383.864 94.1355 367.042L72.6467 370.475Z" fill="#1E094C"/>
<path d="M22.5442 579.2C25.3596 577.655 27.7153 575.023 29.0943 571.304C32.2544 552.995 43.6308 524.73 53.341 493.547C58.1099 482.104 57.995 478.785 61.1551 469.23L48.1124 463.795C49.7787 475.581 48.9743 483.248 45.4694 493.776C33.6333 521.926 26.2214 550.42 22.5442 579.2Z" fill="#30485C"/>
<path d="M567.981 191.789L566.143 197.625L563.902 201.515L560.11 204.948C557.065 207.809 554.996 204.662 557.065 202.431L560.34 198.998L560.569 195.565L557.697 191.903L560.282 186.754L567.981 191.789Z" fill="#FDD3BD"/>
<path d="M500.067 151.508C499.953 151.623 492.196 155.056 492.196 155.056L488.346 158.431L487.484 165.011C487.484 166.613 490.53 167.529 491.219 164.725L492.138 161.407L496.275 160.091L502.136 160.777L504.377 158.26L500.067 151.508Z" fill="#FDD3BD"/>
<path d="M161.188 413.101L171.128 418.479L181.642 420.825L188.537 416.877L185.262 414.131L185.492 409.897L192.501 406.521C194.34 405.835 194.053 403.832 191.18 403.832L184.285 404.633L174.288 405.205L161.302 406.464V413.101H161.188Z" fill="#FDD3BD"/>
<path d="M80.6905 353.253L127.345 394.563L174.345 404.175C177.907 410.069 174.345 415.847 169.461 421.226C149.351 424.888 127.116 421.455 113.901 414.589C93.963 407.208 79.7138 396.394 60.2934 380.717C46.2739 371.219 65.2347 343.927 80.6905 353.253Z" fill="#03C12D"/>
</g>
<defs>
<clipPath id="clip0_545_441">
<rect width="629" height="624" fill="white"/>
</clipPath>
</defs>
</svg>
