<svg width="856" height="891" viewBox="0 0 856 891" fill="none" xmlns="http://www.w3.org/2000/svg">
<circle cx="122.781" cy="165.358" r="4.95084" fill="#FF9900"/>
<g filter="url(#filter0_f_82_79)">
<circle cx="477.633" cy="452.633" r="137.633" fill="#4B4AEF"/>
</g>
<circle cx="3.46559" cy="325.27" r="3.46559" fill="#4B4AEF" fill-opacity="0.2"/>
<circle cx="18.3181" cy="325.27" r="3.46559" fill="#4B4AEF" fill-opacity="0.2"/>
<circle cx="32.1804" cy="324.28" r="3.46559" fill="#4B4AEF" fill-opacity="0.2"/>
<circle cx="46.0429" cy="324.28" r="3.46559" fill="#4B4AEF" fill-opacity="0.2"/>
<circle cx="59.9052" cy="324.28" r="3.46559" fill="#4B4AEF" fill-opacity="0.2"/>
<circle cx="3.46559" cy="311.408" r="3.46559" fill="#4B4AEF" fill-opacity="0.2"/>
<circle cx="18.3181" cy="311.408" r="3.46559" fill="#4B4AEF" fill-opacity="0.2"/>
<circle cx="32.1804" cy="310.418" r="3.46559" fill="#4B4AEF" fill-opacity="0.2"/>
<circle cx="46.0429" cy="310.418" r="3.46559" fill="#4B4AEF" fill-opacity="0.2"/>
<circle cx="59.9052" cy="310.418" r="3.46559" fill="#4B4AEF" fill-opacity="0.2"/>
<g clip-path="url(#clip0_82_79)">
<path opacity="0.4" d="M253.007 604.003C245.176 604.003 237.623 602.175 231.792 598.797L75.905 509.077C68.2412 504.646 63.8539 497.89 63.8539 490.468C63.8539 483.047 68.2412 476.29 75.905 471.86L411.504 278.685C417.335 275.307 424.888 273.479 432.718 273.479C440.549 273.479 448.102 275.307 453.933 278.685L609.82 368.405C617.484 372.78 621.871 379.592 621.871 387.014C621.871 394.435 617.484 401.192 609.82 405.622L274.221 598.852C268.39 602.175 260.837 604.003 253.007 604.003Z" fill="#6E84FE"/>
<path opacity="0.4" d="M502.637 334.566L573.556 375.383C586.162 382.638 606.655 382.638 619.261 375.383C631.868 368.128 631.868 356.332 619.261 349.076L548.343 308.259C535.736 301.004 515.244 301.004 502.637 308.259C490.031 315.515 490.031 327.311 502.637 334.566Z" fill="#6E84FE"/>
<path d="M556.006 305.49C558.006 308.093 558.006 314.13 557.506 320.942C555.673 327.865 549.12 327.311 543.511 328.197C532.737 329.859 527.35 338 512.967 337.944C504.414 337.944 498.75 336.117 496.917 330.689C496.639 328.197 498.083 325.705 501.138 323.102C501.138 323.102 520.686 314.351 521.186 314.019C521.686 313.687 530.46 307.318 530.627 306.598C530.794 305.933 534.015 290.98 534.015 290.98H555.118L556.006 305.49Z" fill="black"/>
<path d="M528.905 308.37C539.79 314.905 555.729 320.61 557.395 312.579C557.95 310.142 558.45 307.761 558.95 305.379C563.615 282.451 565.781 260.52 561.56 241.246L572.278 204.86L575.222 194.78C575.444 171.353 568.724 161.108 550.897 164.652C550.175 164.763 546.954 161.108 546.232 161.274C545.177 161.551 543.789 159.502 542.734 159.778L539.901 181.322L530.905 236.483C528.239 257.806 532.571 289.817 528.905 308.37Z" fill="#36118A"/>
<path d="M619.927 338.111C621.871 344.314 622.26 346.141 621.427 350.738C620.483 353.175 619.594 354.282 618.539 357.661C617.373 361.814 617.539 368.737 611.32 372.891C603.933 378.706 589.661 378.983 585.162 372.78C585.162 369.734 587.162 363.088 590.938 357.661L598.213 344.203L597.769 331.576L618.595 327.034L619.927 338.111Z" fill="black"/>
<path d="M541.901 154.074C541.956 156.012 542.234 157.895 542.678 159.778C547.121 177.833 568.669 192.565 571.001 196.165C571.334 196.663 572.834 205.912 573.111 206.411C573.556 209.18 574.055 212.004 574.555 214.829C577.887 233.216 582.219 252.932 587.217 273.645C593.104 298.346 595.659 321.717 596.214 344.313C605.377 348.522 616.54 346.639 620.705 340.381C621.205 339.661 621.594 338.886 621.871 338.055C621.816 327.975 621.76 317.785 621.482 308.204C620.983 288.321 619.594 271.153 615.151 263.565L616.151 195.168C619.927 176.725 619.927 160.221 614.374 146.763H568.835C568.835 146.653 541.901 154.074 541.901 154.074Z" fill="#36118A"/>
<path opacity="0.5" d="M551.453 163.434C551.508 165.372 558.117 177.501 558.117 177.501C564.115 179.716 570.112 182.43 579.387 182.928C592.771 183.648 603.322 194.559 603.822 207.906L605.821 263.288C616.318 279.072 618.706 309.311 620.649 340.326C621.205 339.55 621.593 338.775 621.871 337.944C621.816 327.865 621.76 317.674 621.482 308.093C620.983 288.211 619.594 271.042 615.151 263.455L616.151 195.057C619.927 176.615 619.927 160.111 614.374 146.653H568.835C568.835 146.653 551.453 163.434 551.453 163.434Z" fill="#36118A"/>
<path d="M517.798 152.8C518.409 151.859 519.131 150.751 519.964 149.588C525.518 141.28 534.681 127.878 539.402 118.02L542.678 105.282L544.788 97.0851L542.4 81.6334L535.57 64.1325L531.349 41.8687C524.907 54.219 521.63 78.532 520.742 100.796L504.414 143.551C500.471 151.859 514.966 158.504 517.798 152.8Z" fill="#07EF99"/>
<path opacity="0.3" d="M519.964 149.532C525.518 141.225 534.681 127.822 539.401 117.964L542.678 105.226L528.905 70.8892L529.128 117.244L519.964 149.532Z" fill="#14708F"/>
<path d="M528.905 67.0125C528.905 67.0125 530.238 94.3715 536.014 123.447C536.458 125.607 542.234 152.523 541.956 154.074C542.789 155.126 543.622 156.178 544.566 157.175C546.732 159.557 549.065 161.661 551.453 163.434C575.222 181.156 609.542 171.464 615.929 148.757C616.04 148.259 616.207 147.705 616.318 147.151C616.929 133.804 613.985 103.399 612.597 89.3317C612.486 88.5563 612.43 87.7256 612.375 87.061C611.597 79.0859 610.32 72.3292 608.21 67.8432C596.103 49.1239 575.888 42.6995 564.281 38.1027L535.57 34.0598C528.794 41.5919 529.905 53.4991 528.905 67.0125Z" fill="#07EF99"/>
<path d="M549.453 63.9112C550.731 65.0743 551.175 65.5173 552.563 65.6281C567.613 66.9019 574.889 47.7395 569.446 38.3245C565.003 30.3494 563.948 27.0818 563.948 27.0818L542.567 42.1459C542.567 42.1459 542.067 44.4166 543.122 47.5734C545.011 53.0009 545.621 60.4775 549.453 63.9112Z" fill="#FDD3BD"/>
<path opacity="0.5" d="M551.119 65.1848C558.061 66.7355 567.725 60.3665 563.06 37.9365L544.344 47.6285C546.177 53.056 545.344 62.028 551.119 65.1848Z" fill="#F2A9A2"/>
<path d="M563.726 31.8998C563.726 31.8998 565.17 43.0871 562.338 49.29C559.505 55.4928 553.063 60.5326 550.342 61.8064C547.621 63.0249 545.344 63.6341 542.678 62.2495C540.068 60.8649 531.293 41.8687 531.293 41.8687C528.406 34.3367 527.628 32.0106 526.906 27.5246C525.795 20.8787 524.907 5.48232 543.844 0.885566C553.008 -1.32974 560.838 2.87934 564.948 10.0791C568.224 15.7835 567.613 28.4661 567.613 28.4661L563.726 31.8998Z" fill="#FDD3BD"/>
<path d="M568.335 29.5739L561.56 37.4382L558.894 32.6199C557.95 30.1831 555.173 29.02 552.785 30.1831C548.787 32.0661 542.456 34.3368 535.236 33.7276C528.406 33.1737 525.906 29.74 525.906 29.74C518.687 19.7711 529.961 5.53779 541.123 1.60563C554.674 -3.15728 563.615 3.65478 566.725 11.5745C569.557 18.7189 568.335 29.5739 568.335 29.5739Z" fill="black"/>
<path d="M563.726 23.4264C564.67 22.3741 566.336 21.8203 567.558 22.5403C568.224 22.9834 568.668 23.7033 568.835 24.4787C569.002 25.254 568.946 26.0848 568.891 26.8601C568.779 28.2447 568.613 29.6293 568.335 30.9585C568.113 32.0661 567.78 33.2291 566.891 33.8937C565.947 34.5583 564.948 35.7767 564.059 35.0568C563.17 34.3368 562.226 31.9 562.004 30.7369C561.56 28.3555 562.004 25.3094 563.726 23.4264Z" fill="#FDD3BD"/>
<path opacity="0.3" d="M551.453 163.434C575.222 181.156 609.542 171.464 615.929 148.757C616.04 148.259 616.207 147.705 616.318 147.151C616.929 133.804 613.985 103.399 612.597 89.3318L592.937 86.0088C587.606 85.1227 582.552 88.5564 581.497 93.7624C578.831 106.777 578.831 134.136 578.831 134.136C571.501 146.154 560.449 160.609 551.453 163.434Z" fill="#14708F"/>
<path d="M611.708 130.813C610.042 140.395 610.32 144.161 604.433 152.025C594.492 166.369 588.439 175.064 574.222 185.808C566.225 190.294 554.229 179.661 557.95 175.673C561.838 166.369 570.446 153.797 585.607 135.244L582.33 92.5439C584.496 75.043 584.329 55.8806 601.268 60.3112C617.873 69.4494 614.818 112.869 611.708 130.813Z" fill="#07EF99"/>
<path d="M558.006 175.673C561.893 169.249 571.778 179.772 570.39 183.87L567.28 193.784L566.891 195.002C560.394 192.011 554.007 189.519 548.065 185.975L548.676 184.368L558.006 175.673Z" fill="#FDD3BD"/>
<path d="M501.138 149.145L504.192 146.653C508.913 145.656 512.189 149.034 514.133 152.745L515.244 157.175L514.244 162.215C507.913 160.277 502.304 157.009 497.084 153.299L501.138 149.145Z" fill="#FDD3BD"/>
<path d="M104.006 472.525L418.557 291.423C427.221 286.439 441.215 286.439 449.823 291.423L598.213 376.879L612.153 374.165V390.171C612.153 393.438 609.987 396.706 605.655 399.198L270.056 592.428C261.393 597.413 247.398 597.413 238.79 592.428L82.9025 502.708C78.6819 500.271 76.516 497.115 76.4604 493.902V477.897L104.006 472.525Z" fill="black"/>
<path d="M605.767 365.747L449.879 276.027C441.216 271.042 427.221 271.042 418.613 276.027L83.014 469.257C74.3505 474.241 74.3505 482.272 83.014 487.256L238.901 576.976C247.565 581.961 261.56 581.961 270.168 576.976L605.767 383.746C614.374 378.817 614.374 370.731 605.767 365.747Z" fill="#CCCCCC"/>
<path d="M254.506 577.862C259.893 577.862 264.947 576.699 268.723 574.539L604.322 381.309C607.543 379.482 609.376 377.1 609.376 374.774C609.376 372.503 607.543 370.122 604.322 368.239L448.435 278.519C444.714 276.359 439.66 275.196 434.218 275.196C428.775 275.196 423.777 276.359 420.001 278.519L84.4574 471.749C81.2363 473.577 79.4037 475.958 79.4037 478.284C79.4037 480.555 81.2363 482.936 84.4574 484.819L240.345 574.539C244.065 576.644 249.119 577.862 254.506 577.862Z" fill="#475066"/>
<path d="M601.49 377.156L258.782 574.484L106.005 486.536L448.713 289.208L601.49 377.156Z" fill="#464854"/>
<path d="M419.001 283.448L432.052 290.925L380.682 320.499L367.631 312.967L419.001 283.448Z" fill="#C8C9E0"/>
<path d="M380.682 327.754L367.631 320.222V312.967L380.682 320.499V327.754Z" fill="#303845"/>
<path d="M380.682 327.754V320.499L432.052 290.925V298.18L380.682 327.754Z" fill="#A5A7C7"/>
<path d="M135.716 439.572L148.767 447.104L97.3971 476.678L84.3463 469.146L135.716 439.572Z" fill="#C8C9E0"/>
<path d="M97.3971 483.878L84.3463 476.401V469.146L97.3971 476.678V483.878Z" fill="#303845"/>
<path d="M97.3971 483.878V476.678L148.767 447.104V454.359L97.3971 483.878Z" fill="#A5A7C7"/>
<path d="M426.276 351.79L452.322 366.799L479.201 351.292L453.155 336.338L426.276 351.79Z" fill="#475066"/>
<path d="M426.276 354.338L452.322 369.291V366.799L426.276 351.79V354.338Z" fill="#303845"/>
<path d="M452.323 366.799V369.291L479.202 353.839V351.292L452.323 366.799Z" fill="#2E2520"/>
<path d="M344.362 518.824L350.637 522.424L353.747 520.596L347.527 516.997L344.362 518.824Z" fill="#E3D1BC"/>
<path d="M350.637 522.424V526.578L353.747 524.75V520.596L350.637 522.424Z" fill="#A5A7C7"/>
<path d="M353.803 513.397L360.023 516.941L363.188 515.169L356.913 511.569L353.803 513.397Z" fill="#E3D1BC"/>
<path d="M360.023 516.941V521.15L363.188 519.323V515.169L360.023 516.941Z" fill="#A5A7C7"/>
<path d="M363.244 507.969L369.464 511.514L372.574 509.741L366.354 506.142L363.244 507.969Z" fill="#E3D1BC"/>
<path d="M369.464 511.514V515.667L372.574 513.895V509.741L369.464 511.514Z" fill="#A5A7C7"/>
<path d="M372.629 502.542L378.905 506.086L382.015 504.314L375.795 500.714L372.629 502.542Z" fill="#E3D1BC"/>
<path d="M378.905 506.086V510.24L382.015 508.467V504.314L378.905 506.086Z" fill="#A5A7C7"/>
<path d="M382.07 497.059L388.29 500.658L391.4 498.886L385.18 495.286L382.07 497.059Z" fill="#E3D1BC"/>
<path d="M388.29 500.658V504.812L391.4 503.04V498.886L388.29 500.658Z" fill="#A5A7C7"/>
<path d="M391.511 491.631L397.731 495.231L400.841 493.459L394.621 489.859L391.511 491.631Z" fill="#E3D1BC"/>
<path d="M397.731 495.231V499.385L400.841 497.612V493.459L397.731 495.231Z" fill="#A5A7C7"/>
<path d="M400.897 486.204L407.117 489.804L410.282 487.976L404.062 484.432L400.897 486.204Z" fill="#E3D1BC"/>
<path d="M407.117 489.804V493.957L410.282 492.185V487.976L407.117 489.804Z" fill="#A5A7C7"/>
<path d="M410.338 480.776L416.558 484.376L419.668 482.548L413.448 479.004L410.338 480.776Z" fill="#E3D1BC"/>
<path d="M416.558 484.376V488.53L419.668 486.757V482.548L416.558 484.376Z" fill="#A5A7C7"/>
<path d="M419.723 475.349L425.999 478.949L429.109 477.121L422.889 473.576L419.723 475.349Z" fill="#E3D1BC"/>
<path d="M425.999 478.948V483.102L429.109 481.275V477.121L425.999 478.948Z" fill="#A5A7C7"/>
<path d="M429.164 469.921L435.384 473.521L438.55 471.693L432.274 468.094L429.164 469.921Z" fill="#E3D1BC"/>
<path d="M435.384 473.521V477.675L438.55 475.847V471.693L435.384 473.521Z" fill="#A5A7C7"/>
<path d="M438.605 464.494L444.825 468.093L447.935 466.266L441.715 462.666L438.605 464.494Z" fill="#E3D1BC"/>
<path d="M444.825 468.094V472.247L447.935 470.42V466.266L444.825 468.094Z" fill="#A5A7C7"/>
<path d="M447.991 459.066L454.266 462.666L457.376 460.838L451.156 457.239L447.991 459.066Z" fill="#E3D1BC"/>
<path d="M454.266 462.666V466.82L457.376 464.992V460.839L454.266 462.666Z" fill="#A5A7C7"/>
<path d="M457.432 453.638L463.651 457.183L466.761 455.411L460.541 451.811L457.432 453.638Z" fill="#E3D1BC"/>
<path d="M463.651 457.183V461.392L466.761 459.565V455.411L463.651 457.183Z" fill="#A5A7C7"/>
<path d="M466.872 448.211L473.092 451.756L476.202 449.983L469.982 446.384L466.872 448.211Z" fill="#E3D1BC"/>
<path d="M473.093 451.756V455.91L476.203 454.137V449.984L473.093 451.756Z" fill="#A5A7C7"/>
<path d="M476.258 442.784L482.478 446.328L485.643 444.556L479.423 440.956L476.258 442.784Z" fill="#E3D1BC"/>
<path d="M482.478 446.328V450.482L485.643 448.71V444.556L482.478 446.328Z" fill="#A5A7C7"/>
<path d="M485.699 437.301L491.919 440.901L495.029 439.129L488.809 435.529L485.699 437.301Z" fill="#E3D1BC"/>
<path d="M491.919 440.901V445.055L495.029 443.282V439.129L491.919 440.901Z" fill="#A5A7C7"/>
<path d="M495.084 431.873L501.36 435.473L504.47 433.701L498.25 430.101L495.084 431.873Z" fill="#E3D1BC"/>
<path d="M501.36 435.473V439.627L504.47 437.855V433.701L501.36 435.473Z" fill="#A5A7C7"/>
<path d="M504.525 426.446L510.745 430.046L513.911 428.218L507.635 424.674L504.525 426.446Z" fill="#E3D1BC"/>
<path d="M510.745 430.046V434.199L513.911 432.427V428.218L510.745 430.046Z" fill="#A5A7C7"/>
<path d="M513.966 421.018L520.186 424.618L523.296 422.791L517.076 419.246L513.966 421.018Z" fill="#E3D1BC"/>
<path d="M520.186 424.618V428.772L523.296 427V422.791L520.186 424.618Z" fill="#A5A7C7"/>
<path d="M523.352 415.591L529.627 419.191L532.737 417.363L526.517 413.819L523.352 415.591Z" fill="#E3D1BC"/>
<path d="M529.627 419.191V423.344L532.737 421.517V417.363L529.627 419.191Z" fill="#A5A7C7"/>
<path d="M532.793 410.163L539.013 413.763L542.123 411.936L535.903 408.336L532.793 410.163Z" fill="#E3D1BC"/>
<path d="M539.013 413.763V417.917L542.123 416.089V411.936L539.013 413.763Z" fill="#A5A7C7"/>
<path d="M542.234 404.736L548.454 408.336L551.564 406.508L545.344 402.908L542.234 404.736Z" fill="#E3D1BC"/>
<path d="M548.454 408.336V412.489L551.564 410.662V406.508L548.454 408.336Z" fill="#A5A7C7"/>
<path d="M551.619 399.308L557.839 402.908L561.005 401.081L554.785 397.481L551.619 399.308Z" fill="#E3D1BC"/>
<path d="M557.839 402.908V407.062L561.005 405.234V401.081L557.839 402.908Z" fill="#A5A7C7"/>
<path d="M209.023 529.07L230.071 541.254L215.076 549.894L193.973 537.765L209.023 529.07Z" fill="#C8C9E0"/>
<path d="M215.076 555.931L193.973 543.802V537.765L215.076 549.894V555.931Z" fill="#464854"/>
<path d="M215.076 555.931V549.894L230.071 541.254V547.291L215.076 555.931Z" fill="#A5A7C7"/>
<path d="M543.456 335.563L564.559 347.692L549.509 356.331L528.461 344.203L543.456 335.563Z" fill="#C8C9E0"/>
<path d="M549.509 362.424L528.461 350.295V344.203L549.509 356.331V362.424Z" fill="#303845"/>
<path d="M549.509 362.423V356.331L564.559 347.692V353.784L549.509 362.423Z" fill="#A5A7C7"/>
<path d="M511.689 317.065L532.737 329.194L517.743 337.889L496.639 325.705L511.689 317.065Z" fill="#C8C9E0"/>
<path d="M517.743 343.926L496.639 331.797V325.705L517.743 337.889V343.926Z" fill="#303845"/>
<path d="M517.743 343.926V337.889L532.737 329.194V335.286L517.743 343.926Z" fill="#A5A7C7"/>
<path d="M172.148 508.246L193.251 520.375L178.201 529.015L157.153 516.886L172.148 508.246Z" fill="#C8C9E0"/>
<path d="M178.201 535.051L157.153 522.922V516.886L178.201 529.015V535.051Z" fill="#464854"/>
<path d="M178.201 535.051V529.015L193.251 520.375V526.412L178.201 535.051Z" fill="#A5A7C7"/>
<path d="M121.055 478.672L142.103 490.801L127.108 499.496L106.005 487.367L121.055 478.672Z" fill="#C8C9E0"/>
<path d="M127.108 505.532L106.005 493.404V487.367L127.108 499.496V505.532Z" fill="#464854"/>
<path d="M127.108 505.532V499.496L142.103 490.801V496.893L127.108 505.532Z" fill="#A5A7C7"/>
<path d="M442.215 349.132C442.715 348.633 443.326 348.19 444.048 347.747C448.824 344.978 456.599 344.978 461.43 347.747C462.152 348.19 462.763 348.633 463.263 349.132H465.04V352.787C465.04 354.615 463.818 356.387 461.43 357.771C456.654 360.541 448.879 360.541 444.048 357.771C441.66 356.387 440.438 354.559 440.438 352.787V349.132H442.215Z" fill="#464854"/>
<path d="M452.711 356.221C459.489 356.221 464.984 353.047 464.984 349.132C464.984 345.217 459.489 342.043 452.711 342.043C445.933 342.043 440.438 345.217 440.438 349.132C440.438 353.047 445.933 356.221 452.711 356.221Z" fill="#A5A7C7"/>
<path d="M448.213 346.584C445.714 348.024 445.714 350.35 448.213 351.734C450.712 353.119 454.71 353.174 457.209 351.734C459.709 350.294 459.709 347.968 457.209 346.584C454.766 345.144 450.712 345.144 448.213 346.584Z" fill="#1A1A1A"/>
<path d="M232.514 529.402L268.223 550.005L305.099 528.738L269.39 508.191L232.514 529.402Z" fill="#A5A7C7"/>
<path d="M191.641 505.865L227.35 526.412L264.225 505.2L228.516 484.653L191.641 505.865Z" fill="#A5A7C7"/>
<path d="M485.866 348.356L514.244 364.528L526.628 371.673L557.728 389.561C561.393 391.666 561.393 396.927 557.728 399.087L341.53 523.532C337.42 525.913 332.366 525.913 328.312 523.532L283.218 497.557V491.576L474.092 387.844L445.714 371.673V365.691L485.866 348.356Z" fill="#A5A7C7"/>
<path d="M485.908 342.648L514.286 358.82L526.671 365.964L557.771 383.853C561.436 385.957 561.436 391.219 557.771 393.379L341.572 517.823C337.463 520.205 332.409 520.205 328.355 517.823L283.26 491.849L474.135 382.136L445.756 365.964L485.908 342.648Z" fill="white"/>
<path d="M345.695 461.226L370.019 475.238L395.121 460.783L370.797 446.771L345.695 461.226Z" fill="#4D4D4D"/>
<path d="M460.319 362.922L484.644 376.934L509.746 362.423L485.421 348.467L460.319 362.922Z" fill="#4D4D4D"/>
<path d="M517.243 368.017L541.567 382.029L525.684 391.167L501.36 377.155L517.243 368.017Z" fill="#4D4D4D"/>
<path d="M420.612 454.746L396.343 440.735C396.01 440.568 395.787 440.181 395.787 439.793C395.787 439.405 396.01 439.073 396.343 438.852L480.312 389.395C480.645 389.173 481.089 389.173 481.423 389.395L505.747 403.407C506.08 403.628 506.302 403.961 506.302 404.348C506.302 404.736 506.08 405.068 505.747 405.29L421.722 454.802C421.556 454.913 421.389 454.968 421.167 454.968C420.945 454.913 420.778 454.857 420.612 454.746ZM480.812 391.555L399.009 439.793L421.112 452.586L502.97 404.293L480.812 391.555Z" fill="#4D4D4D"/>
<path d="M435.884 319.945L475.48 309.921V314.407L415.391 348.966L380.46 328.917V324.431L415.947 308.481L435.884 319.945Z" fill="#303845"/>
<path d="M435.884 315.515L460.486 301.337L475.48 309.921L415.391 344.535L380.46 324.431L415.947 304.051L435.884 315.515Z" fill="#C8C9E0"/>
<path d="M461.43 309.478C462.78 309.478 463.874 308.833 463.874 308.038C463.874 307.242 462.78 306.598 461.43 306.598C460.081 306.598 458.987 307.242 458.987 308.038C458.987 308.833 460.081 309.478 461.43 309.478Z" fill="#1A1A1A"/>
<path d="M416.391 340.381C417.741 340.381 418.835 339.737 418.835 338.941C418.835 338.146 417.741 337.501 416.391 337.501C415.042 337.501 413.948 338.146 413.948 338.941C413.948 339.737 415.042 340.381 416.391 340.381Z" fill="#1A1A1A"/>
<path d="M387.902 325.76C389.251 325.76 390.345 325.116 390.345 324.32C390.345 323.525 389.251 322.88 387.902 322.88C386.552 322.88 385.458 323.525 385.458 324.32C385.458 325.116 386.552 325.76 387.902 325.76Z" fill="#1A1A1A"/>
<path d="M488.698 303.441L499.638 309.755L484.644 318.394L473.703 312.136L488.698 303.441Z" fill="#C8C9E0"/>
<path d="M484.644 324.487L473.703 318.173V312.136L484.644 318.395V324.487Z" fill="#303845"/>
<path d="M484.644 324.487V318.395L499.638 309.755V315.792L484.644 324.487Z" fill="#A5A7C7"/>
<path d="M460.764 384.632L282.329 487.367L243.51 509.686L146.657 453.971V442.396L363.91 328.862L460.764 373.057V384.632Z" fill="#1A1A1A"/>
<path d="M460.764 373.057L243.51 498.166L146.657 442.396L363.91 317.287L460.764 373.057Z" fill="#4D4D4D"/>
<path d="M365.077 336.117L430.219 373.611L434.607 371.119L369.464 333.569L365.077 336.117Z" fill="white"/>
<path d="M422.833 376.491L418.446 378.983L373.351 353.009L377.85 350.572L422.833 376.491Z" fill="white"/>
<path d="M362.467 364.639L402.785 387.844L405.451 386.294L365.132 363.088L362.467 364.639Z" fill="white"/>
<path d="M191.64 434.144L250.896 468.26L254.839 465.934L195.639 431.874L191.64 434.144Z" fill="white"/>
<path d="M193.973 444.058L235.957 468.26L238.79 466.599L196.805 442.452L193.973 444.058Z" fill="white"/>
<path d="M193.251 451.202L223.684 468.758L225.739 467.595L195.306 450.039L193.251 451.202Z" fill="white"/>
<path d="M354.525 369.014L394.844 392.22L397.565 390.669L357.246 367.408L354.525 369.014Z" fill="white"/>
<path d="M364.188 383.58L387.069 396.761L389.79 395.21L366.854 381.974L364.188 383.58Z" fill="white"/>
<path d="M262.059 555.321L246.676 564.182L257.672 570.496L273.055 561.635L262.059 555.321Z" fill="#C8C9E0"/>
<path d="M582.608 371.396L567.225 380.257L578.165 386.571L593.548 377.709L582.608 371.396Z" fill="#C8C9E0"/>
<path d="M564.892 360.43L549.509 369.291L560.505 375.605L575.888 366.744L564.892 360.43Z" fill="#C8C9E0"/>
<path d="M477.702 327.256L462.319 336.117L473.259 342.43L488.642 333.569L477.702 327.256Z" fill="#C8C9E0"/>
<path d="M448.379 290.925L437.272 297.349L445.214 301.89L456.321 295.521L448.379 290.925Z" fill="#C8C9E0"/>
<path d="M245.454 545.574L230.071 554.435L241.067 560.749L256.45 551.888L245.454 545.574Z" fill="#C8C9E0"/>
<path d="M162.04 497.945L146.657 506.806L157.597 513.12L173.036 504.258L162.04 497.945Z" fill="#C8C9E0"/>
<path d="M594.992 206.743L439.105 117.023C430.442 112.039 416.447 112.039 407.839 117.023L72.2398 310.253C63.5763 315.237 63.5763 323.268 72.2398 328.252L228.127 417.972C236.791 422.957 250.785 422.957 259.393 417.972L594.992 224.742C603.656 219.813 603.656 211.727 594.992 206.743Z" fill="#717D79"/>
<path d="M406.284 212.447C406.284 213.112 406.395 213.721 406.617 214.33C407.228 216.047 408.672 217.653 411.004 219.038C417.335 222.693 427.554 222.693 433.94 219.038L466.595 200.263C468.927 198.934 470.371 197.328 470.982 195.556C471.26 194.891 471.315 194.282 471.315 193.617C471.315 191.236 469.705 188.854 466.539 187.027C460.208 183.372 449.934 183.372 443.603 187.027L410.949 205.802C407.839 207.685 406.284 210.066 406.284 212.447Z" fill="#4D4D4D"/>
<path d="M406.617 214.386C407.228 216.103 408.672 217.709 411.004 219.093C417.335 222.749 427.554 222.749 433.94 219.093L466.595 200.319C468.927 198.989 470.371 197.383 470.982 195.611C470.371 193.894 468.927 192.233 466.595 190.904C460.264 187.248 449.99 187.248 443.659 190.904L411.004 209.678C408.672 211.007 407.228 212.669 406.617 214.386Z" fill="#333333"/>
<path d="M440.715 195.057C441.271 194.503 441.937 194.005 442.77 193.562C448.046 190.516 456.654 190.516 461.985 193.562C462.818 194.005 463.485 194.559 464.04 195.057H465.984V199.045C465.984 201.039 464.651 203.032 461.985 204.583C456.71 207.629 448.102 207.629 442.77 204.583C440.105 203.032 438.772 201.039 438.772 199.045V195.057H440.715Z" fill="#464854"/>
<path d="M442.77 189.519C437.494 192.565 437.494 197.494 442.77 200.595C448.046 203.697 456.654 203.641 461.985 200.595C467.316 197.549 467.261 192.62 461.985 189.519C456.654 186.473 448.046 186.473 442.77 189.519Z" fill="#A5A7C7"/>
<path d="M452.378 200.54C457.684 200.54 461.985 198.061 461.985 195.002C461.985 191.943 457.684 189.464 452.378 189.464C447.072 189.464 442.77 191.943 442.77 195.002C442.77 198.061 447.072 200.54 452.378 200.54Z" fill="#1A1A1A"/>
<path d="M420.945 208.571C421.334 208.183 421.833 207.851 422.389 207.518C426.11 205.358 432.219 205.358 435.939 207.518C436.495 207.851 436.995 208.183 437.383 208.571H438.772V211.395C438.772 212.835 437.828 214.22 435.939 215.327C432.219 217.487 426.11 217.487 422.389 215.327C420.501 214.275 419.557 212.835 419.557 211.395V208.571H420.945Z" fill="#464854"/>
<path d="M429.22 214.109C434.526 214.109 438.827 211.629 438.827 208.571C438.827 205.512 434.526 203.032 429.22 203.032C423.914 203.032 419.612 205.512 419.612 208.571C419.612 211.629 423.914 214.109 429.22 214.109Z" fill="#A5A7C7"/>
<path d="M429.22 212.503C432.962 212.503 435.995 210.743 435.995 208.571C435.995 206.399 432.962 204.639 429.22 204.639C425.478 204.639 422.444 206.399 422.444 208.571C422.444 210.743 425.478 212.503 429.22 212.503Z" fill="#1A1A1A"/>
<path d="M75.1276 327.921L71.1291 295.632L49.5814 287.823L46.527 314.739L75.1276 327.921Z" fill="#FDD3BD"/>
<path d="M46.3603 539.925C46.3603 539.925 53.9131 543.137 55.1904 546.073C56.4677 548.952 54.0797 554.103 54.0797 554.103C54.0797 554.103 51.0808 560.306 48.6928 562.466C46.3603 564.626 41.4177 566.232 41.4177 566.232C41.4177 566.232 38.03 575.37 33.3651 576.588C28.7001 577.807 24.2573 576.09 22.0359 571.881C19.759 567.672 25.2014 555.82 25.2014 555.82L46.3603 539.925Z" fill="black"/>
<path d="M137.827 572.324V588.883C137.827 588.883 135.827 597.523 139.104 600.957C142.381 604.391 146.379 603.394 150.933 601.898C155.487 600.403 164.983 589.271 164.983 589.271C164.983 589.271 172.036 586.447 174.924 582.902C177.812 579.302 179.922 574.041 179.645 570.386C179.367 566.73 177.534 563.85 175.146 562.134C170.037 558.478 166.372 560.583 154.543 568.004L148.156 562.798L137.827 572.324Z" fill="black"/>
<path d="M25.2014 555.82C28.1448 562.244 36.364 564.072 42.5284 560.638C45.2496 559.143 47.5266 556.595 48.8594 552.995C51.9138 535.273 62.9098 507.914 72.2952 477.73C76.9047 466.654 76.7936 463.442 79.848 454.193C86.9565 459.343 95.3423 461.503 103.839 465.712L124.498 492.573C118.223 513.674 122.943 548.565 131.829 587.388C143.436 591.043 153.21 590.545 156.653 575.591C154.487 563.186 153.71 551.278 153.432 539.925C152.821 518.492 153.932 499.163 150.989 482.659C146.823 457.073 139.326 433.757 125.553 414.816C123.776 412.379 121.888 409.942 119.833 407.671L106.949 388.786H59.7443L49.1926 411.437C45.2496 422.071 42.695 435.03 46.638 444.667L49.0815 465.214C34.9201 486.481 28.478 518.603 25.2014 555.82Z" fill="#30485C"/>
<path d="M48.2485 392.275C50.2478 399.53 46.4159 420.465 46.4159 420.465C62.9654 434.144 94.0095 441.732 112.447 431.541C118.612 428.107 123.388 422.735 125.665 414.871C124.165 393.826 119 371.562 111.781 355.279C108.115 346.972 102.007 340.603 97.4527 336.338L66.9084 318.007C60.1886 314.296 53.0246 311.472 45.5273 309.699L34.3648 307.041C19.2037 307.041 17.3155 330.911 25.8679 351.07C25.8679 351.07 46.2493 385.075 48.2485 392.275Z" fill="#07EF99"/>
<path d="M70.0739 309.644L75.2942 306.875C78.9595 304.937 81.5697 301.447 82.4027 297.405C83.9021 290.149 85.235 278.353 80.7366 270.267C73.7392 257.751 65.4645 255.535 53.0801 261.184C40.5847 266.833 36.5862 276.858 41.6399 290.648C46.7491 304.438 50.1368 302.223 50.1368 302.223L70.0739 309.644Z" fill="#FDD3BD"/>
<path d="M82.4026 274.365L76.6269 283.947L75.1275 291.589L73.2393 294.912L72.6284 299.564C72.1286 303.275 69.0742 306.044 65.3533 306.21C60.855 306.432 54.4684 305.712 47.9708 301.724C47.9708 301.724 42.5839 298.844 39.4739 286.106C36.3639 273.368 43.1392 265.338 46.4713 263.123C49.8034 260.907 67.4636 250.551 78.0153 258.194C89.7332 266.778 82.4026 274.365 82.4026 274.365Z" fill="black"/>
<path d="M73.0728 286.383C72.4064 286.494 71.7955 286.937 71.4623 287.491C71.0735 288.045 70.9069 288.765 70.7403 289.429C70.2405 291.977 70.3516 294.691 71.0735 297.238C71.2401 297.903 71.5178 298.568 71.9621 299.066C72.4064 299.564 73.0728 299.952 73.7392 299.897C74.4056 299.841 74.961 299.398 75.2942 298.789C75.6274 298.235 75.794 297.571 75.9051 296.906C76.4049 294.746 77.7933 285.774 73.0728 286.383Z" fill="#FDD3BD"/>
<path d="M112.447 431.541C130.163 442.507 140.77 463.719 146.046 492.573C146.046 492.573 147.767 529.679 153.543 539.925C152.932 518.547 154.043 499.163 151.1 482.659C146.934 457.073 139.437 433.757 125.665 414.816C123.332 422.735 118.612 428.107 112.447 431.541Z" fill="#30485C"/>
<path opacity="0.2" d="M91.0107 358.602C104.895 373.777 112.281 397.703 112.447 431.541C118.612 428.108 123.388 422.736 125.665 414.871C124.165 393.826 119 371.562 111.781 355.28L91.0107 358.602Z" fill="#1E094C"/>
<path d="M42.5839 560.638C45.3051 559.143 47.582 556.595 48.9149 552.995C51.9693 535.273 62.9653 507.914 72.3507 477.73C76.9601 466.654 76.8491 463.442 79.9035 454.193L67.297 448.931C68.9075 460.34 68.13 467.762 64.7424 477.952C53.3021 505.2 46.1381 532.781 42.5839 560.638Z" fill="#30485C"/>
<path d="M569.779 185.642L568.002 191.291L565.836 195.057L562.171 198.38C559.228 201.149 557.228 198.103 559.228 195.943L562.393 192.62L562.615 189.297L559.838 185.753L562.338 180.769L569.779 185.642Z" fill="#FDD3BD"/>
<path d="M504.137 146.653C504.026 146.763 496.528 150.086 496.528 150.086L492.808 153.354L491.974 159.723C491.974 161.274 494.918 162.16 495.584 159.446L496.473 156.234L500.471 154.96L506.136 155.625L508.302 153.188L504.137 146.653Z" fill="#FDD3BD"/>
<path d="M176.59 399.862L186.198 405.068L196.361 407.339L203.025 403.518L199.86 400.859L200.082 396.761L206.857 393.493C208.634 392.829 208.356 390.89 205.58 390.89L198.915 391.666L189.252 392.22L176.701 393.438V399.862H176.59Z" fill="#FDD3BD"/>
<path d="M98.7855 341.932L143.88 381.918L189.308 391.223C192.751 396.927 189.308 402.521 184.587 407.727C165.15 411.271 143.658 407.948 130.885 401.302C111.614 394.158 97.8414 383.691 79.0705 368.516C65.5199 359.322 83.8465 332.905 98.7855 341.932Z" fill="#07EF99"/>
<path d="M349.763 13.0872L344.875 29.3774L333.211 16.9997L349.763 13.0872Z" fill="#FB23FF"/>
<circle cx="68.4656" cy="116.318" r="3.46559" fill="#4B4AEF" fill-opacity="0.2"/>
<circle cx="83.3181" cy="116.318" r="3.46559" fill="#4B4AEF" fill-opacity="0.2"/>
<circle cx="97.1804" cy="115.328" r="3.46559" fill="#4B4AEF" fill-opacity="0.2"/>
<circle cx="111.043" cy="115.328" r="3.46559" fill="#4B4AEF" fill-opacity="0.2"/>
<circle cx="124.905" cy="115.328" r="3.46559" fill="#4B4AEF" fill-opacity="0.2"/>
<circle cx="68.4656" cy="102.456" r="3.46559" fill="#4B4AEF" fill-opacity="0.2"/>
<circle cx="83.3181" cy="102.456" r="3.46559" fill="#4B4AEF" fill-opacity="0.2"/>
<circle cx="97.1804" cy="101.466" r="3.46559" fill="#4B4AEF" fill-opacity="0.2"/>
<circle cx="111.043" cy="101.466" r="3.46559" fill="#4B4AEF" fill-opacity="0.2"/>
<circle cx="124.905" cy="101.466" r="3.46559" fill="#4B4AEF" fill-opacity="0.2"/>
</g>
<circle cx="379.73" cy="103.473" r="3.46559" fill="#4B4AEF" fill-opacity="0.2"/>
<circle cx="394.582" cy="103.473" r="3.46559" fill="#4B4AEF" fill-opacity="0.2"/>
<circle cx="408.445" cy="102.482" r="3.46559" fill="#4B4AEF" fill-opacity="0.2"/>
<circle cx="422.307" cy="102.482" r="3.46559" fill="#4B4AEF" fill-opacity="0.2"/>
<circle cx="436.169" cy="102.482" r="3.46559" fill="#4B4AEF" fill-opacity="0.2"/>
<circle cx="379.73" cy="89.6104" r="3.46559" fill="#4B4AEF" fill-opacity="0.2"/>
<circle cx="394.582" cy="89.6104" r="3.46559" fill="#4B4AEF" fill-opacity="0.2"/>
<circle cx="408.445" cy="88.6201" r="3.46559" fill="#4B4AEF" fill-opacity="0.2"/>
<circle cx="422.307" cy="88.6201" r="3.46559" fill="#4B4AEF" fill-opacity="0.2"/>
<circle cx="436.169" cy="88.6201" r="3.46559" fill="#4B4AEF" fill-opacity="0.2"/>
<defs>
<filter id="filter0_f_82_79" x="40" y="15" width="875.267" height="875.267" filterUnits="userSpaceOnUse" color-interpolation-filters="sRGB">
<feFlood flood-opacity="0" result="BackgroundImageFix"/>
<feBlend mode="normal" in="SourceGraphic" in2="BackgroundImageFix" result="shape"/>
<feGaussianBlur stdDeviation="150" result="effect1_foregroundBlur_82_79"/>
</filter>
<clipPath id="clip0_82_79">
<rect width="607.964" height="604.003" fill="white" transform="translate(20.7936)"/>
</clipPath>
</defs>
</svg>
