<svg width="312" height="309" viewBox="0 0 312 309" fill="none" xmlns="http://www.w3.org/2000/svg">
<g clip-path="url(#clip0_545_690)">
<path opacity="0.4" d="M119.169 309C115.151 309 111.275 308.065 108.282 306.337L28.2826 260.437C24.3496 258.171 22.0981 254.714 22.0981 250.918C22.0981 247.121 24.3496 243.664 28.2826 241.398L200.508 142.572C203.501 140.844 207.377 139.909 211.395 139.909C215.414 139.909 219.29 140.844 222.282 142.572L302.282 188.472C306.215 190.71 308.466 194.195 308.466 197.991C308.466 201.788 306.215 205.245 302.282 207.511L130.056 306.365C127.064 308.065 123.188 309 119.169 309Z" fill="#6E84FE"/>
<path opacity="0.4" d="M247.277 171.16L283.671 192.041C290.141 195.753 300.657 195.753 307.127 192.041C313.596 188.33 313.596 182.295 307.127 178.583L270.732 157.702C264.263 153.99 253.746 153.99 247.277 157.702C240.807 161.413 240.807 167.448 247.277 171.16Z" fill="#6E84FE"/>
<path d="M274.665 156.285C275.691 157.617 275.691 160.705 275.435 164.19C274.494 167.732 271.131 167.448 268.253 167.902C262.724 168.752 259.959 172.917 252.578 172.888C248.189 172.888 245.282 171.953 244.341 169.177C244.199 167.902 244.94 166.627 246.507 165.295C246.507 165.295 256.539 160.818 256.796 160.648C257.052 160.478 261.555 157.22 261.641 156.852C261.726 156.512 263.379 148.862 263.379 148.862H274.209L274.665 156.285Z" fill="black"/>
<path d="M260.757 157.758C266.343 161.102 274.523 164.02 275.378 159.912C275.663 158.665 275.919 157.447 276.176 156.228C278.57 144.498 279.681 133.279 277.515 123.419L283.016 104.804L284.526 99.6472C284.64 87.6623 281.192 82.4207 272.043 84.234C271.673 84.2907 270.02 82.4207 269.649 82.5057C269.108 82.6474 268.395 81.5991 267.854 81.7407L266.4 92.7623L261.783 120.982C260.415 131.89 262.638 148.267 260.757 157.758Z" fill="#36118A"/>
<path d="M307.469 172.973C308.466 176.147 308.666 177.082 308.238 179.433C307.754 180.68 307.298 181.247 306.756 182.975C306.158 185.1 306.243 188.641 303.051 190.766C299.261 193.741 291.936 193.883 289.628 190.71C289.628 189.151 290.654 185.751 292.592 182.975L296.325 176.09L296.097 169.63L306.785 167.307L307.469 172.973Z" fill="black"/>
<path d="M267.426 78.8224C267.455 79.814 267.597 80.7774 267.825 81.7407C270.105 90.9773 281.163 98.5138 282.36 100.355C282.531 100.61 283.301 105.342 283.443 105.597C283.671 107.014 283.928 108.459 284.184 109.904C285.894 119.31 288.117 129.397 290.682 139.993C293.703 152.63 295.014 164.586 295.299 176.146C300.002 178.3 305.73 177.336 307.868 174.135C308.124 173.766 308.324 173.37 308.466 172.945C308.438 167.788 308.409 162.575 308.267 157.673C308.01 147.502 307.298 138.718 305.018 134.837L305.531 99.8455C307.469 90.4106 307.469 81.9673 304.619 75.0824H281.249C281.249 75.0257 267.426 78.8224 267.426 78.8224Z" fill="#36118A"/>
<path opacity="0.5" d="M272.328 83.6108C272.357 84.6024 275.748 90.8074 275.748 90.8074C278.826 91.9407 281.904 93.329 286.664 93.584C293.532 93.9523 298.947 99.534 299.204 106.362L300.23 134.695C305.616 142.77 306.842 158.24 307.839 174.107C308.124 173.71 308.324 173.313 308.466 172.888C308.438 167.732 308.409 162.518 308.267 157.617C308.01 147.445 307.298 138.662 305.018 134.78L305.531 99.789C307.469 90.3541 307.469 81.9108 304.619 75.0259H281.249C281.249 75.0259 272.328 83.6108 272.328 83.6108Z" fill="#36118A"/>
<path d="M255.057 78.1708C255.371 77.6891 255.741 77.1224 256.169 76.5274C259.019 72.2775 263.721 65.4209 266.144 60.3776L267.825 53.861L268.908 49.6677L267.683 41.7628L264.177 32.8096L262.011 21.4197C258.705 27.7379 257.024 40.1762 256.568 51.566L248.189 73.4391C246.165 77.6891 253.604 81.0891 255.057 78.1708Z" fill="#FF9900"/>
<path opacity="0.3" d="M256.169 76.499C259.019 72.2491 263.721 65.3925 266.144 60.3492L267.825 53.8326L260.757 36.2661L260.871 59.9809L256.169 76.499Z" fill="#14708F"/>
<path d="M260.757 34.283C260.757 34.283 261.441 48.2795 264.405 63.1543C264.633 64.2593 267.597 78.0292 267.455 78.8225C267.882 79.3608 268.31 79.8992 268.794 80.4091C269.906 81.6275 271.103 82.7041 272.328 83.6108C284.526 92.6774 302.139 87.7191 305.417 76.1025C305.474 75.8475 305.559 75.5642 305.616 75.2809C305.93 68.4526 304.419 52.8978 303.707 45.7012C303.65 45.3045 303.621 44.8795 303.593 44.5395C303.194 40.4596 302.538 37.0029 301.455 34.708C295.242 25.1314 284.868 21.8448 278.912 19.4931L264.177 17.4248C260.7 21.2781 261.27 27.3697 260.757 34.283Z" fill="#FF9900"/>
<path d="M271.302 32.6962C271.958 33.2912 272.186 33.5179 272.898 33.5745C280.622 34.2262 284.355 24.423 281.562 19.6063C279.282 15.5264 278.741 13.8547 278.741 13.8547L267.768 21.5613C267.768 21.5613 267.512 22.723 268.053 24.338C269.022 27.1146 269.336 30.9396 271.302 32.6962Z" fill="#FDD3BD"/>
<path opacity="0.5" d="M272.157 33.3478C275.72 34.1411 280.679 30.8828 278.285 19.408L268.68 24.3662C269.621 27.1429 269.193 31.7328 272.157 33.3478Z" fill="#F2A9A2"/>
<path d="M278.627 16.3197C278.627 16.3197 279.368 22.043 277.914 25.2163C276.461 28.3896 273.155 30.9679 271.758 31.6195C270.362 32.2428 269.193 32.5545 267.825 31.8462C266.486 31.1379 261.983 21.4196 261.983 21.4196C260.501 17.5663 260.102 16.3763 259.731 14.0814C259.161 10.6814 258.705 2.80482 268.424 0.453181C273.126 -0.680141 277.145 1.47317 279.254 5.15647C280.935 8.07477 280.622 14.563 280.622 14.563L278.627 16.3197Z" fill="#FDD3BD"/>
<path d="M280.992 15.1298L277.515 19.1531L276.147 16.6881C275.663 15.4414 274.238 14.8464 273.012 15.4414C270.96 16.4047 267.711 17.5664 264.006 17.2547C260.501 16.9714 259.218 15.2148 259.218 15.2148C255.513 10.1148 261.299 2.83322 267.027 0.821573C273.981 -1.61507 278.57 1.8699 280.166 5.92152C281.619 9.57648 280.992 15.1298 280.992 15.1298Z" fill="black"/>
<path d="M278.627 11.9848C279.111 11.4465 279.966 11.1632 280.593 11.5315C280.935 11.7582 281.163 12.1265 281.249 12.5231C281.334 12.9198 281.306 13.3448 281.277 13.7415C281.22 14.4498 281.135 15.1581 280.992 15.8381C280.878 16.4048 280.707 16.9998 280.251 17.3398C279.767 17.6798 279.254 18.3031 278.798 17.9348C278.342 17.5664 277.857 16.3198 277.743 15.7248C277.515 14.5065 277.743 12.9481 278.627 11.9848Z" fill="#FDD3BD"/>
<path opacity="0.3" d="M272.328 83.6107C284.526 92.6773 302.139 87.719 305.417 76.1025C305.474 75.8475 305.559 75.5642 305.616 75.2808C305.93 68.4526 304.419 52.8977 303.707 45.7011L293.618 44.0011C290.882 43.5478 288.288 45.3045 287.747 47.9678C286.379 54.626 286.379 68.6226 286.379 68.6226C282.617 74.7708 276.945 82.1658 272.328 83.6107Z" fill="#14708F"/>
<path d="M303.251 66.9225C302.396 71.8241 302.538 73.7508 299.517 77.774C294.416 85.1123 291.309 89.5606 284.013 95.0572C279.909 97.3522 273.753 91.9122 275.663 89.8722C277.658 85.1123 282.075 78.6807 289.856 69.1891L288.174 47.3443C289.286 38.3911 289.2 28.5879 297.893 30.8545C306.414 35.5295 304.847 57.7426 303.251 66.9225Z" fill="#FF9900"/>
<path d="M275.691 89.8722C277.686 86.5855 282.759 91.9688 282.047 94.0655L280.451 99.1371L280.251 99.7604C276.917 98.2304 273.639 96.9554 270.59 95.1421L270.903 94.3205L275.691 89.8722Z" fill="#FDD3BD"/>
<path d="M246.507 76.3008L248.075 75.0258C250.497 74.5158 252.179 76.2441 253.176 78.1424L253.746 80.4091L253.233 82.9874C249.984 81.9957 247.106 80.3241 244.427 78.4258L246.507 76.3008Z" fill="#FDD3BD"/>
<path d="M42.7035 241.738L204.128 149.089C208.574 146.539 215.756 146.539 220.173 149.089L296.325 192.806L303.479 191.418V199.606C303.479 201.278 302.367 202.95 300.144 204.225L127.919 303.079C123.473 305.629 116.291 305.629 111.873 303.079L31.8735 257.179C29.7075 255.932 28.596 254.317 28.5675 252.674V244.486L42.7035 241.738Z" fill="black"/>
<path d="M300.201 187.112L220.202 141.212C215.756 138.662 208.574 138.662 204.156 141.212L31.9304 240.066C27.4844 242.616 27.4844 246.724 31.9304 249.274L111.93 295.174C116.376 297.724 123.558 297.724 127.975 295.174L300.201 196.32C304.619 193.798 304.619 189.662 300.201 187.112Z" fill="#CCCCCC"/>
<path d="M119.939 295.627C122.703 295.627 125.297 295.032 127.235 293.927L299.46 195.073C301.113 194.138 302.054 192.92 302.054 191.73C302.054 190.568 301.113 189.35 299.46 188.387L219.461 142.487C217.551 141.382 214.958 140.787 212.165 140.787C209.372 140.787 206.807 141.382 204.869 142.487L32.6715 241.341C31.0185 242.276 30.078 243.494 30.078 244.684C30.078 245.846 31.0185 247.064 32.6715 248.028L112.671 293.927C114.581 295.004 117.174 295.627 119.939 295.627Z" fill="#475066"/>
<path d="M298.007 192.948L122.133 293.899L43.7295 248.906L219.603 147.955L298.007 192.948Z" fill="#464854"/>
<path d="M204.356 145.009L211.053 148.834L184.691 163.963L177.993 160.11L204.356 145.009Z" fill="#C8C9E0"/>
<path d="M184.691 167.675L177.993 163.822V160.11L184.691 163.963V167.675Z" fill="#303845"/>
<path d="M184.691 167.675V163.963L211.053 148.833V152.545L184.691 167.675Z" fill="#A5A7C7"/>
<path d="M58.9771 224.879L65.6746 228.733L39.3121 243.863L32.6146 240.009L58.9771 224.879Z" fill="#C8C9E0"/>
<path d="M39.3121 247.546L32.6146 243.721V240.009L39.3121 243.863V247.546Z" fill="#303845"/>
<path d="M39.3121 247.546V243.862L65.6747 228.733V232.444L39.3121 247.546Z" fill="#A5A7C7"/>
<path d="M208.089 179.972L221.456 187.65L235.25 179.717L221.883 172.067L208.089 179.972Z" fill="#475066"/>
<path d="M208.089 181.275L221.456 188.925V187.65L208.089 179.971V181.275Z" fill="#303845"/>
<path d="M221.456 187.65V188.925L235.25 181.02V179.717L221.456 187.65Z" fill="#2E2520"/>
<path d="M166.052 265.424L169.272 267.265L170.868 266.33L167.676 264.489L166.052 265.424Z" fill="#E3D1BC"/>
<path d="M169.272 267.266V269.391L170.868 268.456V266.331L169.272 267.266Z" fill="#A5A7C7"/>
<path d="M170.897 262.647L174.089 264.46L175.713 263.554L172.493 261.712L170.897 262.647Z" fill="#E3D1BC"/>
<path d="M174.089 264.46V266.614L175.713 265.679V263.554L174.089 264.46Z" fill="#A5A7C7"/>
<path d="M175.742 259.871L178.934 261.684L180.53 260.777L177.338 258.936L175.742 259.871Z" fill="#E3D1BC"/>
<path d="M178.934 261.684V263.809L180.53 262.902V260.777L178.934 261.684Z" fill="#A5A7C7"/>
<path d="M180.558 257.094L183.779 258.907L185.375 258.001L182.183 256.159L180.558 257.094Z" fill="#E3D1BC"/>
<path d="M183.779 258.907V261.032L185.375 260.125V258L183.779 258.907Z" fill="#A5A7C7"/>
<path d="M185.403 254.289L188.595 256.131L190.191 255.224L186.999 253.382L185.403 254.289Z" fill="#E3D1BC"/>
<path d="M188.595 256.131V258.256L190.191 257.349V255.224L188.595 256.131Z" fill="#A5A7C7"/>
<path d="M190.248 251.512L193.44 253.354L195.036 252.447L191.844 250.606L190.248 251.512Z" fill="#E3D1BC"/>
<path d="M193.44 253.354V255.479L195.036 254.572V252.447L193.44 253.354Z" fill="#A5A7C7"/>
<path d="M195.065 248.736L198.257 250.577L199.881 249.642L196.689 247.829L195.065 248.736Z" fill="#E3D1BC"/>
<path d="M198.257 250.578V252.703L199.881 251.796V249.643L198.257 250.578Z" fill="#A5A7C7"/>
<path d="M199.91 245.959L203.102 247.801L204.698 246.866L201.506 245.052L199.91 245.959Z" fill="#E3D1BC"/>
<path d="M203.102 247.8V249.925L204.698 249.019V246.865L203.102 247.8Z" fill="#A5A7C7"/>
<path d="M204.726 243.183L207.947 245.024L209.543 244.089L206.351 242.276L204.726 243.183Z" fill="#E3D1BC"/>
<path d="M207.947 245.024V247.149L209.543 246.214V244.089L207.947 245.024Z" fill="#A5A7C7"/>
<path d="M209.571 240.406L212.763 242.247L214.388 241.312L211.167 239.471L209.571 240.406Z" fill="#E3D1BC"/>
<path d="M212.763 242.247V244.372L214.387 243.437V241.312L212.763 242.247Z" fill="#A5A7C7"/>
<path d="M214.416 237.629L217.608 239.471L219.204 238.536L216.012 236.694L214.416 237.629Z" fill="#E3D1BC"/>
<path d="M217.608 239.471V241.596L219.204 240.661V238.536L217.608 239.471Z" fill="#A5A7C7"/>
<path d="M219.233 234.852L222.453 236.694L224.049 235.759L220.857 233.917L219.233 234.852Z" fill="#E3D1BC"/>
<path d="M222.453 236.694V238.819L224.049 237.884V235.759L222.453 236.694Z" fill="#A5A7C7"/>
<path d="M224.078 232.076L227.27 233.889L228.866 232.983L225.674 231.141L224.078 232.076Z" fill="#E3D1BC"/>
<path d="M227.27 233.889V236.043L228.866 235.108V232.983L227.27 233.889Z" fill="#A5A7C7"/>
<path d="M228.923 229.299L232.115 231.113L233.711 230.206L230.519 228.364L228.923 229.299Z" fill="#E3D1BC"/>
<path d="M232.115 231.112V233.237L233.711 232.331V230.206L232.115 231.112Z" fill="#A5A7C7"/>
<path d="M233.739 226.523L236.931 228.336L238.556 227.429L235.364 225.588L233.739 226.523Z" fill="#E3D1BC"/>
<path d="M236.931 228.336V230.461L238.556 229.554V227.429L236.931 228.336Z" fill="#A5A7C7"/>
<path d="M238.584 223.717L241.776 225.559L243.372 224.652L240.18 222.811L238.584 223.717Z" fill="#E3D1BC"/>
<path d="M241.776 225.559V227.684L243.372 226.777V224.652L241.776 225.559Z" fill="#A5A7C7"/>
<path d="M243.401 220.941L246.621 222.783L248.217 221.876L245.025 220.034L243.401 220.941Z" fill="#E3D1BC"/>
<path d="M246.621 222.783V224.908L248.217 224.001V221.876L246.621 222.783Z" fill="#A5A7C7"/>
<path d="M248.246 218.164L251.438 220.006L253.062 219.071L249.842 217.258L248.246 218.164Z" fill="#E3D1BC"/>
<path d="M251.438 220.006V222.131L253.062 221.224V219.071L251.438 220.006Z" fill="#A5A7C7"/>
<path d="M253.091 215.388L256.283 217.229L257.879 216.294L254.687 214.481L253.091 215.388Z" fill="#E3D1BC"/>
<path d="M256.283 217.229V219.354L257.879 218.448V216.294L256.283 217.229Z" fill="#A5A7C7"/>
<path d="M257.907 212.611L261.128 214.453L262.724 213.518L259.532 211.704L257.907 212.611Z" fill="#E3D1BC"/>
<path d="M261.128 214.453V216.578L262.724 215.643V213.518L261.128 214.453Z" fill="#A5A7C7"/>
<path d="M262.752 209.834L265.944 211.676L267.54 210.741L264.348 208.899L262.752 209.834Z" fill="#E3D1BC"/>
<path d="M265.944 211.676V213.801L267.54 212.866V210.741L265.944 211.676Z" fill="#A5A7C7"/>
<path d="M267.597 207.058L270.789 208.899L272.385 207.964L269.193 206.123L267.597 207.058Z" fill="#E3D1BC"/>
<path d="M270.789 208.899V211.024L272.385 210.089V207.964L270.789 208.899Z" fill="#A5A7C7"/>
<path d="M272.414 204.281L275.606 206.123L277.23 205.188L274.038 203.346L272.414 204.281Z" fill="#E3D1BC"/>
<path d="M275.606 206.123V208.248L277.23 207.313V205.188L275.606 206.123Z" fill="#A5A7C7"/>
<path d="M96.597 270.666L107.399 276.899L99.7035 281.319L88.8735 275.114L96.597 270.666Z" fill="#C8C9E0"/>
<path d="M99.7035 284.407L88.8735 278.202V275.114L99.7035 281.319V284.407Z" fill="#464854"/>
<path d="M99.7035 284.407V281.319L107.399 276.899V279.987L99.7035 284.407Z" fill="#A5A7C7"/>
<path d="M268.224 171.67L279.054 177.875L271.331 182.295L260.529 176.09L268.224 171.67Z" fill="#C8C9E0"/>
<path d="M271.331 185.411L260.529 179.206V176.09L271.331 182.295V185.411Z" fill="#303845"/>
<path d="M271.331 185.411V182.295L279.054 177.875V180.991L271.331 185.411Z" fill="#A5A7C7"/>
<path d="M251.922 162.207L262.724 168.411L255.029 172.86L244.199 166.627L251.922 162.207Z" fill="#C8C9E0"/>
<path d="M255.029 175.948L244.199 169.743V166.626L255.029 172.86V175.948Z" fill="#303845"/>
<path d="M255.029 175.948V172.86L262.724 168.411V171.528L255.029 175.948Z" fill="#A5A7C7"/>
<path d="M77.673 260.012L88.503 266.217L80.7795 270.637L69.978 264.432L77.673 260.012Z" fill="#C8C9E0"/>
<path d="M80.7795 273.726L69.978 267.521V264.432L80.7795 270.637V273.726Z" fill="#464854"/>
<path d="M80.7795 273.726V270.637L88.503 266.217V269.306L80.7795 273.726Z" fill="#A5A7C7"/>
<path d="M51.453 244.883L62.2545 251.088L54.5595 255.536L43.7295 249.331L51.453 244.883Z" fill="#C8C9E0"/>
<path d="M54.5595 258.624L43.7295 252.419V249.331L54.5595 255.536V258.624Z" fill="#464854"/>
<path d="M54.5596 258.624V255.536L62.2546 251.087V254.204L54.5596 258.624Z" fill="#A5A7C7"/>
<path d="M216.269 178.612C216.525 178.357 216.839 178.13 217.209 177.903C219.66 176.487 223.65 176.487 226.13 177.903C226.5 178.13 226.814 178.357 227.07 178.612H227.982V180.482C227.982 181.417 227.355 182.323 226.13 183.032C223.679 184.448 219.689 184.448 217.209 183.032C215.984 182.323 215.357 181.388 215.357 180.482V178.612H216.269Z" fill="#464854"/>
<path d="M221.655 182.238C225.134 182.238 227.954 180.614 227.954 178.611C227.954 176.609 225.134 174.985 221.655 174.985C218.177 174.985 215.357 176.609 215.357 178.611C215.357 180.614 218.177 182.238 221.655 182.238Z" fill="#A5A7C7"/>
<path d="M219.347 177.308C218.064 178.045 218.064 179.235 219.347 179.943C220.629 180.651 222.681 180.68 223.964 179.943C225.246 179.206 225.246 178.016 223.964 177.308C222.71 176.571 220.629 176.571 219.347 177.308Z" fill="#1A1A1A"/>
<path d="M108.653 270.836L126.978 281.376L145.902 270.496L127.577 259.984L108.653 270.836Z" fill="#A5A7C7"/>
<path d="M87.6766 258.794L106.002 269.306L124.926 258.454L106.601 247.942L87.6766 258.794Z" fill="#A5A7C7"/>
<path d="M238.67 178.215L253.233 186.488L259.589 190.143L275.549 199.295C277.43 200.371 277.43 203.063 275.549 204.168L164.598 267.832C162.489 269.051 159.896 269.051 157.815 267.832L134.673 254.544V251.484L232.628 198.416L218.064 190.143V187.083L238.67 178.215Z" fill="#A5A7C7"/>
<path d="M238.692 175.295L253.255 183.568L259.611 187.223L275.571 196.374C277.452 197.451 277.452 200.143 275.571 201.248L164.62 264.912C162.511 266.13 159.918 266.13 157.837 264.912L134.695 251.624L232.65 195.496L218.086 187.223L238.692 175.295Z" fill="white"/>
<path d="M166.736 235.958L179.219 243.126L192.101 235.731L179.618 228.563L166.736 235.958Z" fill="#4D4D4D"/>
<path d="M225.56 185.666L238.043 192.835L250.925 185.411L238.442 178.271L225.56 185.666Z" fill="#4D4D4D"/>
<path d="M254.772 188.273L267.255 195.441L259.104 200.116L246.621 192.948L254.772 188.273Z" fill="#4D4D4D"/>
<path d="M205.182 232.643L192.728 225.474C192.557 225.389 192.443 225.191 192.443 224.993C192.443 224.795 192.557 224.624 192.728 224.511L235.82 199.21C235.991 199.096 236.219 199.096 236.39 199.21L248.873 206.378C249.044 206.491 249.158 206.661 249.158 206.86C249.158 207.058 249.044 207.228 248.873 207.341L205.752 232.671C205.667 232.728 205.581 232.756 205.467 232.756C205.353 232.728 205.268 232.699 205.182 232.643ZM236.076 200.315L194.096 224.993L205.439 231.538L247.448 206.831L236.076 200.315Z" fill="#4D4D4D"/>
<path d="M213.02 163.68L233.34 158.552V160.847L202.503 178.526L184.577 168.27V165.975L202.788 157.815L213.02 163.68Z" fill="#303845"/>
<path d="M213.02 161.413L225.645 154.16L233.34 158.552L202.503 176.26L184.577 165.975L202.788 155.548L213.02 161.413Z" fill="#C8C9E0"/>
<path d="M226.13 158.325C226.822 158.325 227.384 157.995 227.384 157.588C227.384 157.182 226.822 156.852 226.13 156.852C225.437 156.852 224.876 157.182 224.876 157.588C224.876 157.995 225.437 158.325 226.13 158.325Z" fill="#1A1A1A"/>
<path d="M203.016 174.135C203.709 174.135 204.27 173.805 204.27 173.398C204.27 172.991 203.709 172.662 203.016 172.662C202.324 172.662 201.762 172.991 201.762 173.398C201.762 173.805 202.324 174.135 203.016 174.135Z" fill="#1A1A1A"/>
<path d="M188.396 166.655C189.088 166.655 189.65 166.325 189.65 165.918C189.65 165.511 189.088 165.182 188.396 165.182C187.703 165.182 187.142 165.511 187.142 165.918C187.142 166.325 187.703 166.655 188.396 166.655Z" fill="#1A1A1A"/>
<path d="M240.123 155.237L245.738 158.467L238.043 162.887L232.428 159.685L240.123 155.237Z" fill="#C8C9E0"/>
<path d="M238.043 166.003L232.428 162.773V159.685L238.043 162.887V166.003Z" fill="#303845"/>
<path d="M238.043 166.003V162.887L245.738 158.467V161.555L238.043 166.003Z" fill="#A5A7C7"/>
<path d="M225.788 196.773L134.217 249.331L114.296 260.749L64.5916 232.246V226.324L176.084 168.242L225.788 190.851V196.773Z" fill="#1A1A1A"/>
<path d="M225.788 190.851L114.296 254.856L64.5916 226.324L176.084 162.32L225.788 190.851Z" fill="#4D4D4D"/>
<path d="M176.682 171.953L210.113 191.135L212.364 189.86L178.934 170.65L176.682 171.953Z" fill="white"/>
<path d="M206.322 192.608L204.071 193.883L180.929 180.595L183.237 179.348L206.322 192.608Z" fill="white"/>
<path d="M175.343 186.545L196.034 198.416L197.402 197.623L176.711 185.751L175.343 186.545Z" fill="white"/>
<path d="M87.6766 222.103L118.086 239.556L120.11 238.366L89.7286 220.941L87.6766 222.103Z" fill="white"/>
<path d="M88.8735 227.174L110.42 239.556L111.873 238.706L90.327 226.353L88.8735 227.174Z" fill="white"/>
<path d="M88.5031 230.829L104.121 239.811L105.176 239.216L89.5575 230.234L88.5031 230.829Z" fill="white"/>
<path d="M171.267 188.783L191.958 200.655L193.355 199.861L172.664 187.961L171.267 188.783Z" fill="white"/>
<path d="M176.226 196.235L187.968 202.978L189.365 202.185L177.594 195.413L176.226 196.235Z" fill="white"/>
<path d="M123.815 284.095L115.92 288.629L121.563 291.859L129.458 287.325L123.815 284.095Z" fill="#C8C9E0"/>
<path d="M288.317 190.001L280.422 194.535L286.037 197.765L293.931 193.231L288.317 190.001Z" fill="#C8C9E0"/>
<path d="M279.225 184.392L271.331 188.925L276.974 192.155L284.868 187.622L279.225 184.392Z" fill="#C8C9E0"/>
<path d="M234.48 167.42L226.586 171.953L232.2 175.183L240.095 170.65L234.48 167.42Z" fill="#C8C9E0"/>
<path d="M219.432 148.833L213.732 152.12L217.808 154.443L223.508 151.185L219.432 148.833Z" fill="#C8C9E0"/>
<path d="M115.293 279.109L107.399 283.642L113.042 286.872L120.936 282.339L115.293 279.109Z" fill="#C8C9E0"/>
<path d="M72.4861 254.742L64.5916 259.276L70.2061 262.506L78.1291 257.972L72.4861 254.742Z" fill="#C8C9E0"/>
<path d="M294.672 105.767L214.673 59.8678C210.227 57.3178 203.045 57.3178 198.627 59.8678L26.4016 158.722C21.9556 161.272 21.9556 165.38 26.4016 167.93L106.401 213.83C110.847 216.38 118.029 216.38 122.447 213.83L294.672 114.976C299.118 112.454 299.118 108.317 294.672 105.767Z" fill="#FF5E1A"/>
<path d="M197.829 108.686C197.829 109.026 197.886 109.337 198 109.649C198.314 110.527 199.055 111.349 200.252 112.057C203.501 113.927 208.745 113.927 212.022 112.057L228.78 102.452C229.977 101.772 230.718 100.951 231.032 100.044C231.174 99.7041 231.203 99.3924 231.203 99.0524C231.203 97.8341 230.376 96.6158 228.752 95.6808C225.503 93.8108 220.23 93.8108 216.981 95.6808L200.223 105.286C198.627 106.249 197.829 107.467 197.829 108.686Z" fill="#4D4D4D"/>
<path d="M198 109.677C198.314 110.555 199.055 111.377 200.252 112.085C203.501 113.955 208.745 113.955 212.022 112.085L228.78 102.481C229.977 101.801 230.718 100.979 231.032 100.072C230.718 99.1939 229.977 98.344 228.78 97.664C225.531 95.794 220.259 95.794 217.01 97.664L200.252 107.269C199.055 107.949 198.314 108.799 198 109.677Z" fill="#333333"/>
<path d="M215.499 99.7892C215.784 99.5059 216.126 99.2509 216.554 99.0242C219.261 97.4659 223.679 97.4659 226.415 99.0242C226.842 99.2509 227.184 99.5342 227.469 99.7892H228.467V101.829C228.467 102.849 227.783 103.869 226.415 104.662C223.707 106.221 219.29 106.221 216.554 104.662C215.186 103.869 214.502 102.849 214.502 101.829V99.7892H215.499Z" fill="#464854"/>
<path d="M216.554 96.9558C213.846 98.5142 213.846 101.036 216.554 102.622C219.261 104.209 223.679 104.181 226.415 102.622C229.151 101.064 229.122 98.5425 226.415 96.9558C223.679 95.3975 219.261 95.3975 216.554 96.9558Z" fill="#A5A7C7"/>
<path d="M221.484 102.594C224.207 102.594 226.415 101.326 226.415 99.7608C226.415 98.196 224.207 96.9275 221.484 96.9275C218.761 96.9275 216.554 98.196 216.554 99.7608C216.554 101.326 218.761 102.594 221.484 102.594Z" fill="#1A1A1A"/>
<path d="M205.353 106.703C205.553 106.504 205.809 106.334 206.094 106.164C208.004 105.059 211.139 105.059 213.048 106.164C213.333 106.334 213.59 106.504 213.789 106.703H214.502V108.147C214.502 108.884 214.017 109.592 213.048 110.159C211.139 111.264 208.004 111.264 206.094 110.159C205.125 109.621 204.641 108.884 204.641 108.147V106.703H205.353Z" fill="#464854"/>
<path d="M209.6 109.536C212.323 109.536 214.53 108.267 214.53 106.702C214.53 105.138 212.323 103.869 209.6 103.869C206.877 103.869 204.669 105.138 204.669 106.702C204.669 108.267 206.877 109.536 209.6 109.536Z" fill="#A5A7C7"/>
<path d="M209.6 108.714C211.52 108.714 213.077 107.814 213.077 106.703C213.077 105.592 211.52 104.691 209.6 104.691C207.679 104.691 206.123 105.592 206.123 106.703C206.123 107.814 207.679 108.714 209.6 108.714Z" fill="#1A1A1A"/>
<path d="M27.8837 167.76L25.8317 151.242L14.7737 147.247L13.2062 161.017L27.8837 167.76Z" fill="#FDD3BD"/>
<path d="M13.1207 276.219C13.1207 276.219 16.9967 277.862 17.6522 279.364C18.3077 280.837 17.0822 283.472 17.0822 283.472C17.0822 283.472 15.5432 286.645 14.3177 287.75C13.1207 288.855 10.5842 289.677 10.5842 289.677C10.5842 289.677 8.84566 294.352 6.45166 294.975C4.05766 295.599 1.77766 294.72 0.637662 292.567C-0.530838 290.414 2.26216 284.35 2.26216 284.35L13.1207 276.219Z" fill="black"/>
<path d="M60.0601 292.794V301.265C60.0601 301.265 59.0341 305.685 60.7156 307.442C62.3971 309.198 64.4491 308.688 66.7861 307.923C69.1231 307.158 73.9966 301.463 73.9966 301.463C73.9966 301.463 77.6161 300.018 79.0981 298.205C80.5801 296.364 81.6631 293.672 81.5206 291.802C81.3781 289.932 80.4376 288.459 79.2121 287.58C76.5901 285.71 74.7091 286.787 68.6386 290.584L65.3611 287.92L60.0601 292.794Z" fill="black"/>
<path d="M2.26208 284.35C3.77259 287.637 7.99059 288.572 11.1541 286.815C12.5506 286.05 13.7191 284.747 14.4031 282.905C15.9706 273.839 21.6136 259.842 26.4301 244.401C28.7956 238.734 28.7386 237.091 30.3061 232.359C33.9541 234.994 38.2576 236.099 42.6181 238.253L53.2201 251.994C49.9996 262.789 52.4221 280.639 56.9821 300.5C62.9386 302.37 67.9546 302.115 69.7216 294.465C68.6101 288.119 68.2111 282.027 68.0686 276.219C67.7551 265.254 68.3251 255.366 66.8146 246.922C64.6771 233.833 60.8296 221.904 53.7616 212.214C52.8496 210.968 51.8806 209.721 50.8261 208.56L44.2141 198.898H19.9891L14.5741 210.486C12.5506 215.926 11.2396 222.556 13.2631 227.486L14.5171 237.998C7.24959 248.877 3.94359 265.311 2.26208 284.35Z" fill="#30485C"/>
<path d="M14.0896 200.683C15.1156 204.395 13.1491 215.104 13.1491 215.104C21.6421 222.103 37.5736 225.984 47.0356 220.771C50.1991 219.014 52.6501 216.266 53.8186 212.243C53.0491 201.476 50.3986 190.086 46.6936 181.756C44.8126 177.507 41.6776 174.248 39.3406 172.067L23.6656 162.688C20.2171 160.79 16.5406 159.345 12.6931 158.438L6.96457 157.078C-0.81593 157.078 -1.78493 169.29 2.60407 179.603C2.60407 179.603 13.0636 197 14.0896 200.683Z" fill="#03C12D"/>
<path d="M25.2901 158.41L27.9691 156.993C29.8501 156.002 31.1896 154.217 31.6171 152.148C32.3866 148.437 33.0706 142.402 30.7621 138.265C27.1711 131.862 22.9246 130.729 16.569 133.619C10.1565 136.508 8.10454 141.637 10.698 148.692C13.32 155.747 15.0585 154.613 15.0585 154.613L25.2901 158.41Z" fill="#FDD3BD"/>
<path d="M31.6171 140.362L28.6531 145.263L27.8836 149.173L26.9146 150.873L26.6011 153.253C26.3446 155.152 24.7771 156.568 22.8676 156.653C20.5591 156.767 17.2816 156.398 13.9471 154.358C13.9471 154.358 11.1826 152.885 9.58663 146.368C7.99063 139.852 11.4676 135.744 13.1776 134.61C14.8876 133.477 23.9506 128.179 29.3656 132.089C35.3791 136.48 31.6171 140.362 31.6171 140.362Z" fill="black"/>
<path d="M26.8291 146.51C26.4871 146.567 26.1736 146.794 26.0026 147.077C25.8031 147.36 25.7176 147.729 25.6321 148.069C25.3756 149.372 25.4326 150.76 25.8031 152.064C25.8886 152.404 26.0311 152.744 26.2591 152.999C26.4871 153.254 26.8291 153.452 27.1711 153.424C27.5131 153.395 27.7981 153.169 27.9691 152.857C28.1401 152.574 28.2256 152.234 28.2826 151.894C28.5391 150.789 29.2516 146.199 26.8291 146.51Z" fill="#FDD3BD"/>
<path d="M47.0356 220.771C56.1271 226.381 61.5706 237.232 64.2781 251.994C64.2781 251.994 65.1616 270.977 68.1256 276.219C67.8121 265.282 68.3821 255.366 66.8716 246.922C64.7341 233.832 60.8866 221.904 53.8186 212.214C52.6216 216.266 50.1991 219.014 47.0356 220.771Z" fill="#30485C"/>
<path opacity="0.2" d="M36.0345 183.457C43.1595 191.22 46.95 203.46 47.0355 220.771C50.199 219.015 52.65 216.266 53.8185 212.243C53.049 201.476 50.3985 190.087 46.6935 181.757L36.0345 183.457Z" fill="#1E094C"/>
<path d="M11.1825 286.816C12.579 286.051 13.7475 284.747 14.4315 282.906C15.999 273.839 21.642 259.842 26.4585 244.401C28.824 238.734 28.767 237.091 30.3345 232.359L23.865 229.668C24.6915 235.504 24.2925 239.301 22.554 244.514C16.683 258.454 13.0065 272.564 11.1825 286.816Z" fill="#30485C"/>
<path d="M281.733 94.9723L280.821 97.8623L279.71 99.7889L277.829 101.489C276.318 102.906 275.292 101.347 276.318 100.242L277.943 98.5423L278.057 96.8423L276.632 95.029L277.914 92.479L281.733 94.9723Z" fill="#FDD3BD"/>
<path d="M248.046 75.0259C247.989 75.0825 244.142 76.7825 244.142 76.7825L242.232 78.4542L241.805 81.7125C241.805 82.5058 243.315 82.9591 243.657 81.5708L244.113 79.9275L246.165 79.2758L249.072 79.6158L250.184 78.3692L248.046 75.0259Z" fill="#FDD3BD"/>
<path d="M79.9531 204.565L84.8836 207.228L90.0991 208.39L93.5191 206.435L91.8946 205.075L92.0086 202.978L95.4856 201.306C96.3976 200.966 96.2551 199.975 94.8301 199.975L91.4101 200.371L86.4511 200.655L80.0101 201.278V204.565H79.9531Z" fill="#FDD3BD"/>
<path d="M40.0245 174.928L63.1665 195.385L86.4795 200.145C88.2465 203.063 86.4795 205.924 84.057 208.588C74.082 210.401 63.0525 208.701 56.4975 205.301C46.608 201.646 39.54 196.291 29.907 188.528C22.953 183.825 32.358 170.31 40.0245 174.928Z" fill="#03C12D"/>
</g>
<defs>
<clipPath id="clip0_545_690">
<rect width="312" height="309" fill="white"/>
</clipPath>
</defs>
</svg>
