<svg width="872" height="992" viewBox="0 0 872 992" fill="none" xmlns="http://www.w3.org/2000/svg">
<circle cx="140" cy="167" r="5" fill="#FF9900"/>
<circle cx="587" cy="330" r="221.5" stroke="#4B4AEF"/>
<circle cx="538" cy="346" r="222" fill="#4B4AEF" fill-opacity="0.3"/>
<g filter="url(#filter0_f_82_79)">
<circle cx="439" cy="553" r="139" fill="#4B4AEF"/>
</g>
<circle cx="19.5" cy="328.5" r="3.5" fill="#4B4AEF" fill-opacity="0.2"/>
<circle cx="34.5" cy="328.5" r="3.5" fill="#4B4AEF" fill-opacity="0.2"/>
<circle cx="48.5" cy="327.5" r="3.5" fill="#4B4AEF" fill-opacity="0.2"/>
<circle cx="62.5" cy="327.5" r="3.5" fill="#4B4AEF" fill-opacity="0.2"/>
<circle cx="76.5" cy="327.5" r="3.5" fill="#4B4AEF" fill-opacity="0.2"/>
<circle cx="19.5" cy="314.5" r="3.5" fill="#4B4AEF" fill-opacity="0.2"/>
<circle cx="34.5" cy="314.5" r="3.5" fill="#4B4AEF" fill-opacity="0.2"/>
<circle cx="48.5" cy="313.5" r="3.5" fill="#4B4AEF" fill-opacity="0.2"/>
<circle cx="62.5" cy="313.5" r="3.5" fill="#4B4AEF" fill-opacity="0.2"/>
<circle cx="76.5" cy="313.5" r="3.5" fill="#4B4AEF" fill-opacity="0.2"/>
<circle cx="667.5" cy="529.5" r="3.5" fill="#4B4AEF" fill-opacity="0.2"/>
<circle cx="682.5" cy="529.5" r="3.5" fill="#4B4AEF" fill-opacity="0.2"/>
<circle cx="696.5" cy="528.5" r="3.5" fill="#4B4AEF" fill-opacity="0.2"/>
<circle cx="710.5" cy="528.5" r="3.5" fill="#4B4AEF" fill-opacity="0.2"/>
<circle cx="724.5" cy="528.5" r="3.5" fill="#4B4AEF" fill-opacity="0.2"/>
<circle cx="667.5" cy="515.5" r="3.5" fill="#4B4AEF" fill-opacity="0.2"/>
<circle cx="682.5" cy="515.5" r="3.5" fill="#4B4AEF" fill-opacity="0.2"/>
<circle cx="696.5" cy="514.5" r="3.5" fill="#4B4AEF" fill-opacity="0.2"/>
<circle cx="710.5" cy="514.5" r="3.5" fill="#4B4AEF" fill-opacity="0.2"/>
<circle cx="724.5" cy="514.5" r="3.5" fill="#4B4AEF" fill-opacity="0.2"/>
<path opacity="0.4" d="M275.79 604.622C267.971 604.622 260.429 602.793 254.606 599.411L98.9434 509.599C91.2906 505.164 86.9097 498.401 86.9097 490.972C86.9097 483.543 91.2906 476.779 98.9434 472.344L434.059 278.971C439.882 275.59 447.424 273.76 455.243 273.76C463.062 273.76 470.604 275.59 476.427 278.971L632.09 368.783C639.742 373.163 644.123 379.982 644.123 387.411C644.123 394.84 639.742 401.603 632.09 406.038L296.974 599.467C291.151 602.793 283.609 604.622 275.79 604.622Z" fill="#6E84FE"/>
<path opacity="0.4" d="M525.061 334.91L595.878 375.768C608.466 383.031 628.929 383.031 641.517 375.768C654.106 368.506 654.106 356.697 641.517 349.435L570.701 308.576C558.113 301.313 537.65 301.313 525.061 308.576C512.473 315.838 512.473 327.647 525.061 334.91Z" fill="#6E84FE"/>
<path d="M578.354 305.804C580.35 308.41 580.35 314.452 579.851 321.272C578.021 328.201 571.477 327.647 565.876 328.534C555.118 330.197 549.739 338.347 535.376 338.291C526.836 338.291 521.179 336.462 519.349 331.029C519.072 328.534 520.514 326.039 523.564 323.434C523.564 323.434 543.084 314.674 543.583 314.342C544.082 314.009 552.844 307.633 553.011 306.913C553.177 306.247 556.393 291.279 556.393 291.279H577.466L578.354 305.804Z" fill="black"/>
<path d="M551.292 308.687C562.161 315.229 578.076 320.939 579.74 312.9C580.295 310.461 580.794 308.077 581.293 305.693C585.951 282.741 588.114 260.787 583.899 241.494L594.602 205.071L597.541 194.981C597.763 171.53 591.053 161.273 573.252 164.821C572.531 164.932 569.315 161.273 568.594 161.44C567.54 161.717 566.154 159.666 565.1 159.943L562.272 181.509L553.288 236.726C550.626 258.071 554.952 290.115 551.292 308.687Z" fill="#36118A"/>
<path d="M642.183 338.458C644.124 344.667 644.512 346.496 643.68 351.098C642.737 353.537 641.85 354.646 640.796 358.028C639.632 362.186 639.798 369.116 633.587 373.274C626.212 379.095 611.96 379.372 607.468 373.163C607.468 370.114 609.464 363.461 613.235 358.028L620.5 344.556L620.056 331.916L640.852 327.37L642.183 338.458Z" fill="black"/>
<path d="M564.268 154.233C564.324 156.173 564.601 158.058 565.044 159.943C569.481 178.016 590.997 192.763 593.327 196.367C593.659 196.865 595.157 206.124 595.434 206.623C595.877 209.395 596.377 212.222 596.876 215.05C600.203 233.456 604.529 253.192 609.519 273.926C615.398 298.652 617.949 322.048 618.503 344.667C627.653 348.88 638.8 346.995 642.959 340.731C643.458 340.01 643.846 339.234 644.124 338.402C644.068 328.312 644.013 318.112 643.735 308.521C643.236 288.618 641.85 271.432 637.413 263.836L638.412 195.369C642.183 176.907 642.183 160.386 636.637 146.915H591.164C591.164 146.804 564.268 154.233 564.268 154.233Z" fill="#36118A"/>
<path opacity="0.5" d="M573.806 163.602C573.862 165.542 580.461 177.683 580.461 177.683C586.45 179.901 592.439 182.617 601.7 183.116C615.065 183.837 625.602 194.759 626.101 208.119L628.097 263.559C638.578 279.359 640.963 309.629 642.904 340.675C643.458 339.899 643.846 339.123 644.124 338.291C644.068 328.201 644.013 318 643.735 308.409C643.236 288.507 641.85 271.32 637.413 263.725L638.412 195.258C642.183 176.796 642.183 160.275 636.637 146.803H591.164C591.164 146.803 573.806 163.602 573.806 163.602Z" fill="#36118A"/>
<path d="M540.201 152.957C540.811 152.015 541.531 150.906 542.363 149.742C547.909 141.426 557.059 128.01 561.773 118.141L565.045 105.39L567.152 97.1852L564.767 81.7176L557.946 64.1988L553.732 41.9121C547.299 54.2751 544.027 78.613 543.14 100.9L526.836 143.699C522.899 152.015 537.372 158.668 540.201 152.957Z" fill="#FF9900"/>
<path opacity="0.3" d="M542.363 149.686C547.909 141.37 557.059 127.954 561.773 118.086L565.044 105.335L551.292 70.9624L551.513 117.365L542.363 149.686Z" fill="#14708F"/>
<path d="M551.292 67.0817C551.292 67.0817 552.622 94.4688 558.39 123.574C558.833 125.737 564.601 152.68 564.324 154.232C565.155 155.286 565.987 156.339 566.93 157.337C569.093 159.721 571.422 161.828 573.806 163.602C597.541 181.342 631.813 171.64 638.19 148.91C638.301 148.411 638.467 147.857 638.578 147.303C639.188 133.942 636.249 103.505 634.863 89.4238C634.752 88.6476 634.696 87.816 634.641 87.1507C633.864 79.1675 632.589 72.4039 630.482 67.9133C618.392 49.1747 598.207 42.7438 586.617 38.1423L557.946 34.0952C551.181 41.635 552.29 53.5545 551.292 67.0817Z" fill="#FF9900"/>
<path d="M571.81 63.9771C573.085 65.1413 573.529 65.5848 574.915 65.6957C589.944 66.9708 597.208 47.7888 591.774 38.3641C587.337 30.3808 586.284 27.1099 586.284 27.1099L564.934 42.1894C564.934 42.1894 564.434 44.4624 565.488 47.6225C567.374 53.0555 567.984 60.5398 571.81 63.9771Z" fill="#FDD3BD"/>
<path opacity="0.5" d="M573.474 65.2523C580.406 66.8046 590.055 60.4291 585.397 37.9761L566.708 47.678C568.538 53.111 567.706 62.0922 573.474 65.2523Z" fill="#F2A9A2"/>
<path d="M586.062 31.933C586.062 31.933 587.504 43.1317 584.676 49.341C581.847 55.5502 575.415 60.5952 572.697 61.8703C569.98 63.0899 567.706 63.6998 565.045 62.3138C562.438 60.9278 553.676 41.9121 553.676 41.9121C550.792 34.3723 550.016 32.0439 549.295 27.5533C548.186 20.9005 547.299 5.48838 566.209 0.886905C575.359 -1.33067 583.178 2.88273 587.282 10.0898C590.554 15.8001 589.944 28.4957 589.944 28.4957L586.062 31.933Z" fill="#FDD3BD"/>
<path d="M590.665 29.6046L583.899 37.477L581.237 32.6538C580.295 30.2145 577.522 29.0502 575.137 30.2145C571.145 32.0994 564.823 34.3724 557.613 33.7626C550.792 33.2082 548.297 29.771 548.297 29.771C541.088 19.7919 552.345 5.54393 563.492 1.60773C577.023 -3.16006 585.951 3.65899 589.057 11.5868C591.885 18.7385 590.665 29.6046 590.665 29.6046Z" fill="black"/>
<path d="M586.062 23.4509C587.005 22.3975 588.668 21.8431 589.888 22.5638C590.554 23.0073 590.997 23.7281 591.164 24.5042C591.33 25.2804 591.275 26.1119 591.219 26.8881C591.108 28.2741 590.942 29.6601 590.665 30.9906C590.443 32.0994 590.11 33.2636 589.223 33.9289C588.28 34.5942 587.282 35.8138 586.395 35.0931C585.507 34.3724 584.565 31.9331 584.343 30.7689C583.899 28.385 584.343 25.3358 586.062 23.4509Z" fill="#FDD3BD"/>
<path opacity="0.3" d="M573.806 163.602C597.541 181.342 631.812 171.64 638.19 148.91C638.301 148.411 638.467 147.857 638.578 147.302C639.188 133.942 636.249 103.505 634.862 89.4237L615.231 86.0974C609.908 85.2103 604.861 88.6476 603.808 93.8589C601.146 106.887 601.146 134.274 601.146 134.274C593.826 146.305 582.79 160.774 573.806 163.602Z" fill="#14708F"/>
<path d="M633.975 130.948C632.312 140.539 632.589 144.309 626.711 152.181C616.784 166.54 610.74 175.244 596.543 185.999C588.557 190.49 576.579 179.845 580.295 175.854C584.176 166.54 592.772 153.955 607.911 135.383L604.639 92.6392C606.802 75.1203 606.636 55.9383 623.55 60.3734C640.131 69.5209 637.081 112.985 633.975 130.948Z" fill="#FF9900"/>
<path d="M580.35 175.854C584.232 169.423 594.103 179.956 592.717 184.059L589.611 193.983L589.223 195.202C582.735 192.209 576.357 189.714 570.424 186.166L571.034 184.558L580.35 175.854Z" fill="#FDD3BD"/>
<path d="M523.564 149.298L526.614 146.804C531.328 145.806 534.6 149.187 536.541 152.902L537.65 157.337L536.651 162.382C530.33 160.442 524.729 157.171 519.516 153.456L523.564 149.298Z" fill="#FDD3BD"/>
<path d="M127.004 473.009L441.102 291.722C449.753 286.733 463.728 286.733 472.323 291.722L620.5 377.265L634.419 374.549V390.571C634.419 393.842 632.256 397.113 627.931 399.608L292.815 593.036C284.164 598.025 270.189 598.025 261.594 593.036L105.931 503.224C101.716 500.785 99.5535 497.624 99.498 494.409V478.387L127.004 473.009Z" fill="black"/>
<path d="M628.042 366.122L472.379 276.31C463.728 271.321 449.753 271.321 441.158 276.31L106.042 469.738C97.3907 474.728 97.3907 482.767 106.042 487.756L261.704 577.568C270.355 582.558 284.33 582.558 292.926 577.568L628.042 384.14C636.637 379.206 636.637 371.112 628.042 366.122Z" fill="#CCCCCC"/>
<path d="M277.287 578.455C282.667 578.455 287.713 577.291 291.484 575.129L626.6 381.7C629.816 379.871 631.646 377.487 631.646 375.159C631.646 372.886 629.816 370.502 626.6 368.617L470.937 278.805C467.221 276.643 462.175 275.479 456.74 275.479C451.306 275.479 446.315 276.643 442.544 278.805L107.484 472.233C104.267 474.063 102.437 476.446 102.437 478.775C102.437 481.048 104.267 483.432 107.484 485.317L263.146 575.129C266.862 577.235 271.908 578.455 277.287 578.455Z" fill="#475066"/>
<path d="M623.772 377.543L281.558 575.073L129 487.036L471.214 289.505L623.772 377.543Z" fill="#464854"/>
<path d="M441.546 283.739L454.578 291.223L403.282 320.828L390.25 313.288L441.546 283.739Z" fill="#C8C9E0"/>
<path d="M403.282 328.091L390.25 320.551V313.288L403.282 320.828V328.091Z" fill="#303845"/>
<path d="M403.282 328.091V320.828L454.578 291.223V298.486L403.282 328.091Z" fill="#A5A7C7"/>
<path d="M158.669 440.023L171.701 447.562L120.405 477.167L107.373 469.627L158.669 440.023Z" fill="#C8C9E0"/>
<path d="M120.405 484.374L107.373 476.89V469.627L120.405 477.167V484.374Z" fill="#303845"/>
<path d="M120.405 484.374V477.167L171.701 447.562V454.825L120.405 484.374Z" fill="#A5A7C7"/>
<path d="M448.81 352.151L474.819 367.175L501.659 351.652L475.651 336.684L448.81 352.151Z" fill="#475066"/>
<path d="M448.81 354.701L474.819 369.67V367.175L448.81 352.151V354.701Z" fill="#303845"/>
<path d="M474.819 367.175V369.67L501.659 354.203V351.652L474.819 367.175Z" fill="#2E2520"/>
<path d="M367.014 519.357L373.28 522.96L376.386 521.131L370.175 517.527L367.014 519.357Z" fill="#E3D1BC"/>
<path d="M373.28 522.96V527.118L376.386 525.289V521.131L373.28 522.96Z" fill="#A5A7C7"/>
<path d="M376.441 513.923L382.652 517.472L385.813 515.698L379.547 512.094L376.441 513.923Z" fill="#E3D1BC"/>
<path d="M382.652 517.472V521.685L385.813 519.856V515.698L382.652 517.472Z" fill="#A5A7C7"/>
<path d="M385.869 508.49L392.08 512.038L395.185 510.264L388.974 506.661L385.869 508.49Z" fill="#E3D1BC"/>
<path d="M392.08 512.038V516.196L395.185 514.422V510.264L392.08 512.038Z" fill="#A5A7C7"/>
<path d="M395.241 503.057L401.507 506.606L404.613 504.831L398.402 501.228L395.241 503.057Z" fill="#E3D1BC"/>
<path d="M401.507 506.605V510.763L404.613 508.989V504.831L401.507 506.605Z" fill="#A5A7C7"/>
<path d="M404.668 497.569L410.879 501.172L413.985 499.398L407.774 495.795L404.668 497.569Z" fill="#E3D1BC"/>
<path d="M410.879 501.172V505.33L413.985 503.556V499.398L410.879 501.172Z" fill="#A5A7C7"/>
<path d="M414.095 492.136L420.306 495.739L423.412 493.965L417.201 490.362L414.095 492.136Z" fill="#E3D1BC"/>
<path d="M420.306 495.739V499.897L423.412 498.123V493.965L420.306 495.739Z" fill="#A5A7C7"/>
<path d="M423.467 486.703L429.678 490.306L432.839 488.477L426.628 484.929L423.467 486.703Z" fill="#E3D1BC"/>
<path d="M429.678 490.306V494.464L432.839 492.69V488.477L429.678 490.306Z" fill="#A5A7C7"/>
<path d="M432.895 481.27L439.106 484.873L442.211 483.044L436 479.496L432.895 481.27Z" fill="#E3D1BC"/>
<path d="M439.106 484.873V489.031L442.211 487.257V483.044L439.106 484.873Z" fill="#A5A7C7"/>
<path d="M442.267 475.837L448.533 479.44L451.639 477.611L445.428 474.062L442.267 475.837Z" fill="#E3D1BC"/>
<path d="M448.533 479.44V483.598L451.639 481.769V477.611L448.533 479.44Z" fill="#A5A7C7"/>
<path d="M451.694 470.403L457.905 474.007L461.066 472.178L454.8 468.574L451.694 470.403Z" fill="#E3D1BC"/>
<path d="M457.905 474.007V478.165L461.066 476.335V472.177L457.905 474.007Z" fill="#A5A7C7"/>
<path d="M461.121 464.97L467.332 468.574L470.438 466.744L464.227 463.141L461.121 464.97Z" fill="#E3D1BC"/>
<path d="M467.332 468.574V472.732L470.438 470.902V466.744L467.332 468.574Z" fill="#A5A7C7"/>
<path d="M470.493 459.537L476.76 463.141L479.865 461.311L473.654 457.708L470.493 459.537Z" fill="#E3D1BC"/>
<path d="M476.76 463.141V467.299L479.865 465.469V461.311L476.76 463.141Z" fill="#A5A7C7"/>
<path d="M479.921 454.104L486.132 457.652L489.237 455.878L483.026 452.275L479.921 454.104Z" fill="#E3D1BC"/>
<path d="M486.132 457.652V461.866L489.237 460.036V455.878L486.132 457.652Z" fill="#A5A7C7"/>
<path d="M489.348 448.671L495.559 452.219L498.665 450.445L492.454 446.842L489.348 448.671Z" fill="#E3D1BC"/>
<path d="M495.559 452.219V456.377L498.665 454.603V450.445L495.559 452.219Z" fill="#A5A7C7"/>
<path d="M498.72 443.238L504.931 446.786L508.092 445.012L501.881 441.409L498.72 443.238Z" fill="#E3D1BC"/>
<path d="M504.931 446.786V450.944L508.092 449.17V445.012L504.931 446.786Z" fill="#A5A7C7"/>
<path d="M508.147 437.75L514.358 441.353L517.464 439.579L511.253 435.976L508.147 437.75Z" fill="#E3D1BC"/>
<path d="M514.358 441.353V445.511L517.464 443.737V439.579L514.358 441.353Z" fill="#A5A7C7"/>
<path d="M517.519 432.317L523.786 435.92L526.891 434.146L520.68 430.542L517.519 432.317Z" fill="#E3D1BC"/>
<path d="M523.786 435.92V440.078L526.891 438.304V434.146L523.786 435.92Z" fill="#A5A7C7"/>
<path d="M526.947 426.883L533.158 430.487L536.319 428.657L530.052 425.109L526.947 426.883Z" fill="#E3D1BC"/>
<path d="M533.158 430.487V434.645L536.319 432.871V428.657L533.158 430.487Z" fill="#A5A7C7"/>
<path d="M536.374 421.45L542.585 425.054L545.691 423.224L539.48 419.676L536.374 421.45Z" fill="#E3D1BC"/>
<path d="M542.585 425.054V429.212L545.691 427.438V423.224L542.585 425.054Z" fill="#A5A7C7"/>
<path d="M545.746 416.017L552.013 419.621L555.118 417.792L548.907 414.243L545.746 416.017Z" fill="#E3D1BC"/>
<path d="M552.013 419.621V423.779L555.118 421.949V417.792L552.013 419.621Z" fill="#A5A7C7"/>
<path d="M555.174 410.584L561.384 414.188L564.49 412.358L558.279 408.755L555.174 410.584Z" fill="#E3D1BC"/>
<path d="M561.384 414.188V418.346L564.49 416.516V412.358L561.384 414.188Z" fill="#A5A7C7"/>
<path d="M564.601 405.151L570.812 408.755L573.917 406.925L567.706 403.322L564.601 405.151Z" fill="#E3D1BC"/>
<path d="M570.812 408.755V412.913L573.917 411.083V406.925L570.812 408.755Z" fill="#A5A7C7"/>
<path d="M573.973 399.718L580.184 403.322L583.345 401.492L577.134 397.889L573.973 399.718Z" fill="#E3D1BC"/>
<path d="M580.184 403.322V407.48L583.345 405.65V401.492L580.184 403.322Z" fill="#A5A7C7"/>
<path d="M231.87 529.613L252.887 541.809L237.914 550.458L216.841 538.317L231.87 529.613Z" fill="#C8C9E0"/>
<path d="M237.914 556.501L216.841 544.36V538.317L237.914 550.458V556.501Z" fill="#464854"/>
<path d="M237.914 556.501V550.458L252.887 541.81V547.852L237.914 556.501Z" fill="#A5A7C7"/>
<path d="M565.821 335.907L586.894 348.049L571.865 356.697L550.848 344.556L565.821 335.907Z" fill="#C8C9E0"/>
<path d="M571.865 362.795L550.848 350.654V344.556L571.865 356.697V362.795Z" fill="#303845"/>
<path d="M571.865 362.795V356.697L586.894 348.049V354.147L571.865 362.795Z" fill="#A5A7C7"/>
<path d="M534.1 317.391L555.118 329.532L540.145 338.236L519.072 326.039L534.1 317.391Z" fill="#C8C9E0"/>
<path d="M540.145 344.279L519.072 332.137V326.039L540.145 338.236V344.279Z" fill="#303845"/>
<path d="M540.145 344.279V338.236L555.118 329.532V335.63L540.145 344.279Z" fill="#A5A7C7"/>
<path d="M195.047 508.768L216.12 520.909L201.092 529.557L180.074 517.416L195.047 508.768Z" fill="#C8C9E0"/>
<path d="M201.092 535.6L180.074 523.459V517.416L201.092 529.557V535.6Z" fill="#464854"/>
<path d="M201.092 535.6V529.557L216.12 520.909V526.952L201.092 535.6Z" fill="#A5A7C7"/>
<path d="M144.029 479.163L165.046 491.304L150.073 500.008L129 487.867L144.029 479.163Z" fill="#C8C9E0"/>
<path d="M150.073 506.051L129 493.91V487.867L150.073 500.008V506.051Z" fill="#464854"/>
<path d="M150.073 506.051V500.008L165.046 491.304V497.403L150.073 506.051Z" fill="#A5A7C7"/>
<path d="M464.726 349.49C465.225 348.991 465.835 348.548 466.556 348.104C471.325 345.332 479.089 345.332 483.913 348.104C484.634 348.548 485.244 348.991 485.744 349.49H487.518V353.149C487.518 354.979 486.298 356.753 483.913 358.139C479.144 360.911 471.381 360.911 466.556 358.139C464.171 356.753 462.951 354.923 462.951 353.149V349.49H464.726Z" fill="#464854"/>
<path d="M475.207 356.586C481.976 356.586 487.463 353.409 487.463 349.49C487.463 345.571 481.976 342.394 475.207 342.394C468.438 342.394 462.951 345.571 462.951 349.49C462.951 353.409 468.438 356.586 475.207 356.586Z" fill="#A5A7C7"/>
<path d="M470.715 346.94C468.22 348.381 468.22 350.71 470.715 352.096C473.211 353.482 477.203 353.537 479.699 352.096C482.194 350.654 482.194 348.326 479.699 346.94C477.259 345.498 473.211 345.498 470.715 346.94Z" fill="#1A1A1A"/>
<path d="M255.327 529.946L290.985 550.569L327.807 529.28L292.149 508.712L255.327 529.946Z" fill="#A5A7C7"/>
<path d="M214.512 506.384L250.17 526.952L286.992 505.718L251.334 485.15L214.512 506.384Z" fill="#A5A7C7"/>
<path d="M508.314 348.714L536.651 364.902L549.018 372.054L580.073 389.961C583.733 392.068 583.733 397.334 580.073 399.497L364.186 524.069C360.082 526.453 355.036 526.453 350.987 524.069L305.958 498.068V492.08L496.557 388.242L468.22 372.054V366.067L508.314 348.714Z" fill="#A5A7C7"/>
<path d="M508.356 343L536.694 359.188L549.06 366.34L580.115 384.247C583.775 386.354 583.775 391.62 580.115 393.783L364.228 518.355C360.124 520.739 355.078 520.739 351.03 518.355L306 492.354L496.6 382.528L468.262 366.34L508.356 343Z" fill="white"/>
<path d="M368.345 461.699L392.634 475.726L417.7 461.256L393.411 447.23L368.345 461.699Z" fill="#4D4D4D"/>
<path d="M482.804 363.295L507.094 377.321L532.16 362.796L507.87 348.825L482.804 363.295Z" fill="#4D4D4D"/>
<path d="M539.646 368.395L563.935 382.421L548.075 391.569L523.786 377.543L539.646 368.395Z" fill="#4D4D4D"/>
<path d="M443.154 455.213L418.92 441.187C418.587 441.021 418.365 440.632 418.365 440.244C418.365 439.856 418.587 439.524 418.92 439.302L502.768 389.794C503.101 389.573 503.545 389.573 503.877 389.794L528.167 403.821C528.499 404.042 528.721 404.375 528.721 404.763C528.721 405.151 528.499 405.484 528.167 405.706L444.263 455.268C444.097 455.379 443.93 455.435 443.708 455.435C443.487 455.379 443.32 455.324 443.154 455.213ZM503.267 391.957L421.582 440.244L443.653 453.051L525.394 404.708L503.267 391.957Z" fill="#4D4D4D"/>
<path d="M458.404 320.274L497.944 310.239V314.73L437.941 349.324L403.06 329.255V324.764L438.496 308.798L458.404 320.274Z" fill="#303845"/>
<path d="M458.404 315.839L482.971 301.646L497.944 310.239L437.941 344.889L403.06 324.764L438.496 304.363L458.404 315.839Z" fill="#C8C9E0"/>
<path d="M483.913 309.795C485.261 309.795 486.353 309.15 486.353 308.354C486.353 307.558 485.261 306.913 483.913 306.913C482.566 306.913 481.474 307.558 481.474 308.354C481.474 309.15 482.566 309.795 483.913 309.795Z" fill="#1A1A1A"/>
<path d="M438.939 340.731C440.287 340.731 441.379 340.085 441.379 339.289C441.379 338.493 440.287 337.848 438.939 337.848C437.592 337.848 436.499 338.493 436.499 339.289C436.499 340.085 437.592 340.731 438.939 340.731Z" fill="#1A1A1A"/>
<path d="M410.491 326.095C411.838 326.095 412.931 325.449 412.931 324.653C412.931 323.857 411.838 323.212 410.491 323.212C409.143 323.212 408.051 323.857 408.051 324.653C408.051 325.449 409.143 326.095 410.491 326.095Z" fill="#1A1A1A"/>
<path d="M511.142 303.753L522.067 310.073L507.094 318.721L496.169 312.457L511.142 303.753Z" fill="#C8C9E0"/>
<path d="M507.094 324.82L496.169 318.5V312.457L507.094 318.721V324.82Z" fill="#303845"/>
<path d="M507.094 324.82V318.721L522.067 310.073V316.116L507.094 324.82Z" fill="#A5A7C7"/>
<path d="M483.248 385.027L305.071 487.867L266.307 510.209L169.594 454.437V442.85L386.534 329.199L483.248 373.44V385.027Z" fill="#1A1A1A"/>
<path d="M483.248 373.44L266.307 498.678L169.594 442.85L386.534 317.613L483.248 373.44Z" fill="#4D4D4D"/>
<path d="M387.699 336.462L452.748 373.994L457.129 371.5L392.08 333.912L387.699 336.462Z" fill="white"/>
<path d="M445.372 376.877L440.991 379.372L395.962 353.371L400.454 350.932L445.372 376.877Z" fill="white"/>
<path d="M385.092 365.013L425.353 388.242L428.015 386.69L387.754 363.461L385.092 365.013Z" fill="white"/>
<path d="M214.512 434.59L273.683 468.74L277.62 466.412L218.505 432.317L214.512 434.59Z" fill="white"/>
<path d="M216.841 444.514L258.765 468.741L261.594 467.077L219.67 442.906L216.841 444.514Z" fill="white"/>
<path d="M216.12 451.665L246.51 469.239L248.562 468.075L218.172 450.501L216.12 451.665Z" fill="white"/>
<path d="M377.162 369.393L417.423 392.622L420.14 391.07L379.88 367.785L377.162 369.393Z" fill="white"/>
<path d="M386.812 383.973L409.659 397.168L412.376 395.616L389.473 382.366L386.812 383.973Z" fill="white"/>
<path d="M284.829 555.891L269.468 564.761L280.448 571.082L295.809 562.211L284.829 555.891Z" fill="#C8C9E0"/>
<path d="M604.917 371.777L589.556 380.647L600.48 386.967L615.841 378.097L604.917 371.777Z" fill="#C8C9E0"/>
<path d="M587.227 360.8L571.865 369.67L582.846 375.99L598.207 367.12L587.227 360.8Z" fill="#C8C9E0"/>
<path d="M500.162 327.592L484.801 336.462L495.725 342.782L511.087 333.912L500.162 327.592Z" fill="#C8C9E0"/>
<path d="M470.881 291.223L459.79 297.654L467.721 302.2L478.812 295.825L470.881 291.223Z" fill="#C8C9E0"/>
<path d="M268.248 546.134L252.887 555.004L263.867 561.324L279.228 552.454L268.248 546.134Z" fill="#C8C9E0"/>
<path d="M184.955 498.456L169.594 507.326L180.518 513.646L195.935 504.776L184.955 498.456Z" fill="#C8C9E0"/>
<path d="M617.283 206.955L461.621 117.144C452.97 112.154 438.995 112.154 430.399 117.144L95.2834 310.572C86.6324 315.561 86.6324 323.6 95.2834 328.59L250.946 418.401C259.597 423.391 273.572 423.391 282.167 418.401L617.283 224.973C625.934 220.039 625.934 211.945 617.283 206.955Z" fill="#FF5E1A"/>
<path d="M428.846 212.666C428.846 213.331 428.957 213.941 429.179 214.551C429.789 216.269 431.231 217.877 433.56 219.263C439.882 222.922 450.086 222.922 456.463 219.263L489.071 200.469C491.4 199.139 492.842 197.531 493.452 195.757C493.729 195.092 493.785 194.482 493.785 193.816C493.785 191.432 492.176 189.049 489.015 187.219C482.693 183.56 472.434 183.56 466.112 187.219L433.505 206.013C430.399 207.898 428.846 210.282 428.846 212.666Z" fill="#4D4D4D"/>
<path d="M429.179 214.606C429.789 216.325 431.231 217.933 433.56 219.319C439.882 222.978 450.086 222.978 456.463 219.319L489.071 200.525C491.4 199.194 492.842 197.586 493.452 195.812C492.842 194.094 491.4 192.431 489.071 191.1C482.749 187.441 472.49 187.441 466.168 191.1L433.56 209.894C431.231 211.224 429.789 212.888 429.179 214.606Z" fill="#333333"/>
<path d="M463.229 195.258C463.783 194.703 464.449 194.204 465.281 193.761C470.549 190.712 479.144 190.712 484.468 193.761C485.3 194.204 485.965 194.759 486.52 195.258H488.461V199.249C488.461 201.245 487.13 203.241 484.468 204.793C479.2 207.842 470.604 207.842 465.281 204.793C462.619 203.241 461.288 201.245 461.288 199.249V195.258H463.229Z" fill="#464854"/>
<path d="M465.28 189.714C460.012 192.763 460.012 197.697 465.28 200.802C470.548 203.906 479.144 203.851 484.467 200.802C489.791 197.752 489.736 192.818 484.467 189.714C479.144 186.664 470.548 186.664 465.28 189.714Z" fill="#A5A7C7"/>
<path d="M474.874 200.746C480.173 200.746 484.468 198.264 484.468 195.202C484.468 192.14 480.173 189.658 474.874 189.658C469.576 189.658 465.281 192.14 465.281 195.202C465.281 198.264 469.576 200.746 474.874 200.746Z" fill="#1A1A1A"/>
<path d="M443.487 208.785C443.875 208.397 444.374 208.064 444.928 207.731C448.644 205.569 454.744 205.569 458.459 207.731C459.014 208.064 459.513 208.397 459.901 208.785H461.288V211.612C461.288 213.054 460.345 214.44 458.459 215.548C454.744 217.711 448.644 217.711 444.928 215.548C443.043 214.495 442.1 213.054 442.1 211.612V208.785H443.487Z" fill="#464854"/>
<path d="M451.749 214.329C457.048 214.329 461.343 211.847 461.343 208.785C461.343 205.723 457.048 203.241 451.749 203.241C446.451 203.241 442.155 205.723 442.155 208.785C442.155 211.847 446.451 214.329 451.749 214.329Z" fill="#A5A7C7"/>
<path d="M451.749 212.721C455.486 212.721 458.515 210.959 458.515 208.785C458.515 206.611 455.486 204.849 451.749 204.849C448.013 204.849 444.984 206.611 444.984 208.785C444.984 210.959 448.013 212.721 451.749 212.721Z" fill="#1A1A1A"/>
<path d="M98.1671 328.257L94.1743 295.936L72.6577 288.119L69.6077 315.062L98.1671 328.257Z" fill="#FDD3BD"/>
<path d="M69.4413 540.479C69.4413 540.479 76.9832 543.694 78.2587 546.633C79.5341 549.516 77.1496 554.672 77.1496 554.672C77.1496 554.672 74.155 560.881 71.7704 563.043C69.4413 565.205 64.5058 566.813 64.5058 566.813C64.5058 566.813 61.123 575.96 56.4648 577.18C51.8065 578.4 47.3701 576.681 45.1519 572.468C42.8783 568.254 48.3129 556.39 48.3129 556.39L69.4413 540.479Z" fill="black"/>
<path d="M160.776 572.911V589.488C160.776 589.488 158.78 598.136 162.052 601.573C165.323 605.011 169.316 604.013 173.863 602.516C178.411 601.019 187.894 589.876 187.894 589.876C187.894 589.876 194.936 587.048 197.82 583.5C200.704 579.897 202.811 574.63 202.534 570.971C202.257 567.312 200.427 564.429 198.042 562.71C192.94 559.051 189.28 561.158 177.468 568.587L171.091 563.376L160.776 572.911Z" fill="black"/>
<path d="M48.3129 556.39C51.252 562.821 59.4594 564.651 65.6149 561.213C68.3322 559.716 70.6059 557.166 71.9368 553.563C74.9868 535.822 85.967 508.435 95.3389 478.221C99.9417 467.133 99.8308 463.917 102.881 454.659C109.979 459.815 118.353 461.977 126.837 466.19L147.467 493.078C141.2 514.201 145.914 549.128 154.787 587.991C166.377 591.65 176.137 591.151 179.575 576.182C177.413 563.764 176.636 551.844 176.359 540.479C175.749 519.024 176.858 499.676 173.919 483.155C169.76 457.542 162.273 434.202 148.52 415.241C146.746 412.802 144.86 410.363 142.809 408.09L129.943 389.185H82.806L72.2695 411.86C68.3322 422.504 65.7813 435.477 69.7186 445.123L72.1586 465.691C58.0175 486.98 51.5847 519.135 48.3129 556.39Z" fill="#30485C"/>
<path d="M71.3268 392.678C73.3232 399.94 69.4968 420.896 69.4968 420.896C86.0224 434.59 117.022 442.185 135.433 431.984C141.589 428.547 146.358 423.169 148.631 415.297C147.134 394.23 141.977 371.943 134.768 355.644C131.108 347.328 125.007 340.953 120.46 336.684L89.9598 318.333C83.2497 314.619 76.096 311.791 68.6095 310.017L57.463 307.356C42.3237 307.356 40.4383 331.251 48.9784 351.431C48.9784 351.431 69.3304 385.47 71.3268 392.678Z" fill="#03C12D"/>
<path d="M93.1207 309.962L98.3335 307.19C101.994 305.25 104.6 301.757 105.432 297.71C106.929 290.447 108.26 278.639 103.768 270.544C96.7807 258.015 88.5179 255.798 76.1514 261.452C63.674 267.107 59.6812 277.142 64.7276 290.946C69.8295 304.751 73.2123 302.533 73.2123 302.533L93.1207 309.962Z" fill="#FDD3BD"/>
<path d="M105.432 274.647L99.6645 284.238L98.1672 291.889L96.2817 295.215L95.6717 299.872C95.1726 303.586 92.1226 306.358 88.4071 306.525C83.9152 306.746 77.5378 306.026 71.0496 302.034C71.0496 302.034 65.6704 299.151 62.5649 286.4C59.4594 273.649 66.225 265.61 69.5523 263.393C72.8796 261.175 90.5144 250.808 101.051 258.459C112.752 267.052 105.432 274.647 105.432 274.647Z" fill="black"/>
<path d="M96.1152 286.677C95.4498 286.788 94.8398 287.232 94.507 287.786C94.1189 288.341 93.9525 289.061 93.7861 289.726C93.287 292.277 93.3979 294.993 94.1189 297.543C94.2852 298.209 94.5625 298.874 95.0061 299.373C95.4498 299.872 96.1152 300.26 96.7807 300.205C97.4462 300.149 98.0007 299.706 98.3335 299.096C98.6662 298.541 98.8325 297.876 98.9435 297.211C99.4426 295.049 100.829 286.068 96.1152 286.677Z" fill="#FDD3BD"/>
<path d="M135.433 431.984C153.123 442.961 163.715 464.194 168.983 493.078C168.983 493.078 170.702 530.223 176.47 540.479C175.86 519.079 176.969 499.676 174.03 483.155C169.871 457.542 162.384 434.202 148.631 415.241C146.302 423.169 141.589 428.547 135.433 431.984Z" fill="#30485C"/>
<path opacity="0.2" d="M114.027 358.97C127.891 374.161 135.267 398.111 135.433 431.984C141.589 428.547 146.358 423.169 148.631 415.297C147.134 394.23 141.977 371.943 134.768 355.644L114.027 358.97Z" fill="#1E094C"/>
<path d="M65.6704 561.214C68.3877 559.717 70.6614 557.166 71.9923 553.563C75.0423 535.822 86.0225 508.435 95.3944 478.221C99.9972 467.133 99.8863 463.917 102.936 454.659L90.348 449.392C91.9562 460.813 91.1798 468.242 87.797 478.442C76.3733 505.719 69.2195 533.327 65.6704 561.214Z" fill="#30485C"/>
<path d="M592.107 185.833L590.332 191.488L588.169 195.258L584.509 198.584C581.57 201.356 579.574 198.307 581.57 196.145L584.731 192.818L584.953 189.492L582.18 185.944L584.676 180.954L592.107 185.833Z" fill="#FDD3BD"/>
<path d="M526.559 146.803C526.448 146.914 518.961 150.241 518.961 150.241L515.246 153.512L514.414 159.887C514.414 161.439 517.353 162.327 518.018 159.61L518.906 156.394L522.899 155.119L528.555 155.785L530.718 153.345L526.559 146.803Z" fill="#FDD3BD"/>
<path d="M199.484 400.273L209.078 405.484L219.226 407.757L225.88 403.932L222.72 401.271L222.941 397.168L229.707 393.897C231.481 393.232 231.204 391.292 228.431 391.292L221.777 392.068L212.128 392.622L199.595 393.842V400.273H199.484Z" fill="#FDD3BD"/>
<path d="M121.791 342.283L166.821 382.31L212.183 391.624C215.621 397.334 212.183 402.934 207.469 408.145C188.06 411.693 166.599 408.367 153.844 401.714C134.601 394.562 120.848 384.084 102.104 368.894C88.5734 359.691 106.874 333.246 121.791 342.283Z" fill="#03C12D"/>
<path d="M369.236 13.2173L364.3 29.6692L352.52 17.1685L369.236 13.2173Z" fill="#FB23FF"/>
<circle cx="399.5" cy="104.5" r="3.5" fill="#4B4AEF" fill-opacity="0.2"/>
<circle cx="414.5" cy="104.5" r="3.5" fill="#4B4AEF" fill-opacity="0.2"/>
<circle cx="428.5" cy="103.5" r="3.5" fill="#4B4AEF" fill-opacity="0.2"/>
<circle cx="442.5" cy="103.5" r="3.5" fill="#4B4AEF" fill-opacity="0.2"/>
<circle cx="456.5" cy="103.5" r="3.5" fill="#4B4AEF" fill-opacity="0.2"/>
<circle cx="399.5" cy="90.5" r="3.5" fill="#4B4AEF" fill-opacity="0.2"/>
<circle cx="414.5" cy="90.5" r="3.5" fill="#4B4AEF" fill-opacity="0.2"/>
<circle cx="428.5" cy="89.5" r="3.5" fill="#4B4AEF" fill-opacity="0.2"/>
<circle cx="442.5" cy="89.5" r="3.5" fill="#4B4AEF" fill-opacity="0.2"/>
<circle cx="456.5" cy="89.5" r="3.5" fill="#4B4AEF" fill-opacity="0.2"/>
<defs>
<filter id="filter0_f_82_79" x="0" y="114" width="878" height="878" filterUnits="userSpaceOnUse" color-interpolation-filters="sRGB">
<feFlood flood-opacity="0" result="BackgroundImageFix"/>
<feBlend mode="normal" in="SourceGraphic" in2="BackgroundImageFix" result="shape"/>
<feGaussianBlur stdDeviation="150" result="effect1_foregroundBlur_82_79"/>
</filter>
</defs>
</svg>
