<svg width="307" height="103" viewBox="0 0 307 103" fill="none" xmlns="http://www.w3.org/2000/svg">
<g clip-path="url(#clip0_35_138)">
<path d="M114.808 4.21533L99.1395 48.4904L88.4045 78.8127L88.3524 78.9688H57.0103L57.0682 78.8127L72.7363 34.5435L83.4713 4.21533L83.7839 3.33643H114.501L114.808 4.21533Z" fill="url(#paint0_linear_35_138)"/>
<path d="M141.269 78.9688H109.926L99.1394 48.4904L83.4712 4.21533L83.7839 3.33643H114.501L114.808 4.21533L141.269 78.9688Z" fill="url(#paint1_linear_35_138)"/>
<path d="M50.7626 3.33643L45.9104 19.9547H45.9046L45.9452 19.8275H25.8359L30.5202 3.79323L30.6533 3.33643H50.7626Z" fill="url(#paint2_linear_35_138)"/>
<path d="M5.72087 19.8274H25.8359L19.9704 39.8977H0.434453C0.362911 39.9019 0.291456 39.8883 0.22646 39.8581C0.161464 39.828 0.104947 39.7822 0.0619501 39.725C0.018953 39.6677 -0.00918838 39.6008 -0.0199644 39.53C-0.0307404 39.4592 -0.0238162 39.3869 0.000190848 39.3195L5.72087 19.8274Z" fill="#00FF98"/>
<path d="M88.4621 78.9688H57.1258L57.0679 78.8127L36.1944 19.8275L30.52 3.79323L30.6532 3.33643H61.6942L72.7361 34.5435L88.4042 78.8127L88.4621 78.9688Z" fill="url(#paint3_linear_35_138)"/>
<path d="M188.8 37.0067H180.311V15.1034L171.418 37.0067H166.531L157.631 15.1034V37.0067H149.143V2.56738H160.926L168.998 23.0136L177.104 2.56738H188.777L188.8 37.0067Z" fill="#1B1464"/>
<path d="M190.137 24.1411C190.137 16.4853 195.487 10.5295 203.976 10.5295C212.464 10.5295 217.808 16.4853 217.808 24.1411C217.808 31.8951 212.354 37.7526 203.976 37.7526C195.597 37.7526 190.137 31.8951 190.137 24.1411ZM209.824 24.1931C209.824 20.8509 207.508 18.2316 203.964 18.2316C200.421 18.2316 198.099 20.8509 198.099 24.1931C198.074 24.9774 198.207 25.7587 198.491 26.4905C198.774 27.2224 199.202 27.8899 199.749 28.4534C200.296 29.0169 200.951 29.465 201.674 29.7709C202.398 30.0769 203.175 30.2346 203.961 30.2346C204.747 30.2346 205.525 30.0769 206.248 29.7709C206.972 29.465 207.627 29.0169 208.173 28.4534C208.72 27.8899 209.148 27.2224 209.432 26.4905C209.715 25.7587 209.848 24.9774 209.824 24.1931Z" fill="#1B1464"/>
<path d="M234.137 21.5564C233.816 21.5548 233.5 21.4838 233.21 21.3482L230.848 27.5815L224.212 11.2986H215.672L226.424 37.0067H234.391L240.871 21.5564H234.137Z" fill="#1B1464"/>
<path d="M253.43 17.0347V37.0067H245.457V17.0347H253.43Z" fill="#1B1464"/>
<path d="M256 0H263.974V27.6336C263.974 28.6628 264.692 29.2758 265.774 29.2758H268.86V37.0067H264.124C258.982 37.0067 256.018 34.0751 256.018 29.2006L256 0Z" fill="#1B1464"/>
<path d="M237.026 11.2986H245.132L241.658 19.5962H234.131C234.104 19.5964 234.077 19.59 234.054 19.5774C234.03 19.5648 234.009 19.5465 233.995 19.5241C233.98 19.5017 233.97 19.476 233.968 19.4492C233.965 19.4224 233.97 19.3954 233.98 19.3707L237.026 11.2986Z" fill="#00FF98"/>
<path d="M247.165 5.96729H252.451L250.135 11.3448H245.271C245.254 11.3448 245.237 11.3406 245.221 11.3327C245.206 11.3248 245.193 11.3133 245.182 11.2991C245.172 11.285 245.166 11.2687 245.163 11.2515C245.16 11.2343 245.162 11.2168 245.167 11.2003L247.165 5.96729Z" fill="#00FF98"/>
<path d="M200.838 51.7342C197.732 51.6697 194.709 52.7334 192.33 54.7275C189.951 56.7217 188.378 59.5106 187.903 62.576H178.783C178.674 63.4222 178.52 64.2618 178.32 65.0913C176.936 69.9253 172.675 73.6665 166.635 73.6665C159.108 73.6665 153.978 67.7627 153.978 60.6736C153.978 53.6886 159.126 47.6288 166.635 47.6288C169.261 47.5953 171.826 48.4202 173.939 49.9778C176.051 51.5354 177.596 53.7401 178.337 56.256H183.583C181.887 48.5019 175.355 42.7485 166.508 42.7485C155.964 42.7485 148.917 50.9652 148.917 60.6736C148.917 70.3821 155.964 78.5467 166.508 78.5467C174.771 78.5467 180.931 73.626 183.155 66.7855H187.735C188.418 73.3195 193.299 78.5988 200.919 78.5988C206.883 78.5988 211.671 75.3665 213.368 69.9716H208.272C207.143 72.3828 204.416 73.9267 201.122 73.9267C196.489 73.9267 193.201 70.8447 192.842 66.8896H213.877C214.572 58.4012 209.274 51.7342 200.838 51.7342ZM192.969 62.576C193.319 60.7948 194.292 59.1963 195.715 58.0668C197.138 56.9373 198.917 56.3507 200.734 56.4121C204.787 56.4121 207.832 58.9274 208.602 62.576H192.969Z" fill="#00FF98"/>
<path d="M228.955 51.7343C227.268 51.7132 225.599 52.0773 224.074 52.7989C222.55 53.5204 221.211 54.5803 220.16 55.8975H219.951V52.4281H215.168V77.8702H220.055V65.1954C220.055 60.107 223.246 56.4642 227.924 56.4642C232.348 56.4642 234.919 59.7485 234.919 64.1662V77.8818H239.806V63.2931C239.806 56.256 235.434 51.7343 228.955 51.7343Z" fill="#00FF98"/>
<path d="M249.324 43.4656H244.437V52.457H239.805V57.1812H244.437V71.5097C244.437 75.6209 246.753 77.8702 250.916 77.8702H260.893V73.0941H251.872C250.227 73.0941 249.301 72.1689 249.301 70.573V57.1812H260.881V52.457H249.301L249.324 43.4656Z" fill="#00FF98"/>
<path d="M274.842 51.7341C267.025 51.7341 261.675 57.7477 261.675 65.1953C261.675 72.4347 266.712 78.5987 274.94 78.5987C280.91 78.5987 285.692 75.3664 287.389 69.9715H282.299C281.141 72.3827 278.437 73.9266 275.149 73.9266C270.516 73.9266 267.228 70.8446 266.869 66.8895H287.904C288.57 58.4011 283.272 51.7341 274.842 51.7341ZM266.973 62.5759C267.322 60.7942 268.295 59.195 269.718 58.0653C271.141 56.9356 272.921 56.3494 274.737 56.412C278.791 56.412 281.836 58.9273 282.606 62.5759H266.973Z" fill="#00FF98"/>
<path d="M302.113 52.457C298.466 52.457 295.791 53.9431 294.453 56.8227H294.245V52.457H289.508V77.8991H294.395V65.658C294.395 60.4193 297.533 57.3893 302.16 57.3893H306.995V52.457H302.113Z" fill="#00FF98"/>
<path d="M62.0707 89.3363V100.531H60.5711V89.3363H55.939V88.0122H66.7376V89.3363H62.0707Z" fill="#1B1464"/>
<path d="M73.5991 91.3023L73.4833 92.6669C73.3733 92.6669 73.1938 92.6669 72.939 92.6669C72.4212 92.6387 71.9039 92.7318 71.4284 92.9386C70.9529 93.1454 70.5323 93.4602 70.2003 93.8581C69.5247 94.7615 69.1848 95.8716 69.2391 96.9979V100.548H67.7974V91.3197H69.2391V93.5805C69.5647 92.8751 70.0866 92.2781 70.7427 91.8608C71.3988 91.4435 72.1612 91.2235 72.939 91.2272C73.1615 91.2213 73.3837 91.2466 73.5991 91.3023Z" fill="#1B1464"/>
<path d="M81.5895 92.002C81.9371 92.326 82.2091 92.7224 82.3862 93.1631C82.5633 93.6037 82.6412 94.0779 82.6143 94.552V100.531H81.2305V99.1316C80.8327 99.671 80.3071 100.103 79.7008 100.39C79.0944 100.677 78.4263 100.809 77.7564 100.774C76.8779 100.816 76.0137 100.539 75.3245 99.9931C75.0316 99.7333 74.7981 99.4136 74.64 99.0556C74.482 98.6976 74.403 98.3097 74.4085 97.9185C74.414 97.5273 74.5038 97.1418 74.6719 96.7884C74.8399 96.435 75.0823 96.1219 75.3824 95.8704C76.1728 95.2957 77.1397 95.0154 78.1154 95.0782H81.2189V94.6445C81.2351 94.3353 81.1869 94.0261 81.0772 93.7365C80.9676 93.4468 80.799 93.1831 80.582 92.9619C80.3483 92.7487 80.0742 92.5846 79.7758 92.4793C79.4774 92.374 79.1608 92.3297 78.845 92.349C78.2283 92.3237 77.6197 92.4959 77.1079 92.8404C76.8844 92.9997 76.695 93.2019 76.5508 93.4353C76.4066 93.6686 76.3106 93.9284 76.2683 94.1993L74.9019 93.8986C74.9724 93.492 75.1228 93.1033 75.3444 92.755C75.566 92.4066 75.8544 92.1055 76.1931 91.869C76.9481 91.3403 77.8537 91.0686 78.7755 91.0942C79.7941 91.0355 80.7978 91.3593 81.5895 92.002ZM80.2867 98.7557C80.5875 98.5018 80.8281 98.1845 80.9913 97.8265C81.1545 97.4686 81.2362 97.0789 81.2305 96.6857V96.2H78.1096C77.4934 96.1556 76.8805 96.3229 76.3726 96.6741C76.1779 96.8206 76.0212 97.0114 75.9154 97.2307C75.8097 97.45 75.758 97.6913 75.7646 97.9346C75.7587 98.1658 75.8081 98.395 75.9088 98.6032C76.0095 98.8114 76.1586 98.9926 76.3436 99.1316C76.8061 99.4629 77.3674 99.628 77.9359 99.5999C78.7992 99.6315 79.6413 99.3291 80.2867 98.7557Z" fill="#1B1464"/>
<path d="M93.048 92.1814C93.7499 92.9562 94.1162 93.9769 94.0671 95.0205V100.531H92.6427V95.2807C92.6777 94.5219 92.4232 93.778 91.9305 93.1991C91.6993 92.9388 91.4132 92.7328 91.0929 92.5958C90.7726 92.4589 90.4259 92.3944 90.0776 92.4069C89.6439 92.3897 89.2117 92.4677 88.8115 92.6356C88.4113 92.8034 88.0529 93.057 87.7616 93.3784C87.1463 94.1482 86.8389 95.1187 86.8988 96.1018V100.531H85.4629V91.3199H86.8815V92.8522C87.2602 92.287 87.7796 91.8298 88.3886 91.5257C88.9977 91.2216 89.6756 91.0809 90.3556 91.1175C90.8543 91.0937 91.3523 91.1763 91.8166 91.3597C92.2808 91.5432 92.7006 91.8233 93.048 92.1814Z" fill="#1B1464"/>
<path d="M97.7729 97.7208C97.7962 98.001 97.8848 98.2719 98.0316 98.5119C98.1783 98.7518 98.3792 98.9542 98.6182 99.1028C99.1807 99.4439 99.8309 99.6127 100.488 99.5885C101.053 99.6142 101.611 99.4647 102.087 99.1606C102.278 99.0355 102.435 98.8637 102.541 98.6613C102.647 98.4589 102.7 98.2327 102.695 98.0042C102.695 97.345 102.191 96.9055 101.183 96.68L99.0641 96.2116C97.4737 95.8763 96.6766 95.0918 96.6727 93.8582C96.6619 93.4711 96.7421 93.0869 96.9071 92.7364C97.072 92.3859 97.317 92.0789 97.6223 91.8402C98.3562 91.2959 99.2571 91.0239 100.17 91.0712C101.058 91.0375 101.935 91.2822 102.677 91.7708C103.326 92.2197 103.776 92.9011 103.934 93.6732L102.567 93.9739C102.474 93.4757 102.192 93.0325 101.78 92.7365C101.295 92.4111 100.719 92.2491 100.135 92.2739C99.603 92.2427 99.0754 92.3891 98.6356 92.6902C98.4638 92.8154 98.3246 92.9801 98.2299 93.1703C98.1351 93.3605 98.0876 93.5707 98.0913 93.7831C98.0822 93.9365 98.1088 94.09 98.1691 94.2315C98.2294 94.373 98.3217 94.4985 98.4387 94.5984C98.7531 94.8282 99.1153 94.9843 99.4983 95.0552L101.722 95.5409C103.308 95.8955 104.102 96.6993 104.102 97.9521C104.115 98.3576 104.027 98.7601 103.846 99.1234C103.665 99.4867 103.397 99.7995 103.065 100.034C102.267 100.564 101.319 100.826 100.361 100.78C99.3934 100.816 98.4359 100.571 97.605 100.074C97.2531 99.8571 96.9559 99.5623 96.736 99.2124C96.5162 98.8626 96.3797 98.467 96.3369 98.0562L97.7729 97.7208Z" fill="#1B1464"/>
<path d="M108.276 92.5168V100.531H106.858V92.5168H105.248V91.3198H106.858V89.1515C106.838 88.7277 106.904 88.3043 107.052 87.9068C107.2 87.5093 107.428 87.1459 107.72 86.8386C108.027 86.5442 108.39 86.3158 108.789 86.1676C109.187 86.0194 109.612 85.9545 110.037 85.977C110.553 85.9745 111.065 86.0829 111.536 86.295L111.177 87.4515C110.848 87.3024 110.491 87.2255 110.129 87.226C109.882 87.2133 109.634 87.2537 109.403 87.3444C109.173 87.4352 108.964 87.5742 108.792 87.7522C108.448 88.135 108.269 88.6378 108.294 89.1515V91.3198H111.646V92.5168H108.276Z" fill="#1B1464"/>
<path d="M120.615 92.4704C121.083 92.9159 121.451 93.4556 121.694 94.0536C121.938 94.6517 122.052 95.2946 122.028 95.9398C122.048 96.5845 121.932 97.2261 121.689 97.8236C121.445 98.4211 121.08 98.9612 120.615 99.4091C119.671 100.286 118.43 100.773 117.141 100.773C115.852 100.773 114.611 100.286 113.667 99.4091C113.202 98.9612 112.836 98.4211 112.593 97.8236C112.35 97.2261 112.234 96.5845 112.254 95.9398C112.23 95.2946 112.344 94.6517 112.588 94.0536C112.831 93.4556 113.199 92.9159 113.667 92.4704C114.616 91.6037 115.855 91.123 117.141 91.123C118.427 91.123 119.666 91.6037 120.615 92.4704ZM119.602 98.4955C119.941 98.1592 120.207 97.7566 120.384 97.3129C120.56 96.8691 120.643 96.3938 120.627 95.9166C120.627 94.9896 120.258 94.1005 119.601 93.445C118.945 92.7895 118.055 92.4212 117.126 92.4212C116.198 92.4212 115.308 92.7895 114.652 93.445C113.995 94.1005 113.626 94.9896 113.626 95.9166C113.611 96.3942 113.695 96.8698 113.872 97.3135C114.049 97.7573 114.317 98.1597 114.657 98.4955C114.98 98.824 115.367 99.0831 115.795 99.2571C116.222 99.431 116.68 99.5162 117.141 99.5074C117.599 99.5155 118.053 99.4298 118.476 99.2558C118.899 99.0817 119.282 98.823 119.602 98.4955Z" fill="#1B1464"/>
<path d="M130.279 91.3024L130.169 92.667C130.053 92.667 129.874 92.667 129.625 92.667C129.106 92.6379 128.587 92.7304 128.111 92.9373C127.634 93.1441 127.213 93.4595 126.88 93.8582C126.204 94.7616 125.865 95.8716 125.919 96.9979V100.548H124.489V91.3197H125.931V93.5806C126.795 92.0117 128.03 91.2272 129.636 91.2272C129.853 91.2221 130.069 91.2474 130.279 91.3024Z" fill="#1B1464"/>
<path d="M145.819 92.0599C146.148 92.3879 146.405 92.7801 146.574 93.212C146.744 93.6438 146.822 94.106 146.804 94.5694V100.531H145.379V94.8296C145.392 94.511 145.34 94.1932 145.226 93.8951C145.113 93.5971 144.941 93.3249 144.719 93.0949C144.491 92.8713 144.219 92.6972 143.92 92.5838C143.621 92.4703 143.302 92.4199 142.982 92.4358C142.593 92.4202 142.205 92.4933 141.848 92.6496C141.49 92.8058 141.174 93.0412 140.921 93.3378C140.375 94.0587 140.104 94.9506 140.157 95.8531V100.56H138.732V94.8296C138.745 94.511 138.693 94.1932 138.579 93.8951C138.466 93.5971 138.293 93.3249 138.072 93.0949C137.849 92.8763 137.583 92.7052 137.292 92.5919C137 92.4786 136.688 92.4255 136.376 92.4358C135.988 92.4189 135.601 92.4915 135.245 92.6479C134.89 92.8044 134.575 93.0404 134.326 93.3378C133.784 94.0606 133.515 94.9516 133.568 95.8531V100.56H132.149V91.3198H133.568V92.7191C133.898 92.1917 134.364 91.7626 134.917 91.4768C135.47 91.1909 136.09 91.0588 136.712 91.0943C137.378 91.0836 138.035 91.2556 138.611 91.5915C139.157 91.9096 139.592 92.3882 139.856 92.962C140.211 92.3654 140.722 91.8764 141.334 91.5474C141.946 91.2185 142.635 91.0618 143.33 91.0943C143.789 91.0769 144.246 91.1537 144.675 91.3198C145.103 91.4858 145.492 91.7377 145.819 92.0599Z" fill="#1B1464"/>
<path d="M156.196 92.0019C156.545 92.3247 156.819 92.7207 156.997 93.1616C157.175 93.6024 157.253 94.0773 157.226 94.5519V100.531H155.842V99.1315C155.445 99.671 154.919 100.103 154.313 100.39C153.706 100.677 153.038 100.808 152.368 100.774C151.49 100.816 150.626 100.539 149.936 99.9931C149.643 99.7333 149.41 99.4135 149.252 99.0555C149.094 98.6975 149.015 98.3097 149.02 97.9184C149.026 97.5272 149.116 97.1418 149.284 96.7883C149.452 96.4349 149.694 96.1218 149.994 95.8703C150.785 95.2956 151.752 95.0154 152.727 95.0781H155.831V94.6444C155.846 94.3354 155.797 94.0266 155.687 93.7371C155.578 93.4477 155.41 93.1838 155.194 92.9618C154.96 92.7487 154.686 92.5846 154.388 92.4793C154.089 92.374 153.773 92.3296 153.457 92.3489C152.84 92.3236 152.231 92.4958 151.72 92.8404C151.496 92.9996 151.307 93.2018 151.163 93.4352C151.018 93.6685 150.922 93.9283 150.88 94.1992L149.514 93.8985C149.584 93.4919 149.735 93.1032 149.956 92.7549C150.178 92.4066 150.466 92.1055 150.805 91.8689C151.56 91.3395 152.465 91.0677 153.387 91.0941C154.404 91.0335 155.407 91.3576 156.196 92.0019ZM154.899 98.7557C155.199 98.5018 155.44 98.1844 155.603 97.8264C155.766 97.4685 155.848 97.0789 155.842 96.6856V96.1999H152.716C152.109 96.1613 151.507 96.3284 151.008 96.674C150.813 96.8205 150.656 97.0114 150.55 97.2306C150.445 97.4499 150.393 97.6913 150.4 97.9346C150.394 98.1657 150.443 98.3949 150.544 98.6031C150.645 98.8113 150.794 98.9925 150.979 99.1315C151.441 99.4637 152.002 99.6288 152.571 99.5999C153.426 99.6254 154.259 99.3234 154.899 98.7557Z" fill="#1B1464"/>
<path d="M158.708 103L159.942 98.085H161.627V98.1254L159.832 103H158.708Z" fill="#1B1464"/>
<path d="M174.556 98.9062C175.101 98.5374 175.508 97.9985 175.714 97.3739L177.022 97.7324C176.754 98.6323 176.181 99.4111 175.401 99.9355C174.599 100.494 173.641 100.788 172.663 100.774C172.034 100.788 171.409 100.676 170.825 100.446C170.24 100.215 169.708 99.8709 169.258 99.4324C168.355 98.4943 167.851 97.2438 167.851 95.9428C167.851 94.6418 168.355 93.3913 169.258 92.4532C170.073 91.6715 171.132 91.1937 172.258 91.1C173.384 91.0063 174.508 91.3024 175.442 91.9386C176.226 92.4766 176.805 93.2629 177.086 94.1705L175.72 94.5811C175.526 93.9304 175.118 93.3641 174.562 92.9736C174.017 92.5936 173.368 92.3915 172.703 92.3954C172.252 92.3856 171.803 92.4683 171.385 92.6383C170.966 92.8084 170.587 93.0622 170.271 93.3841C169.634 94.0775 169.28 94.9843 169.28 95.9254C169.28 96.8665 169.634 97.7734 170.271 98.4668C170.84 99.0076 171.573 99.3433 172.354 99.4208C173.136 99.4984 173.921 99.3132 174.585 98.8947L174.556 98.9062Z" fill="#1B1464"/>
<path d="M185.766 92.002C186.114 92.3255 186.387 92.7216 186.566 93.1623C186.744 93.603 186.823 94.0775 186.796 94.552V100.531H185.413V99.1316C185.015 99.671 184.489 100.103 183.883 100.39C183.276 100.677 182.608 100.809 181.938 100.774C181.058 100.817 180.192 100.54 179.501 99.9931C179.208 99.7333 178.974 99.4136 178.816 99.0556C178.658 98.6976 178.579 98.3097 178.585 97.9185C178.59 97.5273 178.68 97.1418 178.848 96.7884C179.016 96.435 179.259 96.1219 179.559 95.8704C180.35 95.2966 181.316 95.0164 182.292 95.0782H185.401V94.6445C185.416 94.3354 185.367 94.0266 185.257 93.7372C185.148 93.4478 184.98 93.1839 184.764 92.9619C184.53 92.7498 184.255 92.5864 183.957 92.4812C183.659 92.376 183.343 92.331 183.027 92.349C182.41 92.3237 181.802 92.4959 181.29 92.8404C181.066 92.9994 180.875 93.2014 180.73 93.4348C180.585 93.6681 180.488 93.928 180.445 94.1993L179.078 93.8986C179.223 93.0782 179.687 92.3485 180.369 91.869C181.124 91.3403 182.03 91.0686 182.952 91.0942C183.97 91.0355 184.974 91.3593 185.766 92.002V92.002ZM184.463 98.7557C184.764 98.5021 185.006 98.185 185.17 97.827C185.334 97.4691 185.417 97.0793 185.413 96.6857V96.2H182.286C181.67 96.1566 181.057 96.3238 180.549 96.6741C180.354 96.8206 180.197 97.0114 180.092 97.2307C179.986 97.45 179.934 97.6913 179.941 97.9346C179.936 98.1656 179.986 98.3943 180.087 98.6023C180.188 98.8102 180.336 98.9916 180.52 99.1316C180.982 99.4629 181.544 99.628 182.112 99.5999C182.976 99.6333 183.818 99.3307 184.463 98.7557V98.7557Z" fill="#1B1464"/>
<path d="M203.293 92.0599C203.62 92.3884 203.876 92.7808 204.044 93.2127C204.213 93.6445 204.29 94.1064 204.271 94.5694V100.531H202.853V94.8296C202.864 94.5107 202.811 94.1927 202.697 93.8946C202.582 93.5966 202.409 93.3246 202.187 93.0949C201.959 92.8713 201.686 92.6972 201.388 92.5838C201.089 92.4703 200.769 92.4199 200.45 92.4358C200.061 92.4202 199.674 92.4934 199.318 92.6497C198.962 92.806 198.646 93.0413 198.394 93.3378C197.844 94.0567 197.57 94.9495 197.624 95.8531V100.56H196.229V94.8296C196.24 94.5107 196.187 94.1927 196.073 93.8946C195.958 93.5966 195.785 93.3246 195.563 93.0949C195.339 92.8763 195.074 92.7052 194.782 92.5919C194.491 92.4786 194.179 92.4255 193.866 92.4358C193.479 92.4202 193.092 92.4934 192.737 92.6498C192.382 92.8061 192.067 93.0414 191.817 93.3378C191.277 94.0614 191.01 94.9523 191.064 95.8531V100.56H189.64V91.3198H191.076V92.7191C191.406 92.1917 191.872 91.7626 192.425 91.4768C192.978 91.1909 193.598 91.0588 194.22 91.0943C194.886 91.0842 195.543 91.2561 196.119 91.5915C196.664 91.9111 197.098 92.3892 197.364 92.962C197.718 92.3649 198.229 91.8756 198.841 91.5466C199.453 91.2176 200.143 91.0612 200.838 91.0943C201.291 91.0824 201.742 91.1617 202.164 91.3276C202.586 91.4935 202.97 91.7426 203.293 92.0599Z" fill="#1B1464"/>
<path d="M215.678 92.4532C216.553 93.403 217.038 94.6465 217.038 95.937C217.038 97.2275 216.553 98.471 215.678 99.4208C215.258 99.8553 214.754 100.2 214.197 100.432C213.639 100.665 213.04 100.781 212.435 100.774C211.723 100.81 211.014 100.667 210.372 100.356C209.73 100.046 209.177 99.5791 208.764 98.9987V100.531H207.34V86.1562H208.764V92.8811C209.178 92.3015 209.731 91.8352 210.373 91.525C211.014 91.2148 211.723 91.0707 212.435 91.1059C213.039 91.0968 213.639 91.2117 214.196 91.4435C214.754 91.6752 215.258 92.0189 215.678 92.4532ZM214.659 98.5246C215.301 97.8096 215.656 96.883 215.656 95.9225C215.656 94.9621 215.301 94.0355 214.659 93.3205C214.009 92.6866 213.138 92.3316 212.23 92.3316C211.322 92.3316 210.45 92.6866 209.801 93.3205C209.135 94.0147 208.764 94.9385 208.764 95.8994C208.764 96.8603 209.135 97.7842 209.801 98.4783C210.45 99.1123 211.322 99.4672 212.23 99.4672C213.138 99.4672 214.009 99.1123 214.659 98.4783V98.5246Z" fill="#1B1464"/>
<path d="M221.051 87.8909C221.144 87.9773 221.218 88.0821 221.268 88.1986C221.317 88.3151 221.342 88.4408 221.341 88.5675C221.345 88.6939 221.321 88.8198 221.272 88.9365C221.223 89.0532 221.15 89.158 221.057 89.244C220.964 89.335 220.853 89.406 220.732 89.4527C220.61 89.4995 220.481 89.5209 220.351 89.5158C220.222 89.5203 220.094 89.4986 219.975 89.4518C219.855 89.4051 219.747 89.3343 219.656 89.244C219.565 89.1568 219.493 89.0516 219.445 88.9351C219.397 88.8186 219.374 88.6934 219.378 88.5675C219.375 88.4417 219.399 88.3168 219.447 88.2004C219.494 88.0841 219.566 87.9787 219.656 87.8909C219.746 87.7998 219.855 87.7282 219.974 87.6804C220.094 87.6327 220.222 87.6099 220.351 87.6134C220.48 87.6114 220.608 87.6349 220.729 87.6825C220.849 87.7302 220.958 87.801 221.051 87.8909ZM219.638 100.56V91.3198H221.08V100.531L219.638 100.56Z" fill="#1B1464"/>
<path d="M230.848 92.0021C231.196 92.3255 231.47 92.7217 231.648 93.1624C231.826 93.6031 231.905 94.0775 231.878 94.5521V100.531H230.489V99.1316C230.091 99.6711 229.565 100.104 228.959 100.39C228.353 100.677 227.685 100.809 227.015 100.774C226.136 100.816 225.272 100.539 224.583 99.9932C224.29 99.7334 224.056 99.4136 223.898 99.0556C223.74 98.6976 223.661 98.3098 223.667 97.9186C223.672 97.5274 223.762 97.1419 223.93 96.7885C224.098 96.435 224.341 96.1219 224.641 95.8704C225.431 95.2958 226.398 95.0155 227.374 95.0783H230.477V94.6446C230.493 94.3354 230.445 94.0262 230.336 93.7365C230.226 93.4469 230.057 93.1831 229.84 92.9619C229.607 92.7488 229.332 92.5847 229.034 92.4794C228.736 92.3741 228.419 92.3298 228.103 92.349C227.487 92.3238 226.878 92.496 226.366 92.8405C226.141 92.9987 225.95 93.2006 225.805 93.434C225.66 93.6675 225.563 93.9278 225.521 94.1994L224.154 93.8987C224.225 93.492 224.375 93.1034 224.597 92.755C224.819 92.4067 225.107 92.1056 225.446 91.8691C226.201 91.3404 227.106 91.0687 228.028 91.0943C229.049 91.0341 230.055 91.358 230.848 92.0021ZM229.545 98.7558C229.846 98.5019 230.086 98.1845 230.25 97.8266C230.413 97.4686 230.495 97.079 230.489 96.6857V96.2H227.368C226.752 96.1557 226.139 96.323 225.631 96.6742C225.436 96.8207 225.28 97.0115 225.174 97.2308C225.068 97.4501 225.016 97.6914 225.023 97.9347C225.017 98.1659 225.066 98.3951 225.167 98.6033C225.268 98.8115 225.417 98.9926 225.602 99.1316C226.064 99.463 226.626 99.6281 227.194 99.6C228.057 99.6316 228.9 99.3291 229.545 98.7558Z" fill="#1B1464"/>
<path d="M233.344 103L234.577 98.085H236.262V98.1254L234.467 103H233.344Z" fill="#1B1464"/>
<path d="M244.924 87.8909C245.017 87.9773 245.09 88.0821 245.14 88.1986C245.19 88.3151 245.215 88.4408 245.213 88.5675C245.217 88.6939 245.194 88.8198 245.145 88.9365C245.096 89.0532 245.022 89.158 244.93 89.244C244.837 89.335 244.726 89.406 244.604 89.4527C244.483 89.4995 244.353 89.5209 244.223 89.5158C244.095 89.5203 243.967 89.4986 243.847 89.4518C243.728 89.4051 243.619 89.3343 243.528 89.244C243.437 89.1568 243.365 89.0516 243.318 88.9351C243.27 88.8186 243.247 88.6934 243.25 88.5675C243.248 88.4417 243.271 88.3168 243.319 88.2004C243.367 88.0841 243.438 87.9787 243.528 87.8909C243.619 87.7998 243.727 87.7282 243.847 87.6804C243.966 87.6327 244.094 87.6099 244.223 87.6134C244.352 87.6114 244.481 87.6349 244.601 87.6825C244.721 87.7302 244.831 87.801 244.924 87.8909ZM243.511 100.56V91.3198H244.953V100.531L243.511 100.56Z" fill="#1B1464"/>
<path d="M255.989 92.1814C256.688 92.9579 257.054 93.9774 257.008 95.0205V100.531H255.584V95.2807C255.618 94.523 255.366 93.78 254.877 93.1991C254.646 92.9388 254.36 92.7328 254.04 92.5958C253.719 92.4589 253.373 92.3944 253.024 92.4069C252.591 92.3893 252.158 92.4671 251.758 92.635C251.358 92.8029 250.999 93.0567 250.708 93.3784C250.09 94.1469 249.783 95.1183 249.845 96.1018V100.531H248.398V91.3199H249.822V92.8522C250.201 92.287 250.72 91.8298 251.329 91.5257C251.939 91.2216 252.616 91.0809 253.296 91.1175C253.795 91.0941 254.293 91.1768 254.757 91.3602C255.221 91.5437 255.641 91.8236 255.989 92.1814Z" fill="#1B1464"/>
<path d="M267.668 92.1814C268.367 92.9578 268.733 93.9773 268.687 95.0205V100.531H267.263V95.2807C267.298 94.5218 267.043 93.7779 266.55 93.199C266.319 92.9384 266.033 92.7322 265.713 92.5952C265.393 92.4582 265.046 92.3939 264.697 92.4069C264.264 92.3896 263.832 92.4676 263.431 92.6355C263.031 92.8034 262.673 93.0569 262.381 93.3783C261.768 94.1487 261.462 95.1193 261.524 96.1018V100.531H260.1V91.3198H261.524V92.8521C261.903 92.2865 262.422 91.829 263.031 91.5248C263.64 91.2207 264.319 91.0802 264.999 91.1174C265.493 91.0973 265.987 91.1816 266.447 91.365C266.907 91.5483 267.323 91.8265 267.668 92.1814Z" fill="#1B1464"/>
<path d="M279.289 92.4705C279.755 92.917 280.122 93.4568 280.366 94.0546C280.609 94.6525 280.724 95.2949 280.701 95.9399C280.719 96.5843 280.602 97.2252 280.359 97.8224C280.116 98.4195 279.751 98.9598 279.289 99.4093C278.344 100.285 277.103 100.771 275.814 100.771C274.526 100.771 273.285 100.285 272.34 99.4093C271.878 98.9598 271.513 98.4195 271.27 97.8224C271.027 97.2252 270.91 96.5843 270.928 95.9399C270.905 95.2949 271.02 94.6525 271.263 94.0546C271.507 93.4568 271.874 92.917 272.34 92.4705C273.29 91.6051 274.529 91.1252 275.814 91.1252C277.1 91.1252 278.339 91.6051 279.289 92.4705ZM278.275 98.4957C278.614 98.1589 278.879 97.756 279.054 97.3123C279.229 96.8686 279.311 96.3935 279.294 95.9168C279.305 95.4544 279.223 94.9945 279.053 94.5642C278.884 94.1339 278.63 93.7419 278.306 93.4111C277.982 93.0803 277.596 92.8175 277.169 92.6381C276.742 92.4587 276.283 92.3663 275.82 92.3665C275.36 92.36 274.902 92.4451 274.475 92.6168C274.047 92.7886 273.658 93.0435 273.33 93.3668C272.991 93.6972 272.724 94.0945 272.546 94.5335C272.369 94.9725 272.285 95.4436 272.3 95.9168C272.284 96.3944 272.368 96.8699 272.545 97.3137C272.723 97.7575 272.99 98.1599 273.33 98.4957C273.655 98.8237 274.044 99.0825 274.471 99.2565C274.899 99.4304 275.358 99.5158 275.82 99.5076C276.277 99.5148 276.73 99.4288 277.152 99.2548C277.575 99.0808 277.957 98.8225 278.275 98.4957Z" fill="#1B1464"/>
<path d="M287.158 100.531H285.6L281.547 91.3198H283.099L286.411 98.8368L289.705 91.3198H291.245L287.158 100.531Z" fill="#1B1464"/>
<path d="M299.299 92.0019C299.649 92.3247 299.923 92.7207 300.101 93.1616C300.279 93.6024 300.357 94.0773 300.33 94.5519V100.531H298.946V99.1315C298.548 99.671 298.023 100.103 297.416 100.39C296.81 100.677 296.142 100.808 295.472 100.774C294.593 100.818 293.728 100.541 293.04 99.9931C292.747 99.7337 292.513 99.4142 292.354 99.0565C292.196 98.6987 292.116 98.311 292.121 97.9198C292.126 97.5285 292.216 97.143 292.383 96.7893C292.551 96.4357 292.793 96.1222 293.092 95.8703C293.883 95.2965 294.85 95.0164 295.825 95.0781H298.935V94.6444C298.949 94.3354 298.901 94.0266 298.791 93.7371C298.681 93.4477 298.514 93.1838 298.298 92.9618C298.064 92.7487 297.79 92.5846 297.491 92.4793C297.193 92.374 296.877 92.3296 296.561 92.3489C295.944 92.3236 295.335 92.4958 294.824 92.8404C294.599 92.9987 294.409 93.2006 294.265 93.4341C294.121 93.6677 294.025 93.9279 293.984 94.1992L292.618 93.8985C292.687 93.4915 292.837 93.1023 293.058 92.7539C293.28 92.4054 293.569 92.1045 293.909 91.8689C294.663 91.3387 295.569 91.0669 296.491 91.0941C297.508 91.0335 298.511 91.3576 299.299 92.0019ZM298.002 98.7557C298.302 98.501 298.542 98.1835 298.705 97.8257C298.869 97.4679 298.951 97.0787 298.946 96.6856V96.1999H295.82C295.203 96.1565 294.591 96.3237 294.082 96.674C293.888 96.8205 293.731 97.0114 293.625 97.2306C293.52 97.4499 293.468 97.6913 293.475 97.9346C293.469 98.1656 293.519 98.3947 293.619 98.6028C293.72 98.8109 293.869 98.9922 294.054 99.1315C294.514 99.4628 295.073 99.628 295.64 99.5999C296.507 99.6338 297.354 99.3313 298.002 98.7557Z" fill="#1B1464"/>
</g>
<defs>
<linearGradient id="paint0_linear_35_138" x1="120.106" y1="-31.4152" x2="58.6124" y2="100.034" gradientUnits="userSpaceOnUse">
<stop stop-color="#1B1464"/>
<stop offset="0.27" stop-color="#1B1665"/>
<stop offset="0.41" stop-color="#1A1E66"/>
<stop offset="0.53" stop-color="#192C6A"/>
<stop offset="0.62" stop-color="#173F6E"/>
<stop offset="0.71" stop-color="#155874"/>
<stop offset="0.79" stop-color="#12777C"/>
<stop offset="0.87" stop-color="#0F9C85"/>
<stop offset="0.94" stop-color="#0BC58F"/>
<stop offset="1" stop-color="#07EF99"/>
</linearGradient>
<linearGradient id="paint1_linear_35_138" x1="91.4558" y1="-23.0944" x2="117.742" y2="58.4279" gradientUnits="userSpaceOnUse">
<stop stop-color="#1B1464"/>
<stop offset="0.08" stop-color="#192668"/>
<stop offset="0.24" stop-color="#155474"/>
<stop offset="0.46" stop-color="#0E9E85"/>
<stop offset="0.69" stop-color="#07EF99"/>
</linearGradient>
<linearGradient id="paint2_linear_35_138" x1="65.6722" y1="-9.37305" x2="17.9459" y2="27.3436" gradientUnits="userSpaceOnUse">
<stop stop-color="#1B1464"/>
<stop offset="0.27" stop-color="#1B1665"/>
<stop offset="0.41" stop-color="#1A1E66"/>
<stop offset="0.53" stop-color="#192C6A"/>
<stop offset="0.62" stop-color="#173F6E"/>
<stop offset="0.71" stop-color="#155874"/>
<stop offset="0.79" stop-color="#12777C"/>
<stop offset="0.87" stop-color="#0F9C85"/>
<stop offset="0.94" stop-color="#0BC58F"/>
<stop offset="1" stop-color="#07EF99"/>
</linearGradient>
<linearGradient id="paint3_linear_35_138" x1="82.093" y1="116.617" x2="62.0685" y2="49.7822" gradientUnits="userSpaceOnUse">
<stop stop-color="#1B1464"/>
<stop offset="0.11" stop-color="#1A1A65"/>
<stop offset="0.24" stop-color="#192969"/>
<stop offset="0.39" stop-color="#17436F"/>
<stop offset="0.56" stop-color="#136878"/>
<stop offset="0.73" stop-color="#0F9784"/>
<stop offset="0.91" stop-color="#0ACF91"/>
<stop offset="1" stop-color="#07EF99"/>
</linearGradient>
<clipPath id="clip0_35_138">
<rect width="307" height="103" fill="white"/>
</clipPath>
</defs>
</svg>
