<svg width="307" height="103" viewBox="0 0 307 103" fill="none" xmlns="http://www.w3.org/2000/svg">
<g clip-path="url(#clip0_35_138)">
<path d="M114.808 4.21533L99.1395 48.4904L88.4045 78.8127L88.3524 78.9688H57.0103L57.0682 78.8127L72.7363 34.5435L83.4713 4.21533L83.7839 3.33643H114.501L114.808 4.21533Z" fill="url(#paint0_linear_35_138)"/>
<path d="M141.269 78.9688H109.926L99.1394 48.4904L83.4712 4.21533L83.7839 3.33643H114.501L114.808 4.21533L141.269 78.9688Z" fill="url(#paint1_linear_35_138)"/>
<path d="M50.7626 3.33643L45.9104 19.9547H45.9046L45.9452 19.8275H25.8359L30.5202 3.79323L30.6533 3.33643H50.7626Z" fill="url(#paint2_linear_35_138)"/>
<path d="M5.72087 19.8274H25.8359L19.9704 39.8977H0.434453C0.362911 39.9019 0.291456 39.8883 0.22646 39.8581C0.161464 39.828 0.104947 39.7822 0.0619501 39.725C0.018953 39.6677 -0.00918838 39.6008 -0.0199644 39.53C-0.0307404 39.4592 -0.0238162 39.3869 0.000190848 39.3195L5.72087 19.8274Z" fill="#00FF98"/>
<path d="M88.4621 78.9688H57.1258L57.0679 78.8127L36.1944 19.8275L30.52 3.79323L30.6532 3.33643H61.6942L72.7361 34.5435L88.4042 78.8127L88.4621 78.9688Z" fill="url(#paint3_linear_35_138)"/>
<path d="M188.8 37.0067H180.311V15.1034L171.418 37.0067H166.531L157.631 15.1034V37.0067H149.143V2.56738H160.926L168.998 23.0136L177.104 2.56738H188.777L188.8 37.0067Z" fill="#1B1464"/>
<path d="M190.137 24.1411C190.137 16.4853 195.487 10.5295 203.976 10.5295C212.464 10.5295 217.808 16.4853 217.808 24.1411C217.808 31.8951 212.354 37.7526 203.976 37.7526C195.597 37.7526 190.137 31.8951 190.137 24.1411ZM209.824 24.1931C209.824 20.8509 207.508 18.2316 203.964 18.2316C200.421 18.2316 198.099 20.8509 198.099 24.1931C198.074 24.9774 198.207 25.7587 198.491 26.4905C198.774 27.2224 199.202 27.8899 199.749 28.4534C200.296 29.0169 200.951 29.465 201.674 29.7709C202.398 30.0769 203.175 30.2346 203.961 30.2346C204.747 30.2346 205.525 30.0769 206.248 29.7709C206.972 29.465 207.627 29.0169 208.173 28.4534C208.72 27.8899 209.148 27.2224 209.432 26.4905C209.715 25.7587 209.848 24.9774 209.824 24.1931Z" fill="#1B1464"/>
<path d="M234.137 21.5564C233.816 21.5548 233.5 21.4838 233.21 21.3482L230.848 27.5815L224.212 11.2986H215.672L226.424 37.0067H234.391L240.871 21.5564H234.137Z" fill="#1B1464"/>
<path d="M253.43 17.0347V37.0067H245.457V17.0347H253.43Z" fill="#1B1464"/>
<path d="M256 0H263.974V27.6336C263.974 28.6628 264.692 29.2758 265.774 29.2758H268.86V37.0067H264.124C258.982 37.0067 256.018 34.0751 256.018 29.2006L256 0Z" fill="#1B1464"/>
<path d="M237.026 11.2986H245.132L241.658 19.5962H234.131C234.104 19.5964 234.077 19.59 234.054 19.5774C234.03 19.5648 234.009 19.5465 233.995 19.5241C233.98 19.5017 233.97 19.476 233.968 19.4492C233.965 19.4224 233.97 19.3954 233.98 19.3707L237.026 11.2986Z" fill="#00FF98"/>
<path d="M247.165 5.96729H252.451L250.135 11.3448H245.271C245.254 11.3448 245.237 11.3406 245.221 11.3327C245.206 11.3248 245.193 11.3133 245.182 11.2991C245.172 11.285 245.166 11.2687 245.163 11.2515C245.16 11.2343 245.162 11.2168 245.167 11.2003L247.165 5.96729Z" fill="#00FF98"/>
<path d="M200.838 51.7342C197.732 51.6697 194.709 52.7334 192.33 54.7275C189.951 56.7217 188.378 59.5106 187.903 62.576H178.783C178.674 63.4222 178.52 64.2618 178.32 65.0913C176.936 69.9253 172.675 73.6665 166.635 73.6665C159.108 73.6665 153.978 67.7627 153.978 60.6736C153.978 53.6886 159.126 47.6288 166.635 47.6288C169.261 47.5953 171.826 48.4202 173.939 49.9778C176.051 51.5354 177.596 53.7401 178.337 56.256H183.583C181.887 48.5019 175.355 42.7485 166.508 42.7485C155.964 42.7485 148.917 50.9652 148.917 60.6736C148.917 70.3821 155.964 78.5467 166.508 78.5467C174.771 78.5467 180.931 73.626 183.155 66.7855H187.735C188.418 73.3195 193.299 78.5988 200.919 78.5988C206.883 78.5988 211.671 75.3665 213.368 69.9716H208.272C207.143 72.3828 204.416 73.9267 201.122 73.9267C196.489 73.9267 193.201 70.8447 192.842 66.8896H213.877C214.572 58.4012 209.274 51.7342 200.838 51.7342ZM192.969 62.576C193.319 60.7948 194.292 59.1963 195.715 58.0668C197.138 56.9373 198.917 56.3507 200.734 56.4121C204.787 56.4121 207.832 58.9274 208.602 62.576H192.969Z" fill="#00FF98"/>
<path d="M228.955 51.7343C227.268 51.7132 225.599 52.0773 224.074 52.7989C222.55 53.5204 221.211 54.5803 220.16 55.8975H219.951V52.4281H215.168V77.8702H220.055V65.1954C220.055 60.107 223.246 56.4642 227.924 56.4642C232.348 56.4642 234.919 59.7485 234.919 64.1662V77.8818H239.806V63.2931C239.806 56.256 235.434 51.7343 228.955 51.7343Z" fill="#00FF98"/>
<path d="M249.324 43.4656H244.437V52.457H239.805V57.1812H244.437V71.5097C244.437 75.6209 246.753 77.8702 250.916 77.8702H260.893V73.0941H251.872C250.227 73.0941 249.301 72.1689 249.301 70.573V57.1812H260.881V52.457H249.301L249.324 43.4656Z" fill="#00FF98"/>
<path d="M274.842 51.7341C267.025 51.7341 261.675 57.7477 261.675 65.1953C261.675 72.4347 266.712 78.5987 274.94 78.5987C280.91 78.5987 285.692 75.3664 287.389 69.9715H282.299C281.141 72.3827 278.437 73.9266 275.149 73.9266C270.516 73.9266 267.228 70.8446 266.869 66.8895H287.904C288.57 58.4011 283.272 51.7341 274.842 51.7341ZM266.973 62.5759C267.322 60.7942 268.295 59.195 269.718 58.0653C271.141 56.9356 272.921 56.3494 274.737 56.412C278.791 56.412 281.836 58.9273 282.606 62.5759H266.973Z" fill="#00FF98"/>
<path d="M302.113 52.457C298.466 52.457 295.791 53.9431 294.453 56.8227H294.245V52.457H289.508V77.8991H294.395V65.658C294.395 60.4193 297.533 57.3893 302.16 57.3893H306.995V52.457H302.113Z" fill="#00FF98"/>
<path d="M58.4609 88.7812V103H55.7852V88.7812H58.4609ZM62.875 88.7812V90.9004H51.4199V88.7812H62.875ZM66.3613 94.5918V103H63.7832V92.4336H66.2246L66.3613 94.5918ZM69.5742 92.3652L69.5352 94.7676C69.3919 94.7415 69.2292 94.722 69.0469 94.709C68.8711 94.696 68.7051 94.6895 68.5488 94.6895C68.1517 94.6895 67.8034 94.7448 67.5039 94.8555C67.2044 94.9596 66.9538 95.1126 66.752 95.3145C66.5566 95.5163 66.4069 95.7637 66.3027 96.0566C66.1986 96.3431 66.14 96.6686 66.127 97.0332L65.5703 96.9648C65.5703 96.2943 65.6387 95.6725 65.7754 95.0996C65.9121 94.5267 66.1107 94.0254 66.3711 93.5957C66.6315 93.166 66.957 92.834 67.3477 92.5996C67.7448 92.3587 68.2005 92.2383 68.7148 92.2383C68.8581 92.2383 69.0111 92.2513 69.1738 92.2773C69.3431 92.2969 69.4766 92.3262 69.5742 92.3652ZM76.4785 100.754V95.8809C76.4785 95.5228 76.4167 95.2135 76.293 94.9531C76.1693 94.6927 75.9805 94.4909 75.7266 94.3477C75.4727 94.2044 75.1504 94.1328 74.7598 94.1328C74.4147 94.1328 74.112 94.1914 73.8516 94.3086C73.5977 94.4258 73.4023 94.5918 73.2656 94.8066C73.1289 95.015 73.0605 95.2559 73.0605 95.5293H70.4727C70.4727 95.0931 70.5768 94.6797 70.7852 94.2891C70.9935 93.8919 71.2897 93.5404 71.6738 93.2344C72.0645 92.9219 72.5299 92.6777 73.0703 92.502C73.6172 92.3262 74.2292 92.2383 74.9062 92.2383C75.707 92.2383 76.4199 92.375 77.0449 92.6484C77.6764 92.9154 78.1712 93.319 78.5293 93.8594C78.8939 94.3997 79.0762 95.0801 79.0762 95.9004V100.51C79.0762 101.037 79.1087 101.49 79.1738 101.867C79.2454 102.238 79.3496 102.561 79.4863 102.834V103H76.8594C76.7357 102.733 76.6413 102.395 76.5762 101.984C76.5111 101.568 76.4785 101.158 76.4785 100.754ZM76.8398 96.5645L76.8594 98.0977H75.2285C74.8249 98.0977 74.4701 98.14 74.1641 98.2246C73.8581 98.3027 73.6074 98.4199 73.4121 98.5762C73.2168 98.7259 73.0703 98.9082 72.9727 99.123C72.875 99.3314 72.8262 99.569 72.8262 99.8359C72.8262 100.096 72.8848 100.331 73.002 100.539C73.1257 100.747 73.3014 100.913 73.5293 101.037C73.7637 101.154 74.0371 101.213 74.3496 101.213C74.8053 101.213 75.2025 101.122 75.541 100.939C75.8796 100.751 76.1432 100.523 76.332 100.256C76.5208 99.9889 76.6217 99.735 76.6348 99.4941L77.377 100.607C77.2858 100.874 77.1491 101.158 76.9668 101.457C76.7845 101.757 76.5501 102.036 76.2637 102.297C75.9772 102.557 75.6322 102.772 75.2285 102.941C74.8249 103.111 74.3561 103.195 73.8223 103.195C73.1387 103.195 72.5267 103.059 71.9863 102.785C71.446 102.512 71.0195 102.137 70.707 101.662C70.3945 101.187 70.2383 100.646 70.2383 100.041C70.2383 99.4811 70.3424 98.9863 70.5508 98.5566C70.7591 98.127 71.0684 97.7656 71.4785 97.4727C71.8887 97.1732 72.3965 96.9486 73.002 96.7988C73.6139 96.6426 74.3138 96.5645 75.1016 96.5645H76.8398ZM83.9297 94.6895V103H81.3516V92.4336H83.7734L83.9297 94.6895ZM83.5195 97.3359H82.7578C82.7643 96.5677 82.8685 95.8711 83.0703 95.2461C83.2721 94.6211 83.5553 94.084 83.9199 93.6348C84.291 93.1855 84.7305 92.8405 85.2383 92.5996C85.7461 92.3587 86.3125 92.2383 86.9375 92.2383C87.4453 92.2383 87.9043 92.3099 88.3145 92.4531C88.7246 92.5964 89.0762 92.8242 89.3691 93.1367C89.6686 93.4492 89.8965 93.8594 90.0527 94.3672C90.2155 94.8685 90.2969 95.487 90.2969 96.2227V103H87.6992V96.2031C87.6992 95.7214 87.6276 95.3405 87.4844 95.0605C87.3477 94.7806 87.1458 94.582 86.8789 94.4648C86.6185 94.3477 86.2962 94.2891 85.9121 94.2891C85.515 94.2891 85.1667 94.3704 84.8672 94.5332C84.5742 94.6895 84.3268 94.9076 84.125 95.1875C83.9297 95.4674 83.7799 95.7897 83.6758 96.1543C83.5716 96.5189 83.5195 96.9128 83.5195 97.3359ZM98.3828 100.109C98.3828 99.888 98.3242 99.6895 98.207 99.5137C98.0898 99.3379 97.8685 99.1784 97.543 99.0352C97.224 98.8854 96.7552 98.7454 96.1367 98.6152C95.5898 98.498 95.0853 98.3516 94.623 98.1758C94.1608 98 93.7637 97.7884 93.4316 97.541C93.0996 97.2871 92.8392 96.9909 92.6504 96.6523C92.4681 96.3073 92.377 95.9102 92.377 95.4609C92.377 95.0247 92.4714 94.6146 92.6602 94.2305C92.849 93.8398 93.1224 93.498 93.4805 93.2051C93.8385 92.9056 94.2747 92.6712 94.7891 92.502C95.3034 92.3262 95.8828 92.2383 96.5273 92.2383C97.4258 92.2383 98.1973 92.3848 98.8418 92.6777C99.4928 92.9707 99.9909 93.3743 100.336 93.8887C100.681 94.3965 100.854 94.9694 100.854 95.6074H98.2754C98.2754 95.3275 98.2103 95.0736 98.0801 94.8457C97.9564 94.6178 97.7643 94.4355 97.5039 94.2988C97.2435 94.1556 96.9147 94.084 96.5176 94.084C96.1595 94.084 95.8568 94.1426 95.6094 94.2598C95.3685 94.377 95.1862 94.5299 95.0625 94.7188C94.9388 94.9076 94.877 95.1159 94.877 95.3438C94.877 95.513 94.9095 95.666 94.9746 95.8027C95.0462 95.9329 95.1602 96.0534 95.3164 96.1641C95.4727 96.2747 95.6842 96.3757 95.9512 96.4668C96.2246 96.5579 96.5599 96.6458 96.957 96.7305C97.7448 96.8867 98.4316 97.0951 99.0176 97.3555C99.61 97.6094 100.072 97.9479 100.404 98.3711C100.736 98.7943 100.902 99.3346 100.902 99.9922C100.902 100.461 100.801 100.891 100.6 101.281C100.398 101.665 100.105 102.001 99.7207 102.287C99.3366 102.574 98.8776 102.798 98.3438 102.961C97.8099 103.117 97.2077 103.195 96.5371 103.195C95.5671 103.195 94.7467 103.023 94.0762 102.678C93.4056 102.326 92.8978 101.883 92.5527 101.35C92.2077 100.809 92.0352 100.249 92.0352 99.6699H94.5059C94.5254 100.08 94.6361 100.409 94.8379 100.656C95.0397 100.904 95.2936 101.083 95.5996 101.193C95.9121 101.298 96.2409 101.35 96.5859 101.35C96.9766 101.35 97.3053 101.298 97.5723 101.193C97.8392 101.083 98.041 100.936 98.1777 100.754C98.3145 100.565 98.3828 100.35 98.3828 100.109ZM106.244 103H103.646V91.457C103.646 90.6628 103.799 89.9954 104.105 89.4551C104.411 88.9082 104.848 88.4948 105.414 88.2148C105.98 87.9349 106.648 87.7949 107.416 87.7949C107.67 87.7949 107.911 87.8112 108.139 87.8438C108.373 87.8763 108.604 87.9219 108.832 87.9805L108.783 89.9434C108.66 89.9108 108.523 89.888 108.373 89.875C108.23 89.862 108.07 89.8555 107.895 89.8555C107.543 89.8555 107.243 89.9173 106.996 90.041C106.749 90.1647 106.56 90.347 106.43 90.5879C106.306 90.8223 106.244 91.112 106.244 91.457V103ZM108.383 92.4336V94.2891H102.055V92.4336H108.383ZM109.516 97.8242V97.6191C109.516 96.8444 109.626 96.1315 109.848 95.4805C110.069 94.8229 110.391 94.2533 110.814 93.7715C111.238 93.2897 111.755 92.9154 112.367 92.6484C112.979 92.375 113.676 92.2383 114.457 92.2383C115.251 92.2383 115.954 92.375 116.566 92.6484C117.185 92.9154 117.706 93.2897 118.129 93.7715C118.552 94.2533 118.874 94.8229 119.096 95.4805C119.317 96.1315 119.428 96.8444 119.428 97.6191V97.8242C119.428 98.5924 119.317 99.3053 119.096 99.9629C118.874 100.614 118.552 101.184 118.129 101.672C117.706 102.154 117.188 102.528 116.576 102.795C115.964 103.062 115.264 103.195 114.477 103.195C113.695 103.195 112.995 103.062 112.377 102.795C111.758 102.528 111.238 102.154 110.814 101.672C110.391 101.184 110.069 100.614 109.848 99.9629C109.626 99.3053 109.516 98.5924 109.516 97.8242ZM112.094 97.6191V97.8242C112.094 98.2865 112.139 98.7194 112.23 99.123C112.322 99.5267 112.462 99.8815 112.65 100.188C112.839 100.493 113.083 100.734 113.383 100.91C113.689 101.079 114.053 101.164 114.477 101.164C114.893 101.164 115.251 101.079 115.551 100.91C115.85 100.734 116.094 100.493 116.283 100.188C116.479 99.8815 116.622 99.5267 116.713 99.123C116.804 98.7194 116.85 98.2865 116.85 97.8242V97.6191C116.85 97.1634 116.804 96.737 116.713 96.3398C116.622 95.9362 116.479 95.5814 116.283 95.2754C116.094 94.9629 115.847 94.7188 115.541 94.543C115.242 94.3607 114.88 94.2695 114.457 94.2695C114.04 94.2695 113.682 94.3607 113.383 94.543C113.083 94.7188 112.839 94.9629 112.65 95.2754C112.462 95.5814 112.322 95.9362 112.23 96.3398C112.139 96.737 112.094 97.1634 112.094 97.6191ZM123.881 94.5918V103H121.303V92.4336H123.744L123.881 94.5918ZM127.094 92.3652L127.055 94.7676C126.911 94.7415 126.749 94.722 126.566 94.709C126.391 94.696 126.225 94.6895 126.068 94.6895C125.671 94.6895 125.323 94.7448 125.023 94.8555C124.724 94.9596 124.473 95.1126 124.271 95.3145C124.076 95.5163 123.926 95.7637 123.822 96.0566C123.718 96.3431 123.66 96.6686 123.646 97.0332L123.09 96.9648C123.09 96.2943 123.158 95.6725 123.295 95.0996C123.432 94.5267 123.63 94.0254 123.891 93.5957C124.151 93.166 124.477 92.834 124.867 92.5996C125.264 92.3587 125.72 92.2383 126.234 92.2383C126.378 92.2383 126.531 92.2513 126.693 92.2773C126.863 92.2969 126.996 92.3262 127.094 92.3652ZM131.078 94.6016V103H128.5V92.4336H130.932L131.078 94.6016ZM130.697 97.3359H129.906C129.906 96.6003 129.994 95.9232 130.17 95.3047C130.352 94.6862 130.619 94.1491 130.971 93.6934C131.322 93.2311 131.755 92.873 132.27 92.6191C132.79 92.3652 133.393 92.2383 134.076 92.2383C134.551 92.2383 134.988 92.3099 135.385 92.4531C135.782 92.5898 136.124 92.8079 136.41 93.1074C136.703 93.4004 136.928 93.7845 137.084 94.2598C137.24 94.7285 137.318 95.2917 137.318 95.9492V103H134.74V96.2129C134.74 95.7181 134.669 95.3307 134.525 95.0508C134.389 94.7708 134.19 94.5755 133.93 94.4648C133.669 94.3477 133.357 94.2891 132.992 94.2891C132.589 94.2891 132.24 94.3704 131.947 94.5332C131.661 94.6895 131.423 94.9076 131.234 95.1875C131.052 95.4674 130.915 95.7897 130.824 96.1543C130.74 96.5189 130.697 96.9128 130.697 97.3359ZM137.123 96.8574L136.059 97.0527C136.065 96.3887 136.156 95.7669 136.332 95.1875C136.508 94.6016 136.765 94.0905 137.104 93.6543C137.449 93.2116 137.875 92.8665 138.383 92.6191C138.897 92.3652 139.49 92.2383 140.16 92.2383C140.681 92.2383 141.15 92.3132 141.566 92.4629C141.99 92.6061 142.351 92.8372 142.65 93.1562C142.95 93.4688 143.178 93.8757 143.334 94.377C143.497 94.8783 143.578 95.4902 143.578 96.2129V103H140.98V96.2031C140.98 95.6888 140.909 95.2949 140.766 95.0215C140.629 94.748 140.43 94.5592 140.17 94.4551C139.91 94.3444 139.604 94.2891 139.252 94.2891C138.894 94.2891 138.581 94.3574 138.314 94.4941C138.054 94.6243 137.833 94.8066 137.65 95.041C137.475 95.2754 137.341 95.5488 137.25 95.8613C137.165 96.1673 137.123 96.4993 137.123 96.8574ZM151.713 100.754V95.8809C151.713 95.5228 151.651 95.2135 151.527 94.9531C151.404 94.6927 151.215 94.4909 150.961 94.3477C150.707 94.2044 150.385 94.1328 149.994 94.1328C149.649 94.1328 149.346 94.1914 149.086 94.3086C148.832 94.4258 148.637 94.5918 148.5 94.8066C148.363 95.015 148.295 95.2559 148.295 95.5293H145.707C145.707 95.0931 145.811 94.6797 146.02 94.2891C146.228 93.8919 146.524 93.5404 146.908 93.2344C147.299 92.9219 147.764 92.6777 148.305 92.502C148.852 92.3262 149.464 92.2383 150.141 92.2383C150.941 92.2383 151.654 92.375 152.279 92.6484C152.911 92.9154 153.406 93.319 153.764 93.8594C154.128 94.3997 154.311 95.0801 154.311 95.9004V100.51C154.311 101.037 154.343 101.49 154.408 101.867C154.48 102.238 154.584 102.561 154.721 102.834V103H152.094C151.97 102.733 151.876 102.395 151.811 101.984C151.745 101.568 151.713 101.158 151.713 100.754ZM152.074 96.5645L152.094 98.0977H150.463C150.059 98.0977 149.704 98.14 149.398 98.2246C149.092 98.3027 148.842 98.4199 148.646 98.5762C148.451 98.7259 148.305 98.9082 148.207 99.123C148.109 99.3314 148.061 99.569 148.061 99.8359C148.061 100.096 148.119 100.331 148.236 100.539C148.36 100.747 148.536 100.913 148.764 101.037C148.998 101.154 149.271 101.213 149.584 101.213C150.04 101.213 150.437 101.122 150.775 100.939C151.114 100.751 151.378 100.523 151.566 100.256C151.755 99.9889 151.856 99.735 151.869 99.4941L152.611 100.607C152.52 100.874 152.383 101.158 152.201 101.457C152.019 101.757 151.785 102.036 151.498 102.297C151.212 102.557 150.867 102.772 150.463 102.941C150.059 103.111 149.59 103.195 149.057 103.195C148.373 103.195 147.761 103.059 147.221 102.785C146.68 102.512 146.254 102.137 145.941 101.662C145.629 101.187 145.473 100.646 145.473 100.041C145.473 99.4811 145.577 98.9863 145.785 98.5566C145.993 98.127 146.303 97.7656 146.713 97.4727C147.123 97.1732 147.631 96.9486 148.236 96.7988C148.848 96.6426 149.548 96.5645 150.336 96.5645H152.074ZM159.066 100.676L159.047 102.463C159.047 103.16 158.874 103.866 158.529 104.582C158.184 105.298 157.738 105.891 157.191 106.359L155.824 105.607C156 105.314 156.163 105.018 156.312 104.719C156.469 104.419 156.592 104.094 156.684 103.742C156.781 103.397 156.83 103.01 156.83 102.58V100.676H159.066ZM174.838 98.3223H177.523C177.452 99.2728 177.188 100.116 176.732 100.852C176.277 101.581 175.642 102.154 174.828 102.57C174.014 102.987 173.028 103.195 171.869 103.195C170.977 103.195 170.173 103.039 169.457 102.727C168.747 102.408 168.139 101.955 167.631 101.369C167.13 100.777 166.745 100.067 166.479 99.2402C166.212 98.4069 166.078 97.4727 166.078 96.4375V95.3535C166.078 94.3184 166.215 93.3841 166.488 92.5508C166.762 91.7174 167.152 91.0078 167.66 90.4219C168.174 89.8294 168.79 89.3737 169.506 89.0547C170.229 88.7357 171.036 88.5762 171.928 88.5762C173.087 88.5762 174.066 88.791 174.867 89.2207C175.668 89.6439 176.29 90.2266 176.732 90.9688C177.175 91.7109 177.442 92.5638 177.533 93.5273H174.848C174.796 92.9284 174.665 92.4206 174.457 92.0039C174.255 91.5872 173.949 91.2715 173.539 91.0566C173.135 90.8353 172.598 90.7246 171.928 90.7246C171.407 90.7246 170.948 90.8223 170.551 91.0176C170.16 91.2129 169.835 91.5059 169.574 91.8965C169.314 92.2806 169.118 92.7624 168.988 93.3418C168.858 93.9147 168.793 94.5788 168.793 95.334V96.4375C168.793 97.1602 168.852 97.8079 168.969 98.3809C169.086 98.9538 169.268 99.4388 169.516 99.8359C169.763 100.233 170.082 100.536 170.473 100.744C170.863 100.952 171.329 101.057 171.869 101.057C172.527 101.057 173.061 100.952 173.471 100.744C173.887 100.536 174.203 100.23 174.418 99.8262C174.639 99.4225 174.779 98.9212 174.838 98.3223ZM185.229 100.754V95.8809C185.229 95.5228 185.167 95.2135 185.043 94.9531C184.919 94.6927 184.73 94.4909 184.477 94.3477C184.223 94.2044 183.9 94.1328 183.51 94.1328C183.165 94.1328 182.862 94.1914 182.602 94.3086C182.348 94.4258 182.152 94.5918 182.016 94.8066C181.879 95.015 181.811 95.2559 181.811 95.5293H179.223C179.223 95.0931 179.327 94.6797 179.535 94.2891C179.743 93.8919 180.04 93.5404 180.424 93.2344C180.814 92.9219 181.28 92.6777 181.82 92.502C182.367 92.3262 182.979 92.2383 183.656 92.2383C184.457 92.2383 185.17 92.375 185.795 92.6484C186.426 92.9154 186.921 93.319 187.279 93.8594C187.644 94.3997 187.826 95.0801 187.826 95.9004V100.51C187.826 101.037 187.859 101.49 187.924 101.867C187.995 102.238 188.1 102.561 188.236 102.834V103H185.609C185.486 102.733 185.391 102.395 185.326 101.984C185.261 101.568 185.229 101.158 185.229 100.754ZM185.59 96.5645L185.609 98.0977H183.979C183.575 98.0977 183.22 98.14 182.914 98.2246C182.608 98.3027 182.357 98.4199 182.162 98.5762C181.967 98.7259 181.82 98.9082 181.723 99.123C181.625 99.3314 181.576 99.569 181.576 99.8359C181.576 100.096 181.635 100.331 181.752 100.539C181.876 100.747 182.051 100.913 182.279 101.037C182.514 101.154 182.787 101.213 183.1 101.213C183.555 101.213 183.952 101.122 184.291 100.939C184.63 100.751 184.893 100.523 185.082 100.256C185.271 99.9889 185.372 99.735 185.385 99.4941L186.127 100.607C186.036 100.874 185.899 101.158 185.717 101.457C185.535 101.757 185.3 102.036 185.014 102.297C184.727 102.557 184.382 102.772 183.979 102.941C183.575 103.111 183.106 103.195 182.572 103.195C181.889 103.195 181.277 103.059 180.736 102.785C180.196 102.512 179.77 102.137 179.457 101.662C179.145 101.187 178.988 100.646 178.988 100.041C178.988 99.4811 179.092 98.9863 179.301 98.5566C179.509 98.127 179.818 97.7656 180.229 97.4727C180.639 97.1732 181.146 96.9486 181.752 96.7988C182.364 96.6426 183.064 96.5645 183.852 96.5645H185.59ZM192.719 94.6016V103H190.141V92.4336H192.572L192.719 94.6016ZM192.338 97.3359H191.547C191.547 96.6003 191.635 95.9232 191.811 95.3047C191.993 94.6862 192.26 94.1491 192.611 93.6934C192.963 93.2311 193.396 92.873 193.91 92.6191C194.431 92.3652 195.033 92.2383 195.717 92.2383C196.192 92.2383 196.628 92.3099 197.025 92.4531C197.423 92.5898 197.764 92.8079 198.051 93.1074C198.344 93.4004 198.568 93.7845 198.725 94.2598C198.881 94.7285 198.959 95.2917 198.959 95.9492V103H196.381V96.2129C196.381 95.7181 196.309 95.3307 196.166 95.0508C196.029 94.7708 195.831 94.5755 195.57 94.4648C195.31 94.3477 194.997 94.2891 194.633 94.2891C194.229 94.2891 193.881 94.3704 193.588 94.5332C193.301 94.6895 193.064 94.9076 192.875 95.1875C192.693 95.4674 192.556 95.7897 192.465 96.1543C192.38 96.5189 192.338 96.9128 192.338 97.3359ZM198.764 96.8574L197.699 97.0527C197.706 96.3887 197.797 95.7669 197.973 95.1875C198.148 94.6016 198.406 94.0905 198.744 93.6543C199.089 93.2116 199.516 92.8665 200.023 92.6191C200.538 92.3652 201.13 92.2383 201.801 92.2383C202.322 92.2383 202.79 92.3132 203.207 92.4629C203.63 92.6061 203.992 92.8372 204.291 93.1562C204.59 93.4688 204.818 93.8757 204.975 94.377C205.137 94.8783 205.219 95.4902 205.219 96.2129V103H202.621V96.2031C202.621 95.6888 202.549 95.2949 202.406 95.0215C202.27 94.748 202.071 94.5592 201.811 94.4551C201.55 94.3444 201.244 94.2891 200.893 94.2891C200.535 94.2891 200.222 94.3574 199.955 94.4941C199.695 94.6243 199.473 94.8066 199.291 95.041C199.115 95.2754 198.982 95.5488 198.891 95.8613C198.806 96.1673 198.764 96.4993 198.764 96.8574ZM207.523 88H210.111V100.666L209.857 103H207.523V88ZM216.908 97.6094V97.8145C216.908 98.6022 216.82 99.3249 216.645 99.9824C216.475 100.64 216.218 101.21 215.873 101.691C215.528 102.167 215.098 102.538 214.584 102.805C214.076 103.065 213.48 103.195 212.797 103.195C212.146 103.195 211.579 103.068 211.098 102.814C210.622 102.561 210.222 102.202 209.896 101.74C209.571 101.271 209.311 100.721 209.115 100.09C208.92 99.4518 208.773 98.7552 208.676 98V97.4434C208.773 96.6816 208.92 95.985 209.115 95.3535C209.311 94.722 209.571 94.1719 209.896 93.7031C210.222 93.2344 210.622 92.873 211.098 92.6191C211.573 92.3652 212.133 92.2383 212.777 92.2383C213.467 92.2383 214.07 92.3717 214.584 92.6387C215.105 92.8991 215.535 93.2702 215.873 93.752C216.218 94.2272 216.475 94.7936 216.645 95.4512C216.82 96.1022 216.908 96.8216 216.908 97.6094ZM214.32 97.8145V97.6094C214.32 97.1602 214.285 96.737 214.213 96.3398C214.141 95.9362 214.024 95.5814 213.861 95.2754C213.699 94.9694 213.477 94.7285 213.197 94.5527C212.917 94.377 212.566 94.2891 212.143 94.2891C211.739 94.2891 211.394 94.3574 211.107 94.4941C210.827 94.6309 210.593 94.8197 210.404 95.0605C210.222 95.3014 210.079 95.5846 209.975 95.9102C209.877 96.2357 209.812 96.5872 209.779 96.9648V98.4883C209.825 98.9896 209.932 99.4421 210.102 99.8457C210.271 100.243 210.521 100.559 210.854 100.793C211.192 101.027 211.628 101.145 212.162 101.145C212.579 101.145 212.927 101.063 213.207 100.9C213.487 100.731 213.708 100.497 213.871 100.197C214.034 99.8913 214.148 99.5365 214.213 99.1328C214.285 98.7292 214.32 98.2897 214.32 97.8145ZM221.518 92.4336V103H218.93V92.4336H221.518ZM218.754 89.6699C218.754 89.2858 218.884 88.9668 219.145 88.7129C219.411 88.459 219.77 88.332 220.219 88.332C220.668 88.332 221.023 88.459 221.283 88.7129C221.55 88.9668 221.684 89.2858 221.684 89.6699C221.684 90.0475 221.55 90.3633 221.283 90.6172C221.023 90.8711 220.668 90.998 220.219 90.998C219.77 90.998 219.411 90.8711 219.145 90.6172C218.884 90.3633 218.754 90.0475 218.754 89.6699ZM229.799 100.754V95.8809C229.799 95.5228 229.737 95.2135 229.613 94.9531C229.49 94.6927 229.301 94.4909 229.047 94.3477C228.793 94.2044 228.471 94.1328 228.08 94.1328C227.735 94.1328 227.432 94.1914 227.172 94.3086C226.918 94.4258 226.723 94.5918 226.586 94.8066C226.449 95.015 226.381 95.2559 226.381 95.5293H223.793C223.793 95.0931 223.897 94.6797 224.105 94.2891C224.314 93.8919 224.61 93.5404 224.994 93.2344C225.385 92.9219 225.85 92.6777 226.391 92.502C226.938 92.3262 227.549 92.2383 228.227 92.2383C229.027 92.2383 229.74 92.375 230.365 92.6484C230.997 92.9154 231.492 93.319 231.85 93.8594C232.214 94.3997 232.396 95.0801 232.396 95.9004V100.51C232.396 101.037 232.429 101.49 232.494 101.867C232.566 102.238 232.67 102.561 232.807 102.834V103H230.18C230.056 102.733 229.962 102.395 229.896 101.984C229.831 101.568 229.799 101.158 229.799 100.754ZM230.16 96.5645L230.18 98.0977H228.549C228.145 98.0977 227.79 98.14 227.484 98.2246C227.178 98.3027 226.928 98.4199 226.732 98.5762C226.537 98.7259 226.391 98.9082 226.293 99.123C226.195 99.3314 226.146 99.569 226.146 99.8359C226.146 100.096 226.205 100.331 226.322 100.539C226.446 100.747 226.622 100.913 226.85 101.037C227.084 101.154 227.357 101.213 227.67 101.213C228.126 101.213 228.523 101.122 228.861 100.939C229.2 100.751 229.464 100.523 229.652 100.256C229.841 99.9889 229.942 99.735 229.955 99.4941L230.697 100.607C230.606 100.874 230.469 101.158 230.287 101.457C230.105 101.757 229.87 102.036 229.584 102.297C229.298 102.557 228.952 102.772 228.549 102.941C228.145 103.111 227.676 103.195 227.143 103.195C226.459 103.195 225.847 103.059 225.307 102.785C224.766 102.512 224.34 102.137 224.027 101.662C223.715 101.187 223.559 100.646 223.559 100.041C223.559 99.4811 223.663 98.9863 223.871 98.5566C224.079 98.127 224.389 97.7656 224.799 97.4727C225.209 97.1732 225.717 96.9486 226.322 96.7988C226.934 96.6426 227.634 96.5645 228.422 96.5645H230.16ZM237.152 100.676L237.133 102.463C237.133 103.16 236.96 103.866 236.615 104.582C236.27 105.298 235.824 105.891 235.277 106.359L233.91 105.607C234.086 105.314 234.249 105.018 234.398 104.719C234.555 104.419 234.678 104.094 234.77 103.742C234.867 103.397 234.916 103.01 234.916 102.58V100.676H237.152ZM247.465 88.7812V103H244.779V88.7812H247.465ZM252.699 94.6895V103H250.121V92.4336H252.543L252.699 94.6895ZM252.289 97.3359H251.527C251.534 96.5677 251.638 95.8711 251.84 95.2461C252.042 94.6211 252.325 94.084 252.689 93.6348C253.061 93.1855 253.5 92.8405 254.008 92.5996C254.516 92.3587 255.082 92.2383 255.707 92.2383C256.215 92.2383 256.674 92.3099 257.084 92.4531C257.494 92.5964 257.846 92.8242 258.139 93.1367C258.438 93.4492 258.666 93.8594 258.822 94.3672C258.985 94.8685 259.066 95.487 259.066 96.2227V103H256.469V96.2031C256.469 95.7214 256.397 95.3405 256.254 95.0605C256.117 94.7806 255.915 94.582 255.648 94.4648C255.388 94.3477 255.066 94.2891 254.682 94.2891C254.285 94.2891 253.936 94.3704 253.637 94.5332C253.344 94.6895 253.096 94.9076 252.895 95.1875C252.699 95.4674 252.549 95.7897 252.445 96.1543C252.341 96.5189 252.289 96.9128 252.289 97.3359ZM263.871 94.6895V103H261.293V92.4336H263.715L263.871 94.6895ZM263.461 97.3359H262.699C262.706 96.5677 262.81 95.8711 263.012 95.2461C263.214 94.6211 263.497 94.084 263.861 93.6348C264.232 93.1855 264.672 92.8405 265.18 92.5996C265.688 92.3587 266.254 92.2383 266.879 92.2383C267.387 92.2383 267.846 92.3099 268.256 92.4531C268.666 92.5964 269.018 92.8242 269.311 93.1367C269.61 93.4492 269.838 93.8594 269.994 94.3672C270.157 94.8685 270.238 95.487 270.238 96.2227V103H267.641V96.2031C267.641 95.7214 267.569 95.3405 267.426 95.0605C267.289 94.7806 267.087 94.582 266.82 94.4648C266.56 94.3477 266.238 94.2891 265.854 94.2891C265.456 94.2891 265.108 94.3704 264.809 94.5332C264.516 94.6895 264.268 94.9076 264.066 95.1875C263.871 95.4674 263.721 95.7897 263.617 96.1543C263.513 96.5189 263.461 96.9128 263.461 97.3359ZM272.055 97.8242V97.6191C272.055 96.8444 272.165 96.1315 272.387 95.4805C272.608 94.8229 272.93 94.2533 273.354 93.7715C273.777 93.2897 274.294 92.9154 274.906 92.6484C275.518 92.375 276.215 92.2383 276.996 92.2383C277.79 92.2383 278.493 92.375 279.105 92.6484C279.724 92.9154 280.245 93.2897 280.668 93.7715C281.091 94.2533 281.413 94.8229 281.635 95.4805C281.856 96.1315 281.967 96.8444 281.967 97.6191V97.8242C281.967 98.5924 281.856 99.3053 281.635 99.9629C281.413 100.614 281.091 101.184 280.668 101.672C280.245 102.154 279.727 102.528 279.115 102.795C278.503 103.062 277.803 103.195 277.016 103.195C276.234 103.195 275.535 103.062 274.916 102.795C274.298 102.528 273.777 102.154 273.354 101.672C272.93 101.184 272.608 100.614 272.387 99.9629C272.165 99.3053 272.055 98.5924 272.055 97.8242ZM274.633 97.6191V97.8242C274.633 98.2865 274.678 98.7194 274.77 99.123C274.861 99.5267 275.001 99.8815 275.189 100.188C275.378 100.493 275.622 100.734 275.922 100.91C276.228 101.079 276.592 101.164 277.016 101.164C277.432 101.164 277.79 101.079 278.09 100.91C278.389 100.734 278.633 100.493 278.822 100.188C279.018 99.8815 279.161 99.5267 279.252 99.123C279.343 98.7194 279.389 98.2865 279.389 97.8242V97.6191C279.389 97.1634 279.343 96.737 279.252 96.3398C279.161 95.9362 279.018 95.5814 278.822 95.2754C278.633 94.9629 278.386 94.7188 278.08 94.543C277.781 94.3607 277.419 94.2695 276.996 94.2695C276.579 94.2695 276.221 94.3607 275.922 94.543C275.622 94.7188 275.378 94.9629 275.189 95.2754C275.001 95.5814 274.861 95.9362 274.77 96.3398C274.678 96.737 274.633 97.1634 274.633 97.6191ZM287.191 101.047L289.652 92.4336H292.348L288.725 103H287.084L287.191 101.047ZM285.395 92.4336L287.885 101.066L287.973 103H286.322L282.689 92.4336H285.395ZM299.369 100.754V95.8809C299.369 95.5228 299.307 95.2135 299.184 94.9531C299.06 94.6927 298.871 94.4909 298.617 94.3477C298.363 94.2044 298.041 94.1328 297.65 94.1328C297.305 94.1328 297.003 94.1914 296.742 94.3086C296.488 94.4258 296.293 94.5918 296.156 94.8066C296.02 95.015 295.951 95.2559 295.951 95.5293H293.363C293.363 95.0931 293.467 94.6797 293.676 94.2891C293.884 93.8919 294.18 93.5404 294.564 93.2344C294.955 92.9219 295.421 92.6777 295.961 92.502C296.508 92.3262 297.12 92.2383 297.797 92.2383C298.598 92.2383 299.311 92.375 299.936 92.6484C300.567 92.9154 301.062 93.319 301.42 93.8594C301.785 94.3997 301.967 95.0801 301.967 95.9004V100.51C301.967 101.037 301.999 101.49 302.064 101.867C302.136 102.238 302.24 102.561 302.377 102.834V103H299.75C299.626 102.733 299.532 102.395 299.467 101.984C299.402 101.568 299.369 101.158 299.369 100.754ZM299.73 96.5645L299.75 98.0977H298.119C297.715 98.0977 297.361 98.14 297.055 98.2246C296.749 98.3027 296.498 98.4199 296.303 98.5762C296.107 98.7259 295.961 98.9082 295.863 99.123C295.766 99.3314 295.717 99.569 295.717 99.8359C295.717 100.096 295.775 100.331 295.893 100.539C296.016 100.747 296.192 100.913 296.42 101.037C296.654 101.154 296.928 101.213 297.24 101.213C297.696 101.213 298.093 101.122 298.432 100.939C298.77 100.751 299.034 100.523 299.223 100.256C299.411 99.9889 299.512 99.735 299.525 99.4941L300.268 100.607C300.176 100.874 300.04 101.158 299.857 101.457C299.675 101.757 299.441 102.036 299.154 102.297C298.868 102.557 298.523 102.772 298.119 102.941C297.715 103.111 297.247 103.195 296.713 103.195C296.029 103.195 295.417 103.059 294.877 102.785C294.337 102.512 293.91 102.137 293.598 101.662C293.285 101.187 293.129 100.646 293.129 100.041C293.129 99.4811 293.233 98.9863 293.441 98.5566C293.65 98.127 293.959 97.7656 294.369 97.4727C294.779 97.1732 295.287 96.9486 295.893 96.7988C296.505 96.6426 297.204 96.5645 297.992 96.5645H299.73Z" fill="black"/>
</g>
<defs>
<linearGradient id="paint0_linear_35_138" x1="120.106" y1="-31.4152" x2="58.6124" y2="100.034" gradientUnits="userSpaceOnUse">
<stop stop-color="#1B1464"/>
<stop offset="0.27" stop-color="#1B1665"/>
<stop offset="0.41" stop-color="#1A1E66"/>
<stop offset="0.53" stop-color="#192C6A"/>
<stop offset="0.62" stop-color="#173F6E"/>
<stop offset="0.71" stop-color="#155874"/>
<stop offset="0.79" stop-color="#12777C"/>
<stop offset="0.87" stop-color="#0F9C85"/>
<stop offset="0.94" stop-color="#0BC58F"/>
<stop offset="1" stop-color="#07EF99"/>
</linearGradient>
<linearGradient id="paint1_linear_35_138" x1="91.4558" y1="-23.0944" x2="117.742" y2="58.4279" gradientUnits="userSpaceOnUse">
<stop stop-color="#1B1464"/>
<stop offset="0.08" stop-color="#192668"/>
<stop offset="0.24" stop-color="#155474"/>
<stop offset="0.46" stop-color="#0E9E85"/>
<stop offset="0.69" stop-color="#07EF99"/>
</linearGradient>
<linearGradient id="paint2_linear_35_138" x1="65.6722" y1="-9.37305" x2="17.9459" y2="27.3436" gradientUnits="userSpaceOnUse">
<stop stop-color="#1B1464"/>
<stop offset="0.27" stop-color="#1B1665"/>
<stop offset="0.41" stop-color="#1A1E66"/>
<stop offset="0.53" stop-color="#192C6A"/>
<stop offset="0.62" stop-color="#173F6E"/>
<stop offset="0.71" stop-color="#155874"/>
<stop offset="0.79" stop-color="#12777C"/>
<stop offset="0.87" stop-color="#0F9C85"/>
<stop offset="0.94" stop-color="#0BC58F"/>
<stop offset="1" stop-color="#07EF99"/>
</linearGradient>
<linearGradient id="paint3_linear_35_138" x1="82.093" y1="116.617" x2="62.0685" y2="49.7822" gradientUnits="userSpaceOnUse">
<stop stop-color="#1B1464"/>
<stop offset="0.11" stop-color="#1A1A65"/>
<stop offset="0.24" stop-color="#192969"/>
<stop offset="0.39" stop-color="#17436F"/>
<stop offset="0.56" stop-color="#136878"/>
<stop offset="0.73" stop-color="#0F9784"/>
<stop offset="0.91" stop-color="#0ACF91"/>
<stop offset="1" stop-color="#07EF99"/>
</linearGradient>
<clipPath id="clip0_35_138">
<rect width="307" height="103" fill="white"/>
</clipPath>
</defs>
</svg>
