<svg width="30" height="26" viewBox="0 0 30 26" fill="none" xmlns="http://www.w3.org/2000/svg">
<g clip-path="url(#clip0_1_6209)">
<path d="M28.8281 1.00073H19.7051C19.0957 1.00073 18.1816 1.34828 17.7481 1.83131L6.41016 13.1884C5.97656 13.6243 5.97656 14.3665 6.41016 14.8025L16.2305 24.6751C16.6641 25.1111 17.4024 25.1111 17.8359 24.6751L29.1738 13.2768C29.6074 12.8409 30 11.969 30 11.3094V2.13762C29.959 1.525 29.4375 1.00073 28.8281 1.00073ZM23.0918 10.1724C21.832 10.1724 20.7891 9.1239 20.7891 7.85742C20.7891 6.59093 21.832 5.5424 23.0918 5.5424C24.3516 5.5424 25.3946 6.59093 25.3946 7.85742C25.3946 9.1239 24.3516 10.1724 23.0918 10.1724Z" fill="#03C12D"/>
<path d="M2.54297 14.0131L15.4922 0.994873H13.582C12.9726 0.994873 12.0585 1.34242 11.625 1.82546L0.328125 13.1885C-0.105469 13.6244 -0.105469 14.3666 0.328125 14.8025L10.1484 24.6752C10.582 25.1111 11.3203 25.1111 11.7539 24.6752L12.4511 23.9742L2.54297 14.0131Z" fill="#03C12D"/>
</g>
<defs>
<clipPath id="clip0_1_6209">
<rect width="30" height="26" fill="white"/>
</clipPath>
</defs>
</svg>
