<svg width="281" height="93" viewBox="0 0 281 93" fill="none" xmlns="http://www.w3.org/2000/svg">
<path d="M280.225 22.1412C276.418 0.270713 210.733 -6.55441 133.508 6.89633C101.076 12.5481 71.7913 20.8842 48.986 30.2625C52.4891 30.3392 55.0872 31.1428 56.6658 32.718C57.9 33.9541 58.5234 35.6506 58.5234 37.7643V39.9337H50.9509V38.0182C50.9509 36.4221 49.9943 35.4329 48.2999 35.4329C46.876 35.4329 45.9989 36.0761 45.7158 37.3429C45.6209 37.8437 45.6313 38.3588 45.7464 38.8553C46.5567 42.1688 57.801 44.2266 59.024 50.3416C59.1844 51.1285 59.402 52.8125 59.0589 55.2219C58.3574 60.1538 54.0259 62.0568 48.5119 62.0568C40.8153 62.0568 37.6887 58.4098 37.6887 53.3817L37.6942 51.0029H45.812L45.8162 53.9663C45.8162 55.6321 47.0266 56.5515 48.675 56.5515C50.2369 56.5515 51.149 55.9223 51.4641 54.6359C51.6106 54.0444 51.6747 53.1724 51.4084 52.5055C49.9064 48.7358 39.4068 46.9751 38.114 40.8797C37.8253 39.5096 37.8016 38.3433 38.0415 36.8686C38.1646 36.1376 38.3909 35.4278 38.7137 34.7605C13.4177 46.5956 -1.37994 59.6181 0.575232 70.8617C4.38657 92.735 70.0704 99.5531 147.294 86.1024C181.241 80.1911 211.759 71.3416 234.985 61.4248C234.649 61.4415 234.323 61.4778 233.974 61.4778C228.689 61.4778 223.97 59.4967 223.48 54.0918C223.394 53.1082 223.379 52.6967 223.376 52.1358L223.379 39.7105C223.379 39.1748 223.441 38.2344 223.501 37.7489C224.127 32.5254 228.255 30.3713 233.977 30.3713C238.405 30.3713 243.834 31.6423 244.431 37.7531C244.51 38.5204 244.502 39.3394 244.501 39.6087V40.782H236.853V39.0311C236.853 38.9934 236.842 38.3391 236.758 37.9303C236.632 37.3066 236.101 35.8613 233.923 35.8613C231.771 35.8613 231.213 37.3094 231.074 37.9317C230.994 38.2735 230.957 38.7646 230.957 39.3087V52.8125C230.95 53.2812 230.973 53.6482 231.021 53.9174C231.058 54.1295 231.445 55.9906 233.949 55.9906C236.436 55.9906 236.821 54.1295 236.856 53.9174C236.921 53.5519 236.93 53.1166 236.927 52.8125V48.6284H233.917V44.122H244.559V52.1386C244.556 52.6841 244.548 53.0873 244.456 54.0918C244.328 55.5093 243.881 56.7091 243.181 57.7346C267.813 46.0334 282.155 33.2216 280.225 22.1412ZM79.9829 60.903L76.1088 34.5679H75.9694L71.9963 60.903H63.8311L69.3229 31.1624H82.6451L88.1034 60.903H79.9829ZM119.257 60.903L119.077 35.0772H118.946L114.141 60.903H106.478L101.698 35.0772H101.561L101.387 60.903H93.7932L94.4515 31.1624H106.665L110.221 53.2547H110.395L113.961 31.1624H126.169L126.825 60.903H119.257ZM155.014 55.1396C154.197 60.9002 148.556 61.9075 144.569 61.9075C137.949 61.9075 133.855 59.0767 133.855 53.3161L133.859 50.9667H141.879L141.885 53.8937C141.885 55.4828 143.004 56.4552 144.734 56.4552C146.276 56.4552 147.18 55.8358 147.494 54.5634C147.639 53.9704 147.699 53.1054 147.442 52.4525C145.964 48.7539 135.546 46.9416 134.28 40.941C133.99 39.5808 133.969 38.4256 134.208 36.9662C135.089 31.5265 140.307 30.3964 144.508 30.3964C148.265 30.3964 150.999 31.2168 152.64 32.8575C153.863 34.0824 154.482 35.7636 154.482 37.8549V40.0007H146.982V38.1075C146.982 36.4863 145.976 35.5487 144.36 35.5487C142.926 35.5487 142.059 36.1863 141.774 37.4406C141.682 37.9362 141.695 38.4456 141.811 38.9362C142.614 42.2344 153.759 44.2504 154.98 50.3081C155.137 51.0811 155.353 52.7399 155.014 55.1396ZM182.791 52.4372C182.802 52.9952 182.748 54.11 182.717 54.396C182.26 59.2958 178.757 61.7861 172.332 61.7861C165.882 61.7861 162.376 59.2958 161.922 54.396C161.87 53.7462 161.846 53.0946 161.848 52.4427V31.1554H169.521V53.1138C169.512 53.6049 169.537 53.9677 169.586 54.2202C169.681 54.7085 170.166 56.2934 172.332 56.2934C174.491 56.2934 174.976 54.7071 175.078 54.2258C175.121 53.9663 175.148 53.5854 175.148 53.1124V31.1554H182.791V52.4372ZM215.849 60.6003H205.173L198.006 37.043H197.886L198.283 60.6003H190.842V31.1624H201.966L208.591 53.7919H208.745L208.354 31.1624H215.849V60.6003Z" fill="#2D4F9E"/>
</svg>
