<svg width="41" height="28" viewBox="0 0 41 28" fill="none" xmlns="http://www.w3.org/2000/svg">
<path d="M31.4128 20.0518C32.8185 20.0518 33.9258 21.1562 33.9258 22.5583C33.9258 23.9604 32.8185 25.0648 31.4128 25.0648C30.007 25.0648 28.8997 23.9604 28.8997 22.5583C28.8997 21.1562 30.007 20.0518 31.4128 20.0518ZM11.3086 20.0518C12.7143 20.0518 13.8216 21.1562 13.8216 22.5583C13.8216 23.9604 12.7143 25.0648 11.3086 25.0648C9.90287 25.0648 8.79557 23.9604 8.79557 22.5583C8.79557 21.1562 9.90287 20.0518 11.3086 20.0518ZM2.51302 10.0258V12.5323H10.0521V10.0258H2.51302ZM26.3867 7.51935H35.5357L37.6953 13.9422V21.3051H36.2425C35.6849 19.151 33.7373 17.5453 31.4128 17.5453C29.0882 17.5453 27.1406 19.151 26.583 21.3051H26.3867V7.51935ZM1.25651 5.01286V7.51935H12.5651V5.01286H1.25651ZM0 -0.00012207V2.50637H23.8737V21.3051H16.1383C15.5807 19.151 13.6331 17.5453 11.3086 17.5453C8.98405 17.5453 7.03646 19.151 6.47888 21.3051H5.02604V15.0388H2.51302V23.8116H6.47888C7.03646 25.9656 8.98405 27.5713 11.3086 27.5713C13.6331 27.5713 15.5807 25.9656 16.1383 23.8116H26.583C27.1406 25.9656 29.0882 27.5713 31.4128 27.5713C33.7373 27.5713 35.6849 25.9656 36.2425 23.8116H40.2083V13.5898L40.1298 13.3939L37.6168 5.87447L37.3419 5.01286H26.3867V-0.00012207H0Z" fill="#4B4AEF"/>
</svg>
